<?xml version="1.0" encoding="UTF-8"?>
<svg id="Layer_2" data-name="Layer 2" xmlns="http://www.w3.org/2000/svg" viewBox="0 0 109.42 115.8">
  <defs>
    <style>
      .cls-1 {
        fill: #fff;
      }

      .cls-2 {
        opacity: .8;
      }

      .cls-3 {
        fill: #231f20;
      }
    </style>
  </defs>
  <g class="cls-2">
    <path class="cls-1" d="M63.68,30.33h1.8l3.84-19.04C48.5-13.17-12.89,3.39,14.57,48.7c5.26,6.62,13.73,17.52,24.01,25.61,20.08,15.64,35.28,40.71,70.83,36.84v-1.52s-6.21,3.39-39.87-27.32C41.43,56.65,25.29,45.59,23.12,29.97c-.97-7.02,1.21-14.18,6.28-19.17,4.5-4.43,11.88-7.8,23.17-2.83,0,0,11.76,4.98,11.11,22.34h0Z"/>
    <path class="cls-1" d="M68.43,53.12v1.59s8.94-1.56,12.94,7.68c.49,1.12.83,2.3,1.06,3.5,1.16,5.82,4.15,27.06-10.89,37.06,0,0-9.8,11.15-30.75,6.13,0,0-21.4-4.21-24.65-25.55-1.16-7.58.4-15.32,4.22-21.96,1.43-2.49,3.21-4.85,5.28-6.25l-4.91-4.29s-32.23,14.09-16.3,45.46c0,0,12.01,22.18,49.26,18.99,37.25-3.19,40.07-37.01,40.07-37.01,0,0,.74-10.17-.18-14.52-.92-4.35-.43-9.68,7.65-9.56v-1.35l-32.8.06v.02h0Z"/>
  </g>
  <g>
    <path class="cls-3" d="M5.95,67.97h4.01c5.78,0,10.39,2.55,10.39,8.01s-4.65,8.07-10.42,8.07h-3.99v-16.08h.01ZM10.07,68.26h-2.07v15.53h2.14c5.39,0,8.05-3.28,8.05-7.79s-2.44-7.73-8.13-7.73h.01Z"/>
    <path class="cls-3" d="M29.52,81.89c-.66,1.48-2.03,2.42-3.9,2.42-2.03,0-3.73-.99-3.73-2.93,0-2.36,2.16-3.28,4.56-3.28,1.01,0,2.12.22,2.99.61v-2.38c0-2.42-.9-3.08-2.36-3.08s-2.42.96-2.93,3.25l-1.74-.15c.72-2.14,2.47-3.34,4.73-3.34,2.51,0,4.3.99,4.3,4.45v6.59h-1.94v-2.16h.01ZM29.46,80.68v-1.76c-.85-.44-1.79-.57-2.49-.57-1.79,0-3.04,1.03-3.04,2.79,0,1.65,1.03,2.66,2.68,2.66,1.24,0,2.84-1.08,2.84-3.12Z"/>
    <path class="cls-3" d="M38.82,84.03v.02h-1.37l-4.25-10.77h2.12l3.64,9.86,3.7-9.86h.44l-4.25,10.77-.02-.02Z"/>
    <path class="cls-3" d="M44.65,69.8c0-.75.57-1.33,1.33-1.33s1.33.57,1.33,1.33-.57,1.37-1.33,1.37-1.33-.59-1.33-1.37ZM46.96,84.05h-1.98v-10.77h1.98v10.77Z"/>
    <path class="cls-3" d="M54.05,84.32c-2.09,0-3.1-1.13-3.1-3.32v-7.38l-2.42-.07v-.15l2.42-.04v-2.62l1.87-1.12h.11v3.75l4.23-.07v.37l-4.23-.07v7.44c0,1.9.55,2.71,2.03,2.71,1.3,0,2.09-1.05,2.25-2.62l.18.04c-.22,2.01-1.37,3.15-3.33,3.15h0Z"/>
    <path class="cls-3" d="M29.25,97.89c-.66,2.49-2.75,3.88-5.79,3.88-4.69,0-7.86-3.43-7.86-8.29,0-5.13,3.55-8.29,8.18-8.29,3.39,0,6.5,1.74,7.11,5.24l-1.9.15c-.28-3.21-2.27-5.13-5.3-5.13-4.16,0-5.99,3.34-5.99,7.73,0,5.11,2.49,8.22,6.35,8.22,3.15,0,5.11-2.14,5.17-5.15v-1.14h-4.25v-.28h6.15v6.67h-1.85v-3.62s-.01,0-.01,0Z"/>
    <path class="cls-3" d="M40.69,99.35c-.66,1.48-2.03,2.42-3.9,2.42-2.03,0-3.73-.99-3.73-2.93,0-2.36,2.16-3.28,4.56-3.28,1.01,0,2.12.22,2.99.61v-2.38c0-2.42-.9-3.08-2.36-3.08s-2.42.96-2.93,3.25l-1.74-.15c.72-2.14,2.47-3.34,4.73-3.34,2.51,0,4.3.99,4.3,4.45v6.59h-1.94v-2.16h.01ZM40.63,98.13v-1.76c-.85-.44-1.79-.57-2.49-.57-1.79,0-3.04,1.03-3.04,2.79,0,1.65,1.03,2.66,2.68,2.66,1.24,0,2.84-1.08,2.84-3.12Z"/>
    <path class="cls-3" d="M44.67,105.67l.57-1.46c.48.33,1.16.53,1.79.53s1.13-.24,1.52-.77c.37-.46.72-1.14,1.13-2.14h-.81l-4.52-11.1h2.29l3.59,9.64-.02.07,3.34-9.71h.42l-3.97,10.77v-.02l-.37,1.01c-1.03,2.84-2.12,3.57-3.39,3.57-.55,0-1.13-.15-1.57-.39h-.01Z"/>
    <path class="cls-3" d="M62.62,99.35c-.66,1.48-2.03,2.42-3.9,2.42-2.03,0-3.73-.99-3.73-2.93,0-2.36,2.16-3.28,4.56-3.28,1.01,0,2.12.22,2.99.61v-2.38c0-2.42-.9-3.08-2.36-3.08s-2.42.96-2.93,3.25l-1.74-.15c.72-2.14,2.47-3.34,4.73-3.34,2.51,0,4.3.99,4.3,4.45v6.59h-1.94v-2.16h.01ZM62.56,98.13v-1.76c-.85-.44-1.79-.57-2.49-.57-1.79,0-3.04,1.03-3.04,2.79,0,1.65,1.03,2.66,2.68,2.66,1.23,0,2.84-1.08,2.84-3.12Z"/>
    <path class="cls-3" d="M69.76,101.51h-1.98v-10.77h1.98v3.04c.5-2.18,2.33-3.3,4.27-3.3,2.05,0,3.92,1.1,3.92,4.25v6.78h-1.98v-6.54c0-2.55-.96-3.84-2.75-3.84-1.9,0-3.45,1.35-3.45,4.8v5.57h-.01Z"/>
    <path class="cls-3" d="M85.79,101.77c-2.88,0-5.35-2.01-5.35-5.59,0-3.39,2.18-5.71,5.44-5.71,3.01,0,4.87,2.16,4.87,5.04v.13h-8.22c.11,4.08,1.79,5.61,4.19,5.61,2.01,0,3.47-1.41,3.88-3.62l.2.04c-.53,2.82-2.4,4.08-5,4.08h0ZM82.53,95.36h6.35c-.13-2.62-1.03-4.65-3.08-4.65-2.2,0-3.25,2.12-3.25,4.52v.13h-.01Z"/>
  </g>
</svg>