<?xml version="1.0" encoding="UTF-8"?>
<svg id="Layer_2" xmlns="http://www.w3.org/2000/svg" version="1.1" xmlns:xlink="http://www.w3.org/1999/xlink" viewBox="0 0 86.1 51.7">
  <!-- Generator: Adobe Illustrator 29.3.0, SVG Export Plug-In . SVG Version: 2.1.0 Build 146)  -->
  <defs>
    <style>
      .st0 {
        fill: #fff;
      }
    </style>
  </defs>
  <path d="M16.5,48.9c.2,0,.8,0,.9-.1s-.4-1.9.4-1.7h0c0-.1-.1-.2-.1-.3,0-1,0-2.3,0-3.3s0-.8,0-1.1,0-.5,0-.8c.1-1.2,0-2.4,0-3.6,0-.3-.6-.3-.8-.3,0-.3.2-.4.4-.6.3-.3.6-.7,1-1s1-.7,1.4-1.1.1-.3.3-.3c0-2.3,0-4.7,0-7s0-.2,0-.4c0-.4.2-.9-.2-1.3v.2c0-.2-.3-.2-.2-.4.6-.8.6-1.8,1-2.7s.4-.6.5-.8,0-.1,0-.2c.5,0,1,.2,1.3-.3,0-.9,0-1.9,0-2.8s-.1-.3-.2-.4c-.3-.6,0-.7.1-1.3v-2c-.3,0-.2-.1-.3-.3s-.2-.2-.3-.3l5.8-8.7c0-.3-.2-.2-.2-.3,0-.2,0-.5-.1-.7l.5-.7v-1.6c-.4-.2-.6,0-.9.1v-.2c0-.1-.4,0-.3-.2s.2,0,.3-.1.1-.3.3-.3h.1c0,0-.1.3-.1.3h.7c0-.2-.1-.7-.1-.7s-.2.1-.2,0c0-.2.1-.3.2-.4s0-.3.2-.4,0,0,0,0c0,.2.2.4.5.5h-.3c0,.1,0,.8,0,.8,0,0,.4,0,.5,0,0,0,.2-.4.3-.3s.1.2.1.2c0,0,.4,0,.2.3-.3,0-.3.3-.6.3v-.2c.1,0-.5,0-.5,0-.1.1,0,1.5,0,1.7l.5.8c0,.2-.2.3-.2.4s0,.4-.2.5c.5.6.9,1.3,1.4,1.9,1.2,1.8,2.4,3.6,3.7,5.4s.7,1.1.6,1.3-.5.5-.5.8c0,.8,0,1.8.1,2.6s.1.2.1.3c0,.2-.2.4-.3.5,0,.7,0,1.8,0,2.5s-.1.4,0,.7c.3-.1.3-.4.5-.7.2-.4.5-.8.7-1.2.1,0,.8,0,1,0s.3,0,.4,0c.3,0,.5.2.9,0s.7-1.1.9-1.3.1-.1.2-.2c.1,0,.5.3.7.2,0-.5,0-1,0-1.5,0-.9,0-1.8,0-2.8s0-.4,0-.7-.2-.1-.3-.4c-.3-.6,0-.8.4-1.2,1.8-1.8,3.6-3.2,5.5-4.9s1.7-1.5,2.5-2.2c0-.2-.2-.5-.1-.7s.5-.5.5-.7,0-.9,0-1,0,0,0-.1c0,0-.3,0-.3,0-.2,0-.5.5-.5,0h-.2c0-.3,0-.4.3-.5l.2.3h.6c0-.3,0-.7-.3-.7h0c0-.2.4-.6.5-.6h.1c0,0,0,.4,0,.4,0,0,.2,0,.2.1-.3.2-.2.5-.2.8h.7s.2-.3.2-.3c0,.2.1.2.2.4-.2.2-.5.8-.4.1-.2,0-.7,0-.8.2s0,.6,0,.7,0,.6,0,.7c0,.1.4.3.4.5s-.1.5-.3.6c.7.5,1.4,1.2,2.1,1.7,1.3,1.1,2.6,2,3.9,3.2s1.9,1.7,2.8,2.6c0,.3.1.5,0,.8s0,.3-.1.3c0,0-.3,0-.4.3,0,.6,0,1.2,0,1.8,0,.8,0,1.7,0,2.5s0,.7.2.8h2.8c0,0,.1,0,.1,0l.9,1.9c.2,0,.5,0,.7,0s.4.2.5,0c0,.5.2,1.1.3,1.7s.8.9,0,1.1h0c0,.1.1,6.8.1,6.8.1,0,.2,0,.3.1,1.5.7,2.9,1.5,4.3,2.2s2.7,1.3,2.7,1.5,0,.2,0,.3c0,.2-.5.6-.7.7,0,.3,0,.7,0,1,0,2.8,0,5.6,0,8.4s.1,1.6,0,2.4l.3.2v1.3c0,0,1.3,0,1.3,0v.3c-.3,0-.8,0-1.1,0s-.2.1-.4.1c-1.2,0-2.4-.2-3.7.1-2.1,0-4.1,0-6.2,0s-1.4,0-2.1,0-1,0-1.3,0-.4-.2-.5-.2-.1.1-.2.1c-.4,0-1,0-1.4,0-.6,0-1.2.3-1.8.2s-.3-.1-.5-.1c-.2,0-1.8.1-2,.2s-.1,0-.1.1h1.3c1.7,0,3.3,0,5,0s.5.1.8,0c.4,0,.8-.1,1.2-.1s.4,0,.5.2c-.3,0-.6,0-.9,0-2.1.1-4.3,0-6.4,0s-3.1,0-4.6,0-.9-.1-1.2-.1-.9.1-1.4,0-.2,0,0-.1c.5,0,1,0,1.4,0,.6,0,1.2.1,1.9,0s1.6-.1,2.4,0h-.5c0,0-.2-.1-.3-.2-.6,0-1.7-.1-2.3-.1s-.2.1-.4.2c-.5,0-.8,0-1.1-.1s-.8,0-1.2,0h.1c-.4-.1-.8-.1-1.2-.2s-.8-.2-1.2-.2-.2,0-.4,0c-.2,0-.8-.1-1-.1-1.1,0-2.2,0-3.3.1-2.8,0-5.5,0-8.3.1s-.2-.1-.4-.2c-.2-.1-.4,0-.6,0-2.1,0-4.1.2-6.2.1s-1.1,0-1.6,0c-.7,0-1.4-.2-2.2,0v-.3ZM40.4,11.1s0,0-.1.1c0,0,0,0,0,0,.3,0,1-.2,1.3-.3s.2-.1.2-.2c0,.2.5.1.7.1.6,0,1.2-.3,1.8-.3,2.1-.2,4.6,0,6.7.2s.2,0,.3.1c.2,0,.4,0,.6,0v.2c.4,0,.6.1.9.2s.2,0,.4.1.3,0,.4,0c0,.2.4.2.6.3l-7.4-6.1c-.3,0-.7.4-.9.6h.2c0,.2-.1,0-.2.1s-.3.2-.4.3c0,.1,0,0,0,0,.3,0,.6,0,.9,0s0,0,0,.1h-.7c0,.1,0,0,0,0h-.5c0,.2-.3.3-.5.5-.3.2-.5.6-.8.8s-.5.3-.7.5-.4.4-.7.6c-.2.2.5-.2.3,0s-.3.1-.4.2c-.3.2-.5.5-.8.7-.4.3-.8.7-1.2,1.1,0,0,.1,0,.2,0,.5-.4,1-.9,1.5-1.1,0,.2-.4.3-.5.4s0,.2-.3.2h0c-.3.3-.7.6-1,.8,0,0,0,0,0,0,0,0,0,0,0,0-.2,0-.7.4-.9.6.2,0,.4-.1.6-.2s.2-.2.3-.3ZM27.8,6.3c-.1,0-.1.1-.2.2-.1.2-.3.4-.4.6h.4c-.1,0-.5.1-.6.3s0,0,.1,0h.5c-.2,0-.6,0-.7.1s-.4.7-.6.8c0,.1,0,0,.1,0,.2,0,.3,0,.5,0h-.2c0-.2.3,0,.5-.1h0c0,.1-.9.2-.9.2-.2.2-.3.5-.6.6h.1c-.5.4-.8,1-1.1,1.6s-.1.1-.2.2c-.6.8-1.1,1.7-1.7,2.5.2,0,.5-.2.7-.2,1.8-.5,5-.5,6.8-.2s1.4.4,2,.5.2,0,.3,0l-4.8-7.2ZM55.4,13.1c.1-.1-.4-.6-.5-.7-1-.7-2.6-1-3.8-1.2-3.5-.5-8-.4-11.3.8s-1,.5-1.2.6-.2.2-.3.3c0,0,0,.2,0,.3,0,0,0,0,.1,0,.3-.3.7-.6,1-.8.9-.4,1.9-.6,2.9-.8,2.9-.5,6.1-.5,9,0s2.2.6,3.3,1.2.7.5.7.4ZM54.8,13.1c-1.9-1.5-5.4-1.5-7.7-1.6s-1.3,0-1.9,0-.5,0-.5.2h0c-1,.1-2.1.1-3.1.4s-2.3.7-2.9,1.5c0,0,0,.6,0,.7,0,1.3,0,2.6.1,3.9s0,.5,0,.7c0,.1.2,0,.3,0,0-.2,0-.5,0-.7s-.1,0-.2,0c0-.1,0,0,.1-.1s0-.3,0-.4c0-.1,0,0,0-.3s0-.8,0-1.3h-.2c.1,0,.2-.2.2-.4h-.2c0-.3,0-.7.4-.9,0,.3.2.5.1.8.1,0,.2-.4.4-.3,0,.2-.3.4-.4.5s0,.4,0,.6h.1c-.2.3,0,.6,0,.8s0,.2-.1.4c0,.3,0,.6,0,.9l.3-.3c0,.2-.2.2-.2.2s0,.4.2.3.2-.2.3-.2c0,.3-.4.3-.6.5,0,0,1.2.3,1.3.4s.2,0,0,0c-.2.2-.9,0-1.1,0s-.7-.1-1-.1l1.6,1.4c.3-.3.7-.6,1-.9s.4-.4.6-.6c.5-.4.9-1,1.6-1.2l1.2,1.1c.6-.1,1.3,0,2,0s.2,0,.3-.1c.5,0,.9.2,1.4-.1s.8-.8,1.3-.9c0,0-.8-.5-.9-.4l.2.2h-.3c0-.4,0-.6,0-.9,0-.6,0-1.9,0-2.5.1-.9,1.1-.7,1.2,0v3.6c.2,0,.4.2.6.3.4.4,1,1.2,1.4,1.5s.1,0,.2.1c.1,0,0-.2,0-.3.1-.2.3-.1.5-.2s.4-.2.6-.3.7-.1.7-.2h-.2c0,0,.2-.2.2-.2,0-1.1,0-2.3-.2-3.4,0,0-.1,0-.1.2-.1.4,0,2,0,2.5s0,.2,0,.3c0,.1-.3,0-.4.3l.4.2c-.2,0-.5.1-.5-.1s.2-.3.2-.4c.1-.9-.2-2.2,0-3.2s0-.4.3-.4c.4,0,.5.5.5.8,0,.6,0,1.2,0,1.8v1.7c.2,0,.9-.2.9-.3v-.3c0-.9-.2-1.9-.2-2.9s.2-.7.4-.5c.4.4.2,1.4.3,1.9s0,.3,0,.4c0,.6,0,1.1,0,1.7l-.2-.2c.2,0,0-.3,0-.4v-2.9c-.5.3-.3.4-.3.7,0,.6,0,1.5,0,2.1s-.2.4,0,.6.5.4.6.4c0-.8,0-1.5,0-2.3s0-1.1-.1-1.6,0-1,0-1.5-.2-.2-.3-.4ZM30,13.9c.9.2,2,.4,2.8,1,.4-.4,0-.6-.4-.7-2.4-1-4.8-.9-7.4-.7s-1.2.2-1.5.3-.2.4-.3.2l.2-.2c-.2,0-1.3.6-1.3.7.1.2.2,0,.3,0s.5-.1.4-.2h0c.1.1.5-.1.7-.2h0c0,.1,1.5-.2,1.5-.2h0c.6,0,1.2,0,1.8,0h0c0-.1.8-.2.8-.2h0c.1,0,.3.1.4.1.2,0,.2-.1.3-.2s.2,0,.3,0c.6,0,1.2,0,1.8.1h-.5ZM32.4,15c-.2-.1-.9-.3-1.1-.4-1.9-.6-3.5-.6-5.5-.5s-2.2.3-3.2.7l.2.2c-.2,0-.2,0-.2.2v1.4c.3-.4.6-.8,1-1.2s.6-.6.7-.6.1,0,.2,0c-.4.4-.9.8-1.3,1.3s-.3.4-.4.6-.1,0-.1.1c-.1.2,0,.5,0,.7.1.2,0-.2.3,0l-.2.4h.3c-.2-.7.2-1.4.7-1.8.4-.1,1-.3,1.4-.1s0,.1.1.1.2,0,.2,0,0,0,0,.1c0,.1.1.2.2.3s0,.4,0,.6h.5c.2-.5.3-.9.6-1.2,1.1-1.1,2.8-.1,2.8,1.3h.7c-.1-.6.3-1.1,1-1s1,1,.9,1.6h.6c0,0,0-2.2,0-2.2,0-.1-.2-.4-.3-.4ZM49.1,15.2c0-.3,0-.6,0-1s0-.2,0-.1c0,.3,0,.5,0,.8s0,.3,0,.3ZM48.7,17.1v-2.7c-.6.4-.4.8-.4,1.3s0,1,0,1.5h.4ZM23.2,17.2l.2-.5.4-.6c-.4.3-.5.7-.7,1.1h.1ZM24.6,21.1v-2.5c0,0-.3-.3-.3-.4,0-.2,0-.4,0-.5l-.6-.6c-.4.4,0,.7,0,1.1s0,.2-.1.2v-.2c-.3,0-.1.3-.1.5,0,.7,0,1.5,0,2.2s0,.1,0,.2c0,.1.3,0,.4,0s.8,0,.8,0ZM26.3,17.7c.1,0,.2-.3.3-.4-.2-.3-.6-.3-.9-.1s-.4.3-.4.4c0,.2.4,0,.5,0,.2,0,.6,0,.6.2ZM28.5,18.1h-.1c-.1-.5-.6-.7-.8-1-.3.2-.9.6-.9.9,0,.6,0,1.7,0,2.3s-.1.3,0,.5c.5,0,.9,0,1.4,0s.4.1.4,0v-2.8ZM30.3,17.8c0-.2,0-.4-.1-.5-.1,0-.9,0-.9,0v.6c0,0,0,0,.2-.2.4-.3.5,0,.9,0ZM31.1,17.4c-.3,0-.4.4-.7.5v3.1c0,0,1.1.3,1.1.3v-2.6c0-.2-.4-.2-.5-.3-.1-.3.1-.3.1-.5s0-.3-.1-.4ZM26.1,20.9s.1,0,.1,0c.1-.2,0-.7,0-.9,0-.4,0-1.7-.1-2s-.6-.2-.7.2,0,.2,0,.3c0,.8,0,1.7,0,2.5l.3-.2c-.1.3,0,.1.3.2s0,0,0,0ZM23.2,17.9c0,0,0-.2,0-.2l-.5.2c0,0,.2,0,.2,0s.3,0,.3,0ZM29.4,18.3c0,.9,0,1.7,0,2.6h.8c0-.3,0-.7,0-1.1s0-.2,0-.3c0-.4.2-1.4-.1-1.7s-.7,0-.7.3,0,0,0,.1ZM32.9,18c-.3-.1-.5-.2-.8-.2-.1,0-.2.3-.2.4s-.2,0-.1.2c.3-.5.7-.3,1.1-.2v-.4ZM22.9,21.1h.2s.1,0,.1,0v-2.6c0-.3-.3-.5-.6-.3v.6s.1,0,.1,0c0,.1,0,0-.1.1,0,0,0,.2,0,.3h.2c0-.1,0,0,0,0h0s-.2.4-.2.4h.2s-.1.4-.1.5c0,.1.1.2.1.3s-.1.1-.1.2h.2c0-.1-.1.1-.1.1h.1c0,0-.1.3-.1.3.2-.1,0,0,.2,0h0ZM54.5,19.2c-.6.5-1.1,1.2-1.7,1.7s-.3.2-.4.3v-.4c-.1,0-.2.2-.2.2-.5-.6-1.1-1.1-1.7-1.6s-.3-.4-.5-.5h0c0-.1-.4-.5-.4-.5-.3.2-.3,0,0-.1-.2,0-.2,0-.2-.2l-2.6,2.1c0,.1-.6.6-.5.8.2-.2.5-.4.7-.6s0-.1,0-.2h.1s0,.2,0,.2l.2-.2c0-.1-.1-.2,0-.3v.2c.6-.5,1.1-1,1.7-1.3s.2-.1.2-.1l2.8,2.5c0,0,0,.1,0,.1-.1,0-.9-.7-1-.8-.4-.4-.9-.8-1.3-1.3s-.3-.4-.4-.5c-.4.3-.8.5-1.1.8s-.9.9-1.4,1.3-.6.5-.8.6-.5-.5-.7-.3c.2.2.2.5.3.8.1,1.5,0,3,0,4.5s.1,1.4,0,2,0,.2-.1.2v-2.4c-.4,0-.1,0-.1-.1,0,0,0-.2,0-.3h-.2c0,0,.2,0,.2-.3h-.2c0,0,.2-.1.1-.3h-.1c0,0,0-.2.1-.2,0-.1-.1-.3,0-.4h-.2c0,0,.1-.4.1-.4v-2.9c0,0-.6-.6-.7-.6s-.2,0-.2,0,0,0,0-.1-.4-.3-.4-.3c-.1,0-.2.2-.4.2l.3-.3c-.3-.1-.6-.3-.7-.6l-2,2.2h0c.2.2,0,.2,0,.4,0,.5,0,1.7.1,2.4,0,1.2,0,2.7,0,3.8s0,.2-.1.2c0-.7,0-1.4,0-2,0-1.4,0-2.8,0-4.2s-.1-.6,0-.8.2,0,.3-.2c.4-.4.9-1,1.3-1.4s.4-.6.6-.6l2,1.6h.2s-2.3-2.1-2.3-2.1l-2.9,3,.2-.4h-.3s0-.5,0-.5h-.1s.1.2.1.2c0,.1,0,0-.1,0-.5-.4-.9-1-1.5-1.2s-.4-.5-.6-.5l-1.9,2.6v.3s0,0,0,0l1.8-2.7v.3c.2-.1.3.1.5.2.3.2.6.4.8.6s.3.4.3.4c0,0,.2,0,.3,0s.1.3.2.4c0,0,.2,0,.3,0h-.2c0,.4,0,.8,0,1.3s0,1.1,0,1.7c0,1.5,0,3,0,4.6.3,0,.1.2,0,.3-.1,0,0-.3-.2-.3.2-.4,0-1,0-1.4s0-.7,0-1.1h-.2c.3-.3.1-1,.1-1.5s0-.6,0-.9h-.2c0,0,.2-.2.2-.2h-.1c.1-.2.2-.5,0-.5.1-.1.1-.3.1-.4h-.2c0,0,0,0,.1-.1,0-.1,0-.9,0-1.1l-.4.2c0-.1.4-.3.3-.4-.2,0-.2-.2-.4-.2h.1c0-.1-.2-.2-.2-.2v-.2s-.3,0-.3,0l.2-.2c0-.1-.3-.1-.4-.1s-.2-.4-.4-.3c.1-.2,0-.1,0-.2s0-.1,0-.1c-.2,0-.3.4-.5.5-.1-.1.6-.7.3-.7s-.2.3-.3.4c-.2.3-.8.7-.9.9s0,.2,0,.2-.2,0-.3.2-.1.1,0,.1l.5-.4c0,.2-.4.3-.5.5-.2.2-.2.4-.1.7,0,1,0,2.2.1,3.2s0,.5,0,.9c0,.6,0,1.2,0,1.8.1,0,.2-.3.4-.3l-.4.4c0,.3.2.8-.2.9v-3.1c0,0-.4.2-.5.3,0,.1,0,.8,0,1.1v2.1c.2,0,.3,0,.4-.1.5,0,1.1,0,1.6-.1,3.9-.4,7.8-.7,11.7-.7s3.9.2,5.9.3,1.7,0,2.6.2.2.1.6.2,1.2.4,1.8.5.5.1.8.2c-.2-.2,0-.4,0-.5,0-1.9,0-4-.1-6s-.3-1-.3-1.5,0-.1,0,0c.1.3.2.6.2,1,0,0,.1,0,.1-.2,0-.4-.3-1-.3-1.4,0,0-.5.9-.5,1s-.2.3-.3.2v-.4c0,0,0,0,0,0h0c0-.1.2-.2.2-.2h-.2c.1,0,0-.3-.2-.3h0c0,0,.1-.1.1-.1l-1-2.6s-.2.1-.3.2c-.3.3-.5.7-.8,1.1s0,.3-.3.2v.4s.1,0,.1,0l.5-.8.7-.7c-.3.3,0,.4,0,.6.3.7.6,1.5.8,2.2s0,.2,0,.3h.1s0,0,0,0v6.5s0,.2,0,.2h-.2c0-2.2,0-4.3,0-6.5-.3-.7-.6-1.4-.8-2.1s-.2-.5-.2-.8c-.1,0-.2.1-.2.2-.4.5-.7,1.1-1.1,1.6h-.2c.2-.4,0-.8-.3-1.1s-.5-.6-.7-.9-.3-.3-.4-.5h-.2c0-.1,0-.2,0-.2-.1-.2,0,0-.1-.1s0-.1-.1-.2-.2,0-.3-.2c-.2,0-.2,0-.3.1,0,0,.1,0,.1,0l2.2,2.8c-.1,0-.1,0-.2,0-.4-.3-.8-1.1-1.2-1.5s-.3,0-.2-.2c-.2,0-.3-.4-.4-.5s0,.2-.2.1c0-.2-.2-.4-.4-.3,0,0,.1-.3.2-.3ZM32.7,18.3c-.2,0-.7,0-.8.1v2.5s0-.2,0-.2v.3c.2,0,0,.2,0,.3l.8.3v-3.3ZM42.9,18.6c.2,0,.3-.1,0-.2-.3,0-.7.6-1,.8,0,0,.2,0,0,.1s-.4.2-.5.3c-.2.2-1.1,1-1.2,1.2s0,.1,0,.2l.5-.4h0c.2,0,.2-.2.2-.3s0,0,.2,0,.1-.3.3-.4.2,0,.2,0,.4-.4.5-.6.2-.4.3-.4h0c.1,0,.3-.2.4-.5h0ZM43.3,18.6l-.2.2c.4.1.6.5.9.8s.5.5.8.7,0,.1.2.1c-.2-.3-.4-.4-.6-.6s0-.3-.4-.3v-.2c-.2-.1-.3-.4-.5-.6h-.1c0,.1,0,0,0,0ZM54.4,18.8s0-.1,0,0l-1.9,2.1c.1,0,.2-.1.3-.2.1-.1.1-.3.2-.3s.1,0,.3,0,.5-.6.7-.8.5-.4.7-.5c0-.1-.2,0-.3,0ZM53.6,18.9c-.7,0-1.3.4-1.9.5-.1.2.5.9.6.9l1.3-1.4ZM47.2,19h-2.6c0,.1,1.2,1.4,1.2,1.4.4-.5,1-1,1.5-1.4ZM58.1,19.5s-.7,0-.7,0-.1.3-.2.2l.2-.2c-.3,0-.6,0-.9,0s-.3,0-.3.1l.9,1.2c0-.2,1.2-1.3,1.1-1.4ZM34.9,20.8c0,0,.1,0,.2.2.2.2.3.4.5.5l.5-1h-.1c0,0-1.4-.2-1.4-.2,0,0,.3.4.3.5ZM34.3,20.9s0-.2,0,0,0,0,0,.1l1.7,1.7c0,0,0,.1-.1.1-.1,0-.7-.7-.8-.9-.3.1-.3.5-.2.7l.4-.2c0,.2-.2.1-.3.3s0,.2,0,.3l.5-.4c0,.2-.4.4-.4.5s.2.3,0,.4c.1,0,0,0,.1,0,0,0,.4-.5.5-.5l-.5.6.2.6.2-.2-.2.3h.3c-.2.5,0,.2.2,0,0,.1-.2.2-.2.4s.2.3.1.5h.1c0,0,0,.3.1.3,0-.2,0-.5,0-.7,0-.6.1-1.4-.2-1.9h.2c0-.1,0-.3,0-.4s-.9-1-1-1.2-.2-.2-.2-.3c0,0-.3-.3-.4-.4ZM34.2,21.1c-.1,0-.3.3-.3.4s-.2.2-.1.2l.2-.2-.2.5c-.2-.1-.2.4,0,0,.2,0,.3-.4.5-.5h-.1c0,0,0-.3,0-.3h.2c0,0-.1-.2-.1-.2ZM28.9,21.5c.3,0,.5.1.8-.1,0-.1-.6-.2-.7-.2-1.1,0-2.3,0-3.3,0s-.9,0-.9.1c.2.3.6.5.8.8.2,0,.4,0,.6-.1s.4-.3.7-.2l-.3.2h0c-.2.2-.4.1-.6.2s-.3,0-.2.1l.8.8h.5s-.3,0-.3,0c0,.2.4.2.4.2,0,0,0,.1,0,.2s.2.2.3.2c0,0,.1-.2.2-.3.3-.4.6-.7.8-1l.7-.6h-.3c0,0-.7,0-.7,0h-.6c.2-.2.5,0,.6,0s0,0,0-.1c.1,0,.3,0,.5,0s0-.1,0-.1c.2,0,.1,0,.2.1.2,0,.4,0,.5-.2,0,0-.7,0-.5-.1ZM24.2,21.4c-.4,0-.9.1-1.2.3-.2.5.2,1-.4,1.2v-.2c0,0-.1.1-.1.1h-.1c0-.1-.2,0-.2,0l.2-.2c-.2-.1-.4.2-.6.2l.3-.3c-.2,0-.4-.3-.6,0l.5,1.3h.1c.3-.7,1-1.1,1.4-1.7l.8-.7ZM34.2,22.2s.3-.4.4-.5v-.3c0,0-.5.7-.5.7,0,.1,0,0,.1,0ZM32.7,22c-.7-.2-1.3-.5-2-.4.1.2.4.3.5.4.5.5.9,1.1,1.4,1.7s0,.1.1.2.4.2.4.2l.9-1.2c-.2,0-.5,0-.6,0s-.1,0-.2,0c-.2,0-.4,0-.6.1v-.2c.1,0-.4,0-.4,0,0,0,0-.1,0-.2,0-.3.5-.3.5-.6ZM60.4,21.6h-.5c0,.2-.1.3,0,.5,0,0,0-.3.2-.4s.3,0,.3-.2ZM30.2,21.7c0,0,0,0-.1,0-.4.3-.9,1-1.2,1.4s-1.3,1.2-1.3,1.4,0,.2,0,.2c0,0,.3-.2.3-.2.6-.6,1.1-1.2,1.6-1.8s.3-.2.3-.3,0-.3.4-.1.8.9,1.1,1.2.3.3.5.5c.4.4.7,1,1.2,1.2,0-.1,0-.4,0-.5s-.5-.4-.6-.6c-.6-.7-1.3-1.5-1.9-2.2s-.2,0-.2-.3ZM34.3,22.3h.2c0,0,.2-.3.3-.3h-.1c0-.1-.3.3-.3.3ZM24.5,21.9c0,0,0,0-.1,0-.3.3-.5.6-.8.9-.4.5-.9,1-1.4,1.5v.5s2.3-2.7,2.3-2.7l2.7,2.6c0-.5-.5-.7-.8-1-.7-.6-1.2-1.2-1.9-1.8s0,0,0-.1ZM33.4,22.2s0,0,0-.1h0s-.6.4-.6.4c.3.2.3,0,.4,0,.2,0,.4,0,.6-.1,0-.1-.2,0-.3,0ZM24.6,22.5h-.3c0,.1.2.2.2.2-.6.7-1.2,1.3-1.9,2s-.2.5-.5.4v8.7s-.2,0-.2,0c.3.4-.4.5-.6.8-.4.4-.9.9-1.3,1.3-.7.6-1.5,1.1-2,2,0,.6,0,1.3,0,1.9s0,.9,0,1.4c0,1.9,0,3.9,0,5.8,0,.1,2,0,2.3,0s.3,0,.4,0,.3-.1.5,0c0-1.2,0-2.3,0-3.5s0-1.8.4-2.7.6-1.2,1.3-1.6c1.6-1,3.5-.4,4.5,1.1s.3,4.8.5,6.6h-.1c0,.1,3.3.2,3.3.2h0c0-.3,0-.4,0-.6-.2-1.5,0-3.2,0-4.7s-.1-1.6-.1-2.3,0-.2.1-.4,0-.2,0-.1v.2c0-.3,0-.7,0-1s0-.2,0-.3c0-.1,0-.2,0-.5s0-.2-.1-.1l-.2.2v-.2c0-.1,0,0-.1,0s0-.1,0-.2c0-.1-.2-.2-.3-.3h-.2c0-.2-.2-.3-.3-.4-.3.3-.6.7-.9,1s0,.1-.2.1l1.1-1.1c-.2,0-.3-.3-.4-.4s-.2,0-.2-.2l-.4.3c0,0,.2-.3.3-.3,0-.1-.2-.1-.3-.2s-.2-.3-.3-.4c-.2-.2-.5-.3-.6-.5l-.4.3c0-.2.3-.3.3-.4,0-.3-.4,0-.5,0l.2-.3h-.4c0-.3.3-.5.3-.8s0-.4,0-.6c0-2.1,0-4.2,0-6.3,0-.2.1-1.3,0-1.4s-.2,0-.2,0,0,0,0-.1c0-.2-.3-.2-.4-.2h.2c0-.1-2.2-2.3-2.2-2.3ZM30.1,22.8c0-.1,0-.3-.1-.3-.8.9-1.7,1.8-2.5,2.7,0,.2,0,.3,0,.5,0,2.7,0,5.3,0,8,1.7.1,3.5.1,5.2.5,0-.2,0-.4.1-.5-.2,0,0-.1,0-.2,0-.3,0-.8,0-1.1,0-.7,0-1.5,0-2.2v-4.6c-.5-.6-1.1-1.1-1.6-1.7s-.8-1.1-.9-1.1-.1,0-.1,0ZM35.4,26.5c.1,0,.3-.1.3-.2-.6-1-.9-2.1-1.4-3.2-.4.5-1,1.1-1.2,1.7l1-1.3,1.3,3ZM21.1,23.3h-.1c0,.2-.2.5-.2.7s0,.1,0,.2-.1,0-.2,0-.5,1.3-.5,1.4c0,.4.3,0,.3-.3h-.2s0,0,0,0c.1-.5.5-1,.7-1.5s0-.4.1-.5ZM21.8,24.6c-.1-.4-.3-.8-.5-1.2v.2c.2.3.2.7.5,1ZM21.5,32.6s0,0,.1,0c0,.2,0,.4,0,.6l.4-.3c-.1-.7,0-1.5,0-2.2s0-.1,0-.2c0,0-.2.3-.3.3l-.4.2.7-.7h-.1c0,0,0-.6,0-.6-.1,0-.3.7-.5.5.2-.2.2-.5.5-.6v-.6c-.1,0,0,.3-.3.2l.3-.4c0-1.2,0-2.5,0-3.7h0c.2-.3,0-.4-.1-.5-.2-.3-.3-.7-.6-1,0,.3-.2.6-.3.9-.2.6-.5,1.3-.6,1.9s0,0,0,0l.3-.3c0,.2-.3.2-.3.4,0,.4,0,1,0,1.4h.2c0,0-.2,0-.2.2,0,.4,0,1,0,1.4h.1c0,1.2-.1,2.4,0,3.5s0,.2,0,.2c0,0-.2.5,0,.4s0-.2.2-.2c.2-.2.5-.3.6-.6h-.1c0-.1.1,0,.1,0,0,0,.2-.4.2-.5ZM34.2,23.8c-.1-.1-.3.4-.4.5,0,.1-.4.6-.5.7-.2.1-.3,0-.3.3,0,2.9,0,5.8,0,8.7s0,.2,0,.3c0,0,.2,0,.2.2,0,.3-.2.4-.3.5-.5.8-.9,1.6-1.3,2.4s-.1,0-.2.2c0,.4,0,1.4,0,1.9,0,2.5.2,5.1,0,7.7s0,.2,0,.2h1.8c-.1-.2,0-.6,0-.9,0-1.6-.2-3.4,0-4.9s.2-1.1.5-1.5c.7-.9,1.2-.3,1.6.5s.3,1,.3,1.3c0,1.5,0,3.1,0,4.7s.1.5,0,.8h1.5c.1,0,.1-.2.1-.3.2-1.7,0-3.8,0-5.5s0-2.1,0-3.1c-.6-1.2-1.4-2.3-1.9-3.5,0,0,.1,0,.1,0,.6.8,1.1,1.8,1.6,2.6s0,.1,0,.2h.4c0-.4,0-.3-.2-.5s-.5-.9-.6-.9-.1,0-.2,0h.2c-.4-.3-.3-.5-.4-.9h-.1c0,0,0-.1,0-.1,0,0-.1,0-.2,0s-.3-.5-.3-.6h-.3c0,0,.2-.2.2-.2,0-2.2.1-4.5,0-6.7s-.5-2-1-3.2-.2-.4-.2-.7ZM46.6,29.5c-.1,0-.5,0-.5,0s0,.1,0,.1c0,.1-.1.2-.2.3s-.3.4-.3.5c0,.1.2,0,.2.1h-.2s-1,1.9-1,1.9h1.2s0-.2,0-.2h-.3c.1,0,.3,0,.4-.2.1-.6.4-1.1.5-1.6s0-.1,0-.2,0,0,.1,0,.2-.8.2-.8ZM45.9,32.6h.8s.3,0,.3-.1l.4-2.9h-.5s-.9,3.1-.9,3.1ZM47.2,32.6c.3,0,.7,0,1,0,.1,0,0-.4,0-.5-.2,0-.5,0-.8,0s-.2,0-.2,0h1c0,0-.4-2.6-.4-2.6h-.4c0,1-.2,2.1-.4,3.1,0,0,.1,0,.1,0ZM48.7,32.6c.2,0,.5,0,.8,0l-.4-.2h.3s0-.2,0-.2h-.9,0c0-.1.9,0,.9,0v-.4c-.1,0-.6,0-.6,0h.4c.1-.3,0-.4-.3-.4h.2c0,0,0-.3,0-.3h-.3s.2-.1.2-.1c0,0-.3-1.2-.4-1.5h-.6s0,.1,0,.2.1,0,.1,0c0,.6.1,1.1.2,1.6s0,.7,0,.9.3.1.4.1ZM50,30c0-.3-.3-.6-.6-.4s0,.3.1.4,0,.2,0,.3c.4.7.8,1.5,1.1,2.3h1c0-.2-.2-.4-.5-.4h.3c0-.2-.2-.2-.2-.3s0,0,0-.1c0-.2-.6-1.1-.7-1.2s-.1,0-.2,0,0,0,0-.2c0-.1-.3-.5-.5-.4h0ZM51.9,32.6h1c0-.1-.2-.2-.3-.2-.2-.2-.4-.7-.6-.9s-.1-.1-.2-.1h.1c0-.2-.2-.3-.4-.5-.3-.4-.5-.8-.8-1.1s-.4-.3-.7-.2c0,.2.1.3.2.4.4.7.8,1.4,1.3,2s.4.4.4.7ZM46.1,29.6h-1.3c-.2,0-.2.2-.3.3-.2.2-.4.4-.5.6-.5.6-.9,1.3-1.3,1.8h.1c-.2,0-.3.2-.5.4.3,0,.9,0,1.1-.2.7-.9,1.3-1.9,1.9-2.9,0,0,0,.1,0,.2-.5,1-1.1,1.9-1.7,2.8h0c.2,0,.7.1.9,0s.5-.8.6-1c.4-.7.7-1.4,1.1-2.1ZM49.6,32.6h1c0-.4-.2-.3-.5-.4h.3c0-.3,0-.4-.3-.4h.2c-.2-.3-.2-.5-.4-.8s-.5-1-.5-1c0,0-.1,0-.2,0h.2c0-.5-.3-.4-.7-.5l.9,3ZM51.5,29.9c-.1-.4-.5-.4-.9-.3.1.1.2.3.5.3h-.1c0,0,2.1,2.6,2.1,2.6h.9c.1,0-.1-.2-.2-.2-.3-.3-.4-.5-.8-.5h.3c-.6-.7-1.1-1.4-1.7-1.9h-.3s.3,0,.3,0ZM44.5,29.6c-.4,0-.6,0-.9.3-.8.8-1.4,1.8-2.2,2.6s-.3.3-.3.3c.4,0,.7,0,.9-.4v.2c.3,0,.2-.2.2-.3,0,0,.2,0,.4-.3.3-.5.8-1.1,1.2-1.6s.5-.5.7-.8ZM54.3,32.7c.3,0,.7,0,.9,0s.2.2,0,0c-.7-.6-1.3-1.2-1.9-1.8s-.7-.5-1-.8-.4-.6-.9-.3c0,.2.4.3.5.3s0,0,0,.2c.2.3,1.1,1.1,1.4,1.4s.1.2.2.3.5.6.6.6.1,0,.2,0ZM43.7,29.7c-.2,0-.5,0-.6,0-.3,0-1.9,1.9-2.2,2.3s-.8.8-.8.8h.8c.2-.5.6-.7.9-1,.6-.7,1.2-1.5,1.9-2.1ZM55.6,32.8h.9l-.6-.4c-.7-.7-1.6-1.4-2.4-2.1s-.6-.6-1.2-.5c.1.2.2.3.5.2v.2c1,.8,1.9,1.7,2.9,2.6ZM54,30c-.2-.1-.3-.2-.6-.2s-.3,0-.3,0c1,.9,2.2,1.6,3.1,2.6,0,0,.5.4.6.4.2,0,.7,0,.9,0-1.3-.9-2.4-1.9-3.7-2.8s0-.1-.1-.1ZM41.2,29.8c-.2,0-.4,0-.6,0-.3,0-2.1,1.6-2.4,2s-.8.8-1.2,1.2c.2,0,.5,0,.6,0s.5-.4.6-.5c.4-.3.8-.7,1.2-1.1.6-.5,1.3-1,1.9-1.6ZM42,29.8c-.5,0-.6-.1-1,.2s-1,1-1.5,1.4l-1.7,1.5h.8c0,0,1.6-1.5,1.6-1.5l1.8-1.6ZM39,32.9h.8c0,0,.3-.3.4-.3v-.2s0,0,.1,0c.7-.6,1.3-1.3,1.9-1.9s.7-.5.6-.6c-.2,0-.3,0-.5,0-.5,0-2,1.9-2.5,2.3s-.6.5-.9.8ZM59,32.9c0,0-.1,0-.2,0-1.2-.8-2.4-1.7-3.6-2.5s-.8-.6-1.2-.4c.1.1.2.3.4.2v.2s3.7,2.7,3.7,2.7c.3,0,.5,0,.8,0s.1,0,0,0ZM59.4,33c0,0,.6,0,.7,0-1.2-.9-2.5-1.6-3.7-2.4s-.7-.7-1.1-.6l.2-.2h-.8c0-.1,0,0,0,0h.4c0,0,0,.2,0,.2,0,.1,1.6,1.2,1.9,1.3.7.5,1.5.9,2.3,1.4s0,.1,0,.1ZM40.2,30c0,0,0,0-.1,0-.7,0-1,.5-1.5.9s-.8.5-1.1.8l-1.6,1.5c.2,0,.5,0,.7-.1,1.2-1.1,2.4-2.1,3.7-3ZM61.3,33.1c-1.1-.7-2.3-1.3-3.4-2.1-.7-.3-1.4-1.1-2.2-1.1.1.2.4.3.6.5,1.4,1,3,1.8,4.5,2.8h.4s0,0,0,0l.2-.2ZM39.5,30h-.7c0,0-3,2.5-3,2.5v.4c0,0,3.7-2.9,3.7-2.9ZM65,33.6c-.2-.3-.6-.3-.8-.4-1.8-.9-4.7-2.9-6.6-3.1s-.4,0-.7-.1-.3,0-.5,0l.5.3c1.1.7,2.1,1.3,3.2,2s1.2.8,1.6,1,.4,0,.6,0h0c0,0-5-3.1-5-3.1,0,0,0,0,.1,0,.2,0,1.3.7,1.6.9,1.3.7,2.6,1.6,3.9,2.3s.5,0,.7.2h0c-.2-.2-.6-.3-.7-.5s0-.1,0-.2c-.2-.2-1-.5-1.4-.7-1-.6-2-1.2-3-1.8s-.3,0-.3-.2c0,0,.1,0,.2,0s1.2.6,1.4.7c1,.6,2.1,1.1,3.1,1.7s1.3.9,2.1,1ZM38.3,30.1c0,0-.2,0-.3,0-.4.1-1.9,1.3-2.2,1.6s-.1,0-.2,0v.4s2.6-2.1,2.6-2.1ZM37.6,30.2h-.5c-.2.3-1.4,1-1.5,1.2s0,.2,0,.3l2-1.5ZM36.7,30.3c-.5,0-.7.4-1.1.6v.2c0,0,1-.7,1.1-.8ZM66.5,33.9c0,0,0-.1-.1-.1-1.7-.9-3.5-1.7-5.2-2.5s-.9-.6-1.5-.7l5.7,3.1,1.1.3ZM21.6,33.4c.2,0,.2,0,.3,0,.1,0,0-.4,0-.4l-.3.4ZM21.4,33.5c0,0,.2-.5,0-.3l-.6.7.4-.2-.3.3h.4c0-.1,0-.4,0-.4,0,0,.1,0,.1,0ZM59.9,33.6c-.1,0-.3,0-.4,0-.5,0-1,0-1.5,0-1.5-.2-3-.2-4.6-.2-2.9,0-5.8-.1-8.6,0,0,0,0,.2-.2.1h.1c0-.1-2.4-.1-2.4-.1-1.6.2-3.2.1-4.8.2s-.6,0-.7.2c.2,0,.5,0,.7,0,.5,0,.8,0,1.2,0s.5,0,.6,0c.5,0,1-.1,1.5-.1s.8,0,1.1,0,0-.1,0-.1h0c0,.2.5,0,.6,0,.5,0,1.1.1,1.6,0h0c.7,0,1.3,0,2,0s1,.1,1.5-.2v.2c.3,0,.8,0,1.1,0s.7,0,1,0c1.9,0,3.9,0,5.8,0h.1c0,.1.7,0,.7,0v.2c-.1,0,.8-.1.8-.1,0,0,0,0,.1.1.6,0,1.5,0,2.2,0,2,.1,4.1.4,6,.7l2,.6h0c-.3-.2-.6-.4-1-.4h0c0-.1-.4-.1-.4-.2s-.3-.2-.5-.2c-1.8-.3-3.7-.4-5.5-.6s-.3,0-.5,0h0ZM36.7,33.7c-.3,0-.7.1-1,0-.1.7.4,1,.7,1.6.1.1.1-.4,0-.4,0-.3-.5-.7-.5-.8s.4,0,.5,0,.3,0,.2-.2ZM46.8,33.7c-.1,0-.3,0-.4,0-2.1.2-4.2,0-6.2.2s-.6,0-.8.1h0c0-.1-2.7,0-2.7,0,.6.4.2,1.2.4,1.8s.5.7.6,1c.3-.4.8-1.1,1.3-1.4,1.3-.6,2.6.1,3,1.5s0,.3,0,.4l2.2-1h-.6c0,0,0-.3,0-.3l3.4-2.3ZM55,33.8c-.2-.1-2.5,0-2.9,0h-.6s-4.4,0-4.4,0c.3.3.8.7,1.2,1s.3,0,.5.3l1.7,1.3c0,.1-.1.2-.3.2,0,0,.9.5,1,.6.6.4,1.2.7,1.8,1.1.9.6.2.5,0,.8s0,1.3,0,1.6c0,1.5,0,3,0,4.5v2.2c.3.2.7.2,1.1.2v-.4c-.1,0,.2,0,.2,0,0-.2,0-.5.3-.4v.2c0-.2.3,0,.4-.1s0-.9.5-.9c.2,0,0,1.3,0,1.5h8.2c.1,0,0-1.1,0-1.3,0-1,0-2,0-3,0-1.4-.2-3.2-.1-4.6s0-.4,0-.5c.1-.5.9-.9,1.2-.3.7,1.3.4,4.3.5,5.9s.1,1.7.1,2.5,0,.9,0,1.4h.8s-.2-8-.2-8c-.3,0-.4-.5-.4-.8s0-.3,0-.5,0,0,0,0c0-.3-.1-.7-.4-1s-.4-.4-.7-.6,0-.2-.3,0h0c-.2,0-.3.2-.5,0l.4-.3c0,0-.3.1-.4.2s-.3.5-.3.5c0,0,0,.2,0,.2s0,0-.1,0c-.1.3-.1.9-.1,1.3s0,.2-.1.2c-.2-1.1,0-2.9,1.5-2.8s1.2.8,1.4,1.4.2.8.2,1.1-.1.5,0,.7.2,0,.3.2v8c.3,0,1.2,0,1.4,0,.1-.2,0-.5,0-.7,0-.8,0-1.6,0-2.4s0-1,0-1.1,0,0,0,0h.1c0-.1,0-5.3,0-5.3v-2.3c-.7-.4-1.4-.6-2.1-.7s-3.1-.7-3.9-.6-.2,0-.3.1v-.2c-.1.1-.2,0-.2,0-.2,0-.8,0-.9,0s-.4.3-.6.3l.4-.4c-.4,0-.8-.1-1.2,0h0c-.3,0-.7-.1-1-.1s-.2,0-.3,0-.2-.1-.2-.1c-.4-.1-.9.4-1.3.4.2-.2.5-.3.8-.4h-.5c0,0-1.1.5-1.1.5.2-.3.7-.3.9-.6-.2,0-.4,0-.5,0s-.5,0-.6,0ZM32.6,34.4l-1.7-.3-3-.2c-.1.1.3.3.4.3s.2,0,.3,0h-.2c.2.2.3.4.5.4s.3,0,.4,0c.4,0,.8,0,1.1,0,.7,0,1.3.2,2,.1,0,.1,0,.1-.1.1-.2,0-.6,0-.8,0-.8-.2-1.7-.1-2.6-.2,0,.1,0,0,0,.1,0,0,.2.2.3.2.2,0,.5,0,.7,0,.7,0,1.4,0,2.1.2h-.5c-.7,0-1.5,0-2.2,0,0,.1.3.3.4.3s.2,0,.3,0c.6,0,1.2,0,1.8.2,0,0-.2,0-.2,0-.1,0-.3,0-.4,0-.5,0-.9,0-1.4,0,.2.4.6.2,1,.2s.6.2,1,0c0-.2,1-1.4.8-1.6ZM47.2,34.3s0-.1-.1-.1c-.2,0-.2.2-.4.2-.8.5-1.7.9-2.5,1.5s-.1,0-.1.2l2.9-1.7c0,.3-.2.1-.3.2l-2.3,1.4c.4,0,.6-.3.9-.5s0,0,0,0l-.2.2c.3,0,.6-.2.8-.4s.2-.1.4-.2.6-.4.5-.1l-1.5.9h.7c0-.1.4-.4.4-.4l-.3.3,3.2.3c-.7-.6-1.5-1.1-2.3-1.7ZM20.6,34.8s-.2,0-.3.1c-.3.2-.8.6-1,.9-.6.5-1.1,1.1-1.6,1.6.6,0,.8-.7,1.2-1.1s1-.7,1.4-1.1.3-.3.3-.3ZM39.7,39.5c-.3,0-.6,0-1-.2-.2-.6-.4-1.2,0-1.8s.7-.7,1.1-.5.6,1.1.7,1.2c.2,0,.3-.2.5-.3.4-.2.6-.1.5-.6-.2-1.2-1.3-1.8-2.4-1.4s-1.3,1.1-1.2,1.5.2.2.1.4l.4-.4c0,0-.2.3-.3.4s-.3.2-.3.3c-.2.1-.4.1-.5.3v2.4c0,.4,0,.8,0,1.1l.8-.6-.7.7v1.4s.9-.7.9-.7l-.8.8v2.6s0,0,0,0c0-.2.2-.2.3-.3.2-.2.5-.5.8-.8s.4-.3.5-.4,0,0,.2,0c-.6.4-1.1,1-1.7,1.5,0,.4,0,.8,0,1.2h.3c0,0-.2.2-.2.2h.2c0-.1,0,0,0,0,0,0,.1,0,.2,0,.1,0,.9,0,1,0,0,0,.7-.4.8-.5.3-.2.5-.5.9-.7v-.3c0,.2-.3.2-.5.3-.4.3-.9.8-1.4,1,.6-.5,1.3-.9,1.8-1.5v-.2s-.2,0-.2,0l.2-.3v-.4c-.3.3-.6.6-.9.9s-.5.4-.4.2.2-.2.3-.2c.2-.2.9-.9,1-1.1s0-.3,0-.2l-.6.5c0-.3.6-.5.6-.7s0-.3,0-.5h-.3c0,0,.4,0,.2-.3l-.2.2.2-.5h-.2c0,0,.2,0,.2-.3l-1,.7c0-.3,1.2-.8,1-1.1l-1.5,1s.2-.2.2-.2c.3-.2,1.1-.7,1.3-.9s0-.2,0-.3l-1.9,1.5c.5-.6,1.3-1,1.9-1.5v-.3s-.3,0-.3,0l.3-.2v-.5s-3,2.5-3,2.5c.3-.3.6-.5.9-.8s.4-.5.6-.6.6-.4.9-.6.8-.7.6-.9h-.3c.2,0,.4-.3.2-.4.1,0,.1-.3,0-.2s-.3.3-.4.3c.1-.2.4-.3.5-.5s0-.6.1-.9c-.1,0,0-.2-.2-.2s0,.2,0,.2-.5.6-.5.6-.4.3-.5.2l.3-.3ZM31.7,36.1c-.5,0-1-.3-1.5,0,.3.1.5.4.7.6s.2,0,.2.2c0,0,.6-.6.5-.8ZM52.3,38.4c-.3-.4-.9-.6-1.3-.9-.7-.4-1.3-.9-2-1.2-.2,0-.3,0-.5,0s-1.2,0-1.3,0c-.2.4-.1.8-.3,1.2,0,.2.3-.1.3.1h-.3s0,.2,0,.2c.2-.2.6-.1.8,0-.2.2-.6,0-.8.2,1.8,0,3.6,0,5.3.4ZM47,36.3c-.3,0-.6,0-.9,0-1.2,0-1.7.4-2.7.9s-1.4.6-2,.9-.2,0-.2.2c.5-.1,1,0,1.6,0s.7,0,1-.1c.6,0,1.3,0,1.8,0s.5-.4.7-.4c.3,0-.4.3-.4.4.1,0,.4,0,.5,0s.5-.3.4-.4h-.2c0,.1.3,0,.3,0v-.2s-.3.2-.3.2c-.1-.2.2-.2.3-.3s0-.3,0-.4c-.1.2-.2.3-.4.4s-.4.3-.5.1l.7-.4h-.2c.3-.2.5-.2.5-.6ZM39.2,39.3c.1-.3,0-.4-.1-.6,0-.4-.1-.8.2-1.1s.3-.1.4-.2c-1.1-.6-1.5,1.8-.5,1.9ZM64.2,38.6c.1-.2.4-.4.4-.7-.2.2-.4.4-.4.7ZM40.1,38c-.2,0,0,0-.1.1,0,.2,0,.3,0,.5s-.1.2-.1.3h.3c-.2-.4,0-.6,0-.9ZM64.3,38.9c0,0,0-.1,0-.2.1-.2.4-.3.3-.6-.1.1-.5.6-.5.8,0,0,0,0,.1,0-.2.5-.1,1.6-.1,2.3s0,1.4,0,2.1-.1.4,0,.4c0,0,0,.1-.1.2-.1.9,0,2.1,0,3.1s0,.3,0,.4h.3c0-.1-.3.2-.3.2.1,0,.3,0,.4,0s.2-.3.3-.2l-.2.2h.7-.2c.1-.2.2-.3.2-.5l-.5.2c0-.1.3-.2.4-.3.1-.3,0-1.2,0-1.6,0-.8,0-1.5,0-2.3l-.2.2c0-.2.1-.2.2-.4s0-.3,0-.4c0-1.1-.1-2.1-.2-3.2h0c0,0-.5.5-.5.5,0-.3.5-.5.5-.9l-.2.2c0-.2.3-.2,0-.4l-.4.5c0-.2.3-.4.4-.6s0-.2,0-.1c-.1,0-.3.5-.4.5ZM46.3,38.5c-.2-.2-.7,0-1,0h.4c0,0,.5,0,.5,0ZM49.2,38.4c-.5,0-1.1,0-1.6,0s-.5-.2-.5,0h2.4s-.3,0-.3,0ZM43,38.5c.6,0,1.2,0,1.8,0s0,0,0-.1c-.7,0-1.5,0-2.2,0,0,.1.2,0,.3,0ZM46.8,38.6h-6c0,.1,0,.4,0,.4l.4-.3c0,.2-.4.3-.4.4,0,.2,0,.5,0,.7.4-.2.7-.7,1.1-.8-.2.3-.8.6-1,.8s0,1.4,0,1.7,0,.6,0,.8,0,.4,0,.6h.3c-.4.2-.2.5-.2.9s0,.8,0,1.1.1,0,.1,0c-.1.2-.1.7-.1,1s.1.5,0,.8h.1c-.2.1,0,.3-.1.4h11.9c.1-.5,0-.9,0-1.2,0-1.8,0-3.6,0-5.3s0-1.5,0-1.6-.2,0-.2,0h.2c0-.4-.6-.4-.8-.2s0,.2-.3.1l.3-.3c-.2,0-.7-.2-.7.2h.2c-.1,0-.2,0-.2.2h0c0,0-.1,0-.1,0-.2,0-.2.3-.3.3-.2,0,.1-.3,0-.4h-.4c.1,0,.3,0,.4,0v-.2c-.2.2-.8-.2-.7.3h-.3c0,0,.3-.1.3-.2.2-.2-.5,0-.5,0-.1,0-.3,0-.4,0-.7,0-1.4,0-2.1,0v.4c.1,0,0,0,0,0v-.4ZM25.8,39.4c0,0-1.3-.2-1.4-.2-1,0-2.1,1.2-2.5,2.1s-.3,1.5-.4,2.5,0,2.3,0,3.4h.3s0-.1,0-.1c0-1.1,0-2.2,0-3.3s0-.8,0-1.2c.2-2.2,2.4-3.9,4.4-2.3s1,2.9,1.1,4.3,0,1.4,0,2.1,0,.3,0,.5c0,0,.2,0,.2,0,0,0,0-.4,0-.5,0-.6,0-1.2,0-1.8h0c.2-.2,0-.4.1-.6h-.1c0,0,.1-.1.1-.1,0-.7,0-1.4,0-2.1h-.2c0,.1.1.3.1.3h-.2c0,0,.3-.4.3-.4h0s0-.2,0-.2l-.2.2c0-.1.1-.2.1-.2s0-.2,0-.3l-.4.3.3-.4h-.3s.2,0,.2-.2c0-.3-.4-.5-.4-.7h-.2c0-.2-.2-.4-.4-.2v-.3c.1,0-.3.3-.3.3l.2-.3c-.2,0-.2-.1-.3-.2h-.2c0,.1,0-.1,0-.1ZM24.4,40h0c0,0-.2,0-.2,0-.2.2-.6.6-.7.8l-1.1,1h0c.1,0,.3-.3.4-.2-.4.3-.6.5-.6,1-.1,1.3,0,2.8,0,4.1s-.2.4.1.5c0,.1-.2.2-.3.2,0,.1,0,.1.1.2s0,.2,0,.3c0,.3,0,.7,0,1,0,0,1.2-.1,1.3-.2s0,0,0,0c0-.1,0-1,0-1.1s-.1-.1-.2-.2c0,0,0-.2-.3-.2v-.2c0,0,.3,0,.3,0,0,0,0-.7,0-.8,0-1,0-2.1,0-3.1s-.1-.8,0-1.2l-.6.7h0c.2-.4.5-.7.7-1s.2-.4.2-.5,0,0,0,0l-.6.6s0,0,0,0c0-.1.7-.6.8-.8.2-.3.4-.6.8-.8h-.3c.2,0,.1-.3.2-.3h.2ZM33.7,40.7l.6-.8c-.3.2-.5.5-.7.7h0c0,0,0,0,0,0,0,0,0,.2,0,.2l.8-.9c-.1-.1,0,0-.1,0-.3.2-.5.5-.7.7ZM35.1,40.9c0,0-.3-.8-.4-.8l-.9.8c.2.4.2.8.3,1.2v5.2s1.2,0,1.2,0v-1c-.1,0-.2.2-.3.3,0,0-.2-.1-.2-.1,0,0,.2,0,.2,0,.3-.2.2-.7.1-1s0-.3,0-.4-.1,0-.1-.1c0,0,0-.1.1-.3s0-.4-.1-.4c.2-.1,0-.3,0-.4s.2-.4,0-.6l-.3.3c0-.2.3-.3.3-.4,0-.5,0-1.2,0-1.7-.1,0,0,0-.1,0-.2.2-.3.4-.5.6s-.1.1-.1,0c.2-.3.4-.5.6-.7s.2,0,.2-.3c-.1,0-.2.3-.4.3,0,0,.2-.4.4-.4ZM40,46.9c0,0,.6-.2.5-.5l-1.5,1c.1.2.2,0,.3,0,.2,0,.5.1.7,0l.4-.4h-.2c0,0,0-.1,0-.1,0,.2-.4.2-.3,0ZM21.8,49v-1.3s0-.1,0-.2c0,0-.2,0-.2,0-.8,0-1.8,0-2.6,0s-.4,0-.7,0-.4.3-.4.3c-.1.2,0,.9,0,1.1h0c0,0,3.9.1,3.9.1ZM33.4,48.9v-1.2l-.4-.3c-.3,0-.6,0-.9,0s-.4-.2-.7,0v1.4h0c0,0,0,0,0,0v-1h-.3c0,0,.2-.2.2-.2h.1c0,.1,0-.2,0-.2-.3,0-.5,0-.8,0s-.5,0-.7,0c-.7,0-1.4,0-2.1,0,0,0-.3.2-.3.3-.1.2,0,1.2,0,1.3h5.9s.1-.1.1-.1ZM35.7,49v-1.4c0-.2-.2.2-.3,0v-.2c0,0-1.4,0-1.4,0v.3c0,0,.2,0,.2,0-.4,0-.1,1.1-.2,1.2h-.2c.2.2.3,0,.3,0,0,0,1.1.2,1.4.2s.1,0,.2,0ZM37.3,49s0-1.2-.1-1.2c-.2-.2-.9-.4-1.2-.3s0,.1,0,.1c-.1,0,0-.2-.2-.1v1.5c0,0,1.6,0,1.6,0ZM39.9,47.6c-.7.1-1.5,0-2.2,0v.3c0,0,.3,0,.3,0,0,.1-.2,0-.2.1s0,.2,0,.2.4-.3.5-.3l-.6.5h.1c0,.1.3-.1.3-.1.1,0,.8-.6.9-.5s0,.1,0,.1c-.2.1-.4.3-.6.5s-.6.3-.5.5c.6-.4,1.1-.9,1.7-1.1l-1,.7-.4.4c.5,0,.8-.4,1.2-.6,0,.1-.1.3-.3.3h.1c0,0-.3.3-.3.3.2,0,.4,0,.5,0s.3-.1.3,0c.1,0,.4-.1.4-.3,0-.2-.3.2-.4.1,0-.1.4-.2.4-.4s0-.2,0-.3.1-.1,0-.2h-.4c0,.1.2-.2.2-.2ZM52.1,49.2h1.8c0-.1-.4-.4-.3-.1h-.3s0-1.1,0-1.1l-.6-.4c-2.1.2-4.2,0-6.3,0h0c-.6,0-1.3-.2-1.9,0,0-.2-.3,0-.4,0-1,0-1.9,0-2.9,0s-.5,0-.8,0v.3c0,0,.7-.2.7-.2-.3.4-.7.3-.6.9.1.1.9-.9,1.1-.9-.3.3-.6.6-.9.9s-.1,0-.1,0c0,0,0,.2,0,.2.2.2.8-.6,1-.6-.2.3-.6.4-.6.7.1,0,.3,0,.4,0s0,0,.1.1c.2,0,.6,0,.8,0s.7.1.9,0,.1-.3.3-.2c0,0-.4.4-.1.4s.3,0,.4,0v-.3c.2-.1.2.3.5.3,0-.1-.3-.3-.2-.4l.6-.2-.4.4c.6,0,1-.6,1.5-.8,0,0,0,.1,0,.1-.1.1-.9.6-.9.6,0,0,0,.3-.1.4h1.8c0,0,.4-.4.4-.4v.3c0,0,0,.1,0,.1.1,0,.4,0,.5,0,.2,0-.2-.3,0-.3,0,0,.2.5.3.4v-.2c-.1-.2-.3-.3-.3-.7.3,0,.1.4.4.4,0-.1,0-.3-.2-.3h0c.1,0,.2,0,.2-.2h.1s0,.1,0,.1l.2-.3c.2,0,.2.2.4.1v.4s.2.2.2.2c.1,0,.5-.3.6,0s-.5.4-.6.6c.1,0,.2,0,.3,0s.2,0,.4,0c.3,0,.5,0,.8,0s.2.1.4,0h-.2c.1-.8.2-.1.3-.1s.2,0,.2,0c0-.2.2-.3.4-.3v.2c.2-.2.4-.3.3,0h.3c0-.1,0,.1,0,.1ZM67.8,49v-1c0-.4-.8-.2-1.1-.2-2.1-.1-4.2,0-6.2-.1s-3.2-.1-4.8,0-.4,0-.5,0c.2.3.4-.1.7.1.1.1-.3.3-.2.4.2.2.5-.7.8-.5,0,.4-.7.8-.7,1.1s.3-.2.4-.2c.2-.1.3-.1.5,0v.5s.6,0,.6,0v-.5c-.1,0,.3,0,.3,0,0-.2.2-.2.3-.2s0-.2.2-.3l.2.5c0,0,0,0,0-.1s.2,0,.3,0c0,.1,0,.4.2.5s.6,0,.7,0c1,0,2,0,3,0,1.7,0,3.3-.1,4.9-.2s.3,0,.5,0ZM53.5,47.7v1.2h.4c0-.2-.3-.5-.1-.5s.3.3.5.3c0-.1.1-.5,0-.5s-.4.3-.5,0,.1-.2,0-.3h.4c0,.1,0-.2,0-.2-.1,0-.6,0-.7,0Z"/>
  <path d="M20.4,33.6c0-.2.8-.9,1-1.2s0-.2.2-.2h0c.2.1,0,.3,0,.4,0,0,0,0,0,0,0,.3-.2.3-.4.5s0,.2-.1.2c0,0-.3.1-.5.3Z"/>
  <path class="st0" d="M16.5,49.2c.7-.1,1.4,0,2.2,0s1,0,1.6,0c2.1,0,4.1-.2,6.2-.1s.4,0,.6,0,0,.2.4.2c2.8,0,5.5,0,8.3-.1s2.3-.2,3.3-.1.8.2,1,.1.2-.1.4,0c.4,0,.8.1,1.2.2s.8,0,1.2,0h-.1c.4.1.8,0,1.2.1s.7.2,1.1.1.2-.1.4-.2c.6,0,1.7,0,2.3.1s.2,0,.3,0h.5c-.8,0-1.6.1-2.4.1s-1.3,0-1.9,0-1,.1-1.4,0c0,0,0,0,0,.1.5,0,.9,0,1.4,0s.8.1,1.2.1c1.5,0,3.1,0,4.6,0s4.2.1,6.4,0,.6,0,.9,0c0-.1-.4-.2-.5-.2-.4,0-.8,0-1.2.1s-.6,0-.8,0c-1.6,0-3.3.1-5,0h-1.3s0,0,.1,0c.2,0,1.7-.2,2-.2s.3.1.5.1c.6,0,1.2-.1,1.8-.2s1,0,1.4,0,0-.1.2-.1.4.2.5.2c.3,0,.9,0,1.3,0,.7,0,1.4,0,2.1,0,2,0,4.1,0,6.2,0,1.2-.3,2.5,0,3.7-.1s.2,0,.4-.1c.3,0,.8,0,1.1,0v1.7H16.5v-1.7ZM38.2,49.5h-4.1c0,.3,3.3,0,3.7.1h.4ZM30.5,49.6c-.8,0-1.6,0-2.5,0s-1,0-1.4,0-.1,0-.1.1h3.2s.7-.2.7-.2ZM22.3,49.5c-1.6,0-3.2,0-4.8.1s-.3,0-.3.1c.3,0,.7,0,1,0,1.3,0,2.6,0,3.9-.1s.2,0,.2,0ZM25.9,49.6h-2.5s.1,0,.2,0c.5,0,.9,0,1.3,0s.6,0,.9,0,.2,0,0-.1ZM67.6,49.6c-.2,0-.4,0-.6,0-.9,0-1.8,0-2.7,0l-1,.2c1.1,0,2.3,0,3.4,0s.6,0,.8,0,.2,0,.1-.1ZM59.2,49.8c-.1-.2-.5-.1-.7-.1s-.4-.1-.5,0c0,.2.3,0,.4,0,.3,0,.6.1.9,0ZM62,49.7c-.4,0-.7,0-1.1,0s-1,0-1.3,0-.2,0-.2.1c.8,0,1.7,0,2.5,0s0,0,0-.1ZM33.7,49.8c-.7,0-1.4.1-2.1.1-1,0-2,0-3,0l-.9.2c1.3.1,2.7-.1,4,0h1.5c0-.1-.1-.2-.1-.2.1,0,.3,0,.4-.1ZM35.9,49.9c-.4,0-.7,0-1.1,0s-.5-.1-.5,0,.5,0,.6,0c.3,0,.6,0,.8,0s.2,0,.2,0ZM41.6,49.9c-.2,0-.3,0-.4.1-.7,0-1.5,0-2.2,0s-.5,0-.8,0-.1,0-.1.1h1.8c.5,0,1,0,1.5,0s.2,0,.2-.1ZM26.9,50.1c-.3-.3-.7-.1-1,0-.9,0-1.7,0-2.6,0s-.2,0-.2,0h3.8ZM38,50h-1.1,0c0,0,.2.1.2.1h.9s0,0,0-.1Z"/>
  <path class="st0" d="M54.5,19.2c0,0,.1-.2.3-.1,0,.3.2.2.3.2s0,.1.1.2c0,0,0,0,.1.1s.1,0,0,.2h.2c0,.2.3.3.4.5s.5.6.7.9c.3.4.5.7.3,1.2h.2c.4-.6.7-1.1,1.1-1.7s.1-.2.2-.2c0,.3.1.5.2.8.3.7.5,1.4.8,2.1,0,2.1,0,4.3,0,6.4h.2s0-.1,0-.1v-6.5s0,0,0,0h-.1s0-.1,0-.2c-.3-.7-.6-1.5-.8-2.2s-.3-.3,0-.6l-.7.7-.5.8h-.1s0-.4,0-.4c.2,0,.2-.1.3-.2.4-.4.5-.7.8-1.1s.2-.2.3-.2l1,2.6h-.1s0,.1,0,.1c.1,0,.3.2.2.3h.2s-.2,0-.2,0h0c0,.1.1,0,.1,0v.4c0,0,.2-.2.3-.2s.5-1,.5-1c0,.4.3,1,.3,1.4s0,.2-.1.2c0-.3-.1-.7-.2-1s0,0,0,0c0,.4.3,1,.3,1.5.1,1.9,0,4,.1,6s-.1.4,0,.5c-.3,0-.5-.1-.8-.2-.5-.1-1.2-.5-1.8-.5s-.2,0-.6-.2c-.8-.3-1.7-.2-2.6-.2-2-.2-3.9-.3-5.9-.3-3.9,0-7.8.3-11.7.7s-1.1,0-1.6.1-.2.1-.3.1v-2.1c0-.2-.1-.9,0-1.1s.4-.3.4-.3v3.1c.4-.1.2-.7.3-.9l.4-.4c-.2,0-.3.2-.4.3,0-.6,0-1.2,0-1.8s.1-.5,0-.9c0-1,0-2.2-.1-3.2s0-.5.1-.7.6-.3.5-.5l-.5.4c-.1,0,0,0,0-.1,0,0,.2-.1.3-.2s0-.1,0-.2c.2-.3.7-.6.9-.9s.1-.4.3-.4c.3,0-.4.5-.3.7.2,0,.3-.5.5-.5s0,0,0,.1c0,0,.2,0,0,.2.2-.1.3.3.4.3,0,0,.3,0,.4.1l-.2.2h.3c0,0,0,.1,0,.1h.2s-.1.2-.1.2c.2,0,.2.3.4.2,0,0-.3.3-.3.4l.4-.2c0,.2,0,1,0,1.1s-.1,0-.1,0h.2c0,.2,0,.4-.1.5.2,0,.1.3,0,.4h.1c0,.1-.2.4-.2.4h.2c0,.2,0,.5,0,.8,0,.5.2,1.2-.1,1.5h.2c0,.3,0,.7,0,1s.2,1,0,1.4c.2,0,0,.2.2.3.2,0,.4-.2,0-.3,0-1.5,0-3,0-4.6s0-1.1,0-1.7,0-.9,0-1.3h.2c0,0-.2,0-.3,0s-.1-.3-.2-.4-.2,0-.3,0-.2-.3-.3-.4c-.3-.2-.6-.4-.8-.6s-.2-.4-.4-.2v-.3s-1.9,2.7-1.9,2.7h0c0,0,0-.4,0-.4l1.9-2.6c.2,0,.6.5.6.5.6.2.9.9,1.5,1.2s0,.2.1,0v-.2c-.1,0,0,0,0,0v.5c0,0,.4,0,.4,0l-.2.4,2.9-3,2.3,2.1h-.2s-2-1.6-2-1.6c-.1,0-.5.5-.6.6-.4.4-.8,1-1.3,1.4s-.2,0-.3.2c-.2.2,0,.6,0,.8,0,1.4,0,2.8,0,4.2s0,1.4,0,2c0,0,0-.1.1-.2.2-1.2,0-2.6,0-3.8s-.2-1.9-.1-2.4.2-.2,0-.3h0c0-.1,2-2.3,2-2.3.1.3.5.4.7.6l-.3.3c.2,0,.2-.2.4-.2s.4.3.4.3,0,.1,0,.1c0,0,.1,0,.2,0s.7.5.7.6v2.9s0,.3,0,.3h.2c-.2.2,0,.4,0,.5s-.2.1-.1.3h.1c0,0-.2,0-.1.2h.2c0,.2-.2.1-.2.3h.2s0,0,0,.1-.3.1,0,.1v2.4c.2,0,.3,0,.3-.2,0-.7,0-1.4,0-2,0-1.5.1-3,0-4.5s-.1-.6-.3-.8c.2-.1.6.4.7.3s.6-.5.8-.6c.5-.4.9-.9,1.4-1.3s.8-.5,1.1-.8c0,0,.3.4.4.5.4.4.9.9,1.3,1.3s.9.8,1,.8.1,0,0-.1l-2.8-2.5c0,0-.2,0-.2.1-.6.3-1.2.9-1.7,1.3v-.2c-.3.1,0,.2-.1.3l-.2.2v-.2s0,0,0,0c0,0,0,.2,0,.2-.1.3-.4.4-.7.6-.1-.1.4-.6.5-.8l2.6-2.1c0,.1,0,.2.2.2-.2.2-.2.3,0,.1l.4.4h0c.2.2.4.5.5.6.6.5,1.2,1,1.7,1.6v-.2c0,0,.2.4.2.4.1-.1.3-.2.4-.3.6-.5,1.1-1.3,1.7-1.7,0,0-.2.3-.2.3.2-.1.3.1.4.3.1,0,.1-.2.2-.1.1.1.2.5.4.5,0,.2,0,.1.2.2.4.4.8,1.2,1.2,1.5s.1,0,.2,0l-2.2-2.8s-.1,0-.1,0ZM49.9,19.9c-.3-.2-.4-.6-.7-.8-.7.6-1.3,1.2-1.9,1.8s-.4.3-.5.6,0,.9,0,1.3c0,1.7.1,3.4.1,5s0,.5,0,.7c.1,0,.1-.4.1-.5,0-1.7,0-3.4,0-5.1v-1.4c.4-.3,2-2,2.2-2,.2,0,.2.2.3.3.6.7,1.4,1.2,1.9,2,.2,2,0,4,.2,6.1s0,.6,0,.9h.2c0-2.4,0-4.8,0-7.2,0-.1-.2-.2-.2-.3-.4-.5-1.1-.9-1.6-1.3ZM54.4,19.9c-.1-.1,0-.2-.3,0-.2.4-1.4,1.3-1.5,1.7s0,.2,0,.3c0,2-.1,4.4,0,6.3s0,.3,0,.4c.3,0,0-.6,0-.9,0-1.2,0-2.3,0-3.5s-.1-1.8-.1-2.6c.2-.3.5-.6.8-.9s.6-.8.7-.8c.1,0,.2.2.3.3.2.2,1.4,1.7,1.5,1.8,0,.3,0,1,0,1.3,0,1.2,0,2.4,0,3.6s0,1.3,0,1.7.2.2.2,0c0-1.7,0-3.4,0-5.1s0-.9,0-1.4-.7-.8-.9-1.1c-.3-.3-.7-.9-1-1.2ZM38.5,21.4c-.1,0-.1,0-.2,0-.5.3-.8.7-1.1,1.1,0,0,.1,0,.2-.1.2-.2.4-.5.7-.7s.4-.2.5-.4ZM48.1,22.2c0,.2,0,.6,0,.9.1,0,0,0,.1,0,.2-.4,0-.8.5-1.1.8-.4,1.4.6,1.2,1.3h.2c.2-1-.5-2-1.5-1.5s-.5.4-.5.6ZM44.2,22.7s0-.3,0-.4c-.1-.4-.5-.7-.9-.7-.8,0-1.4.9-1.1,1.6s0,.1.1,0c0-.4.2-1.3.8-1.4s.4,0,.5,0c.4,0,.4.8.5,1.1.2,0,.1-.2.1-.4s0,0,0,0ZM55,23.4c.3,0,.1-.7,0-1-.5-1.2-1.7-.3-1.6.7.3.1.1-.2.2-.4s.3-.5.5-.5c.6-.2.9.7.9,1.2ZM49.6,23.1c-.2-.2-.1-.5-.3-.6-.4-.4-.7.1-.8.5-.2,1.3.2,2.8,0,4s-.2.2,0,.4c.5.1,1.1.1,1.6.1,0-.3,0-.4-.3-.5.1-.5,0-1.1,0-1.6,0-.8,0-1.6-.1-2.4h0ZM38.5,23.3s.1-.2,0-.5c-.1-.5-.6-.6-.9-.2s0,.8-.2,1.2v3.6c0,0-.1.2-.1.2.2-.1.3,0,.4,0,.3,0,.6-.3.9-.2h0c-.1-.8,0-1.5,0-2.3s0-1.2,0-1.7-.1-.2-.2-.2ZM43.5,27.1c.4,0,.3-.4.3-.6,0-1,0-2.2,0-3.3s-.8-1.1-1.1,0v4.1s-.4,0-.4,0c0,.1-.2.5,0,.6h1.7c0,0,0-.5,0-.5,0-.1-.4,0-.5-.1ZM54.5,27.4c0-.5,0-1.1,0-1.7s0-1,0-1.4.1-2-.6-1.5-.2.6-.2.8c0,1.1.1,2.2,0,3.3s-.2.6,0,.7c.2.2,1.1.2,1.5.2v-.4c0-.1-.1,0-.2,0,0-.7,0-1.4,0-2.1s.1-1.2,0-1.8,0-.2-.2-.3v4.2s0,.1,0,.1h.2s0,.2,0,.2h-1.3c0-.1,0-.3,0-.3h.8ZM58.8,28.6c0-.2.2-.5,0-.6s-.2,0-.2-.1c0-1.1,0-2.2,0-3.3s.2-.5.3-.7c.2-.8-1-1.7-1.2-.4s0,2.3,0,3.4,0,.7,0,.9-.3.4-.1.6,1.1.2,1.3.3ZM60.4,24.3h-.2c0,.4,0,.9,0,1.3,0,.9,0,1.7.1,2.6s-.2.8,0,1.1c0,0,.1-.7.1-.8,0-1.2-.3-2.8-.1-4s0-.1.1-.2ZM38.8,27.6c-.2,0-.4,0-.6,0s-.3,0-.3.1c.2,0,.5,0,.8,0s.2,0,.2-.1ZM39.7,28.5l-.4.4-.3.4.3-.3.3-.5ZM36.7,29.6c0,0,.2-.2.3-.2s.4-.4.3-.5c-.3.2-.4.4-.6.7Z"/>
  <path class="st0" d="M55,33.8c0,0,.4,0,.6,0s.4,0,.5,0c-.3.2-.7.3-.9.6l1.1-.5h.5c-.3.1-.6.2-.8.4.4,0,.9-.5,1.3-.4s.1.1.2.1.2,0,.3,0c.3,0,.7,0,1,0h0c.4,0,.8.1,1.2.1l-.4.4c.2,0,.4-.3.6-.3s.7,0,.9,0,0,.2.3,0v.2s0,0,.2-.1c.8-.1,3.1.4,3.9.6s1.4.3,2,.7v2.3c0,0,.1,5.2.1,5.2h-.1c0,.1,0,.1,0,.1,0,0,0,.9,0,1.1,0,.8,0,1.6,0,2.4s.1.5,0,.7c-.1.1-1.1,0-1.3,0v-8c0-.1-.3-.1-.3-.2,0-.2,0-.5,0-.7,0-.3,0-.8-.2-1.1-.2-.6-.6-1.4-1.4-1.4-1.4,0-1.6,1.7-1.5,2.8,0,0,0-.2.1-.2,0-.3,0-.9.1-1.3s.1,0,.1,0c0,0,0-.1,0-.2s.3-.5.3-.5c0,0,.3-.3.4-.2l-.4.3c.2,0,.3-.2.5-.2h0c.2,0,.2.1.3.2.3.2.5.3.7.6s.3.6.4,1,0,0,0,0c0,.2,0,.3,0,.5,0,.2.1.7.4.8l.2,8h-.8c0-.5,0-.9,0-1.4,0-.8-.1-1.7-.1-2.5,0-1.5.2-4.6-.5-5.9s-1.1-.2-1.2.3,0,.4,0,.5c-.1,1.4,0,3.1.1,4.6s0,2,0,3,.1,1.2,0,1.3h-8.2c.1-.2.2-1.5,0-1.5-.4,0-.4.8-.5.9s-.3-.1-.5.1v-.2c0,0-.2.2-.2.4h-.3c0,0,.1.3.1.3-.4,0-.8,0-1.1-.2v-2.2c0-1.5,0-3,0-4.5s0-1.4,0-1.6c.2-.3.9-.3,0-.8s-1.2-.7-1.8-1.1-1-.6-1-.6c.1,0,.2,0,.3-.2l-1.7-1.3c-.2-.3-.3-.2-.5-.3-.4-.2-.9-.6-1.2-1h4.4s.6,0,.6,0c.4,0,2.7,0,2.9,0ZM52.2,33.8h-.7c0,0,0,.3,0,.3,0,0,.3-.1.4-.1.1,0,.5,0,.5-.1ZM51.1,33.9c-.2,0-.5,0-.7,0s-.1,0-.1.1c.2,0,.4,0,.6,0s.2,0,.2,0ZM53.1,33.9c-.3,0-.6,0-.9.1s-1,.4-1.3.6-.1,0-.1.1c.2,0,.5-.2.7-.3s.1,0,.2-.1.4-.3.5-.3.4,0,.6,0,.3-.1.3-.2ZM54.9,33.9s-.4.1-.4.2-.3.1-.3.2c.2,0,.4-.1.6-.2s.2,0,.1-.1ZM51.1,34.2h-.2s-1,.7-1,.7c.4-.1.9-.4,1.2-.7ZM61.2,46.9v-6.5c0-1.9-.2-4.9-2.6-5.1s-2.6,1.9-2.3,3.3c0,0,.1-.2.2-.3,0-.4,0-.8.1-1.2.2-.8.9-1.4,1.7-1.6l-.2.3c.2,0,.2-.3.5-.3s.4.2.4.2c0,0,.1,0,.1,0,.4.1.7.6,1,.8h0c.2,0,.5.7.5.9,0,.3.1.6.2.9.1,1.3,0,2.9,0,4.2s0,2.8,0,4.2h0c0,.1.1,0,.1,0l.2.2ZM58.3,37c-.7,0-1,.9-.9,1.5s.4.8.5.9c.6.6,1.4,0,1.5-.8s-.3-1.7-1.1-1.6ZM67.3,37.2c-.2-.1-.2.4-.3.6,0,.2,0,.5,0,.7,0,2.9.3,5.8.1,8.7s0,.1,0,.2c.1,0,0-.7,0-.8s.2,0,.1-.2h-.1c0-.3.2-.6.1-.9h-.1c0-.1,0-.2,0-.4s0-.1,0,0h.1c0-.3-.1-.8-.1-1.2s0-.2.1-.3h-.2c0,0,.2-.9.2-.9h-.2c0,0,0-.1,0-.2s0-.1,0-.1c0-1.2.2-3.3,0-4.4s-.1,0-.1,0c0-.1.1,0,.2,0,0,.2.1.4.2.6s0,.2,0,.3c0,.2,0,.4,0,.7,0,0,0,0,.1,0,0-.4,0-.9,0-1.3s-.2-.6-.2-.7ZM58.7,39.6h-.3c0,.2,0,.4,0,.5h.2c0,0,0-.5,0-.5ZM59.8,42.3h-2.5c-.2.4,0,.9,0,1.3,0,.6,0,1.5,0,2.1s0,.1,0,.2h2.6c0-.1,0-.2-.1-.3,0-.7,0-1.6,0-2.3s0-.6,0-.9Z"/>
  <path class="st0" d="M24.6,22.5l2.2,2.2h-.2c.2.1.3.1.4.3s0,.1,0,.1c0,0,.2,0,.2,0,.1,0,0,1.2,0,1.4.1,2.1,0,4.2,0,6.3s0,.5,0,.6-.3.4-.3.7h.4c0,0-.2.3-.2.3,0,0,.4-.3.5,0s-.3.2-.3.4l.4-.3c.1.2.4.4.6.5s.2.3.3.4.3,0,.3.2-.3.3-.3.3l.4-.3c0,.1.1.1.2.2.1.1.3.3.4.4l-1.1,1.1c0,0,.1,0,.2-.1.3-.3.7-.7.9-1,.1.2.4.3.3.5h.2c0,.1.2.2.3.3s0,.2,0,.2c0,0,.2,0,.2,0v.2c-.1,0,0-.2,0-.2,0,0,.1,0,.1.1,0,.2,0,.3,0,.5s0,.2,0,.3c0,.3,0,.7,0,1v-.2c.1,0,.1,0,.1.1,0,.1-.1.2-.1.4,0,.7.1,1.5.1,2.3,0,1.6-.2,3.2,0,4.7s0,.3,0,.5h0c0,0-3.3,0-3.3,0h.1c-.2-1.9.5-5.2-.5-6.7s-2.9-2.1-4.5-1.1-1,.9-1.3,1.6-.3,1.8-.4,2.7,0,2.3,0,3.5c-.2-.1-.4,0-.5,0s-.3,0-.4,0c-.3,0-2.3,0-2.3,0,0-1.9,0-3.9,0-5.8s0-.9,0-1.4,0-1.3,0-1.9c.5-.9,1.3-1.4,2-2s.9-.9,1.3-1.3.9-.4.6-.8h.2s0-8.7,0-8.7c.3,0,.4-.3.5-.4.6-.7,1.3-1.3,1.9-2h-.2c0,0,.3-.2.3-.2ZM26.5,24.9v-.2c-.4.2-.9.1-1.3.2s-.2,0-.2,0c.1,0,.4,0,.4,0h1.1ZM26.9,25.1h-1s-.4.1-.4.1h.8s.6-.1.6-.1ZM23.7,28.3h.8c0,0,.7,0,.8-.1s.2-.1.2-.2c-.6,0-1.1,0-1.7.1l.4-.5h.1c0-.2-.2,0-.3,0s-.4.5-.5.5c0,0,0,.1,0,.2ZM25.3,32.7h.2c.4-.9-.7-2-1.5-1s-.3.7-.3.9,0,.1.1,0c0-.2.1-.7.3-.8s.2,0,.2,0,0-.2.2-.2v.3c0,0,0-.1.1-.2,0-.1,0-.2.2-.2l-.2.3.3-.2-.2.4.3-.3c0,.2,0,.3,0,.5l.2-.2v.3c-.1,0,0,0,0,0,0,.2,0,.2,0,.4ZM25.2,35.4c0-1,0-2.1,0-3.2-.2-.3-.5-.3-.7,0-.3.4-.2,1.6-.2,2.2s-.1.7,0,1.1h1ZM28.6,36.8c.2-.2.4-.4.5-.5s.1,0,.1-.2c-.1,0-.2.2-.3.3s-.2.3-.3.4ZM19,37.5c-.3,0-.6.5-.8.7,0,0,.1,0,.2-.1.2-.2.4-.4.6-.6ZM19.1,37.8c0,0-.7.6-.7.7l.4-.4.2-.3Z"/>
  <path class="st0" d="M46.8,38.6v.4s.2,0,.2,0v-.4c.6,0,1.3,0,1.9,0s.3,0,.4,0,.7,0,.5,0-.3,0-.3.2h.3c0-.5.5-.1.7-.3v.2c-.2,0-.3,0-.4.1h.4c0,0-.2.3,0,.3s.1-.3.3-.3h.1s0,0,0,0c0-.1,0-.1.2-.1h-.2c0-.4.5-.2.7-.2l-.3.3c.2,0,.2,0,.3-.1.2-.2.9-.2.8.2h-.2c0,0,.2,0,.2.1,0,.1,0,1.3,0,1.6,0,1.8,0,3.6,0,5.3s.1.7,0,1.1h-11.9s0-.2.1-.3h-.1c0-.3,0-.6,0-.8s0-.8.1-1c0,0,0,0-.1,0,0-.3,0-.8,0-1.1s-.2-.7.2-1h-.3c0-.1,0-.3,0-.5s0-.6,0-.8-.2-1.5,0-1.7.8-.5,1-.8c-.4.2-.7.6-1.1.8,0-.2-.1-.5,0-.7s.4-.2.4-.4l-.4.3v-.3c0,0,6.1-.1,6.1-.1ZM45.6,38.7c-.4.2-1-.1-1.1.4.3-.3.7-.1,1-.2s.1,0,.1-.1ZM46.7,43.2v-3.7c0,0,0-.1,0-.1,0,0,0,.2,0,.3,0,.1-.2.2-.2.3h.3c0,0,0,.9,0,.9,0,.6,0,1.4,0,2s0,.2,0,.3h.2ZM41.8,40c-.2,0-.4.3-.5.4s-.2.3-.3.4l.8-.8ZM43,40.4c-.3,0-.5.4-.8.4,0,.1,0,0,.2,0,.2,0,.5-.3.6-.5ZM45.6,40.5s-.3.2-.3.2c-.1.1-.3.3-.5.4s-.1,0-.1.2c.3-.2.6-.4.8-.6s.2,0,0-.1ZM45.7,40.9s-.3.2-.4.3-.3.3-.3.3l.6-.4v-.2ZM42,41.1c-.2,0-.4.3-.6.4s-.2.2-.3.3c.1,0,.2-.1.3-.2.2-.1.4-.3.5-.5ZM45.2,43c.6-1.7-2.4-2.1-2.5-.4.2,0,.2-.3.4-.5.3-.4.9-.5,1.4-.3s.5.5.7.8v.4ZM52.1,45c0-.8,0-1.7,0-2.5s-.2-.7-.5-.7-.4.6-.4.8c0,.5,0,1.9,0,2.4s1.1.4,1.1.2,0-.3,0-.3h-.1ZM43.2,45c.4,0,.8,0,1.2,0s.2,0,.2,0c.1,0,0-.2,0-.3,0-.6,0-1.4,0-1.9s-.8-.8-1.1-.4-.3,1-.3,1.5,0,.7,0,1.1ZM42.5,42.3c0,0-.2,0-.3.1-.3.2-.7.5-1,.7s-.2.2-.2.3l1.4-1.1ZM46.2,42.5l-.6.4-.2.2s.4-.3.5-.3c.1,0,.2-.2.3-.3ZM42.9,42.9c-.2,0,0,0-.1.1-.1.4-.1,1.7-.1,2.2s0,.2,0,.3c.8-.2,1.7,0,2.5-.1v.3c0,0,.3-.3.3-.3h-.2s-.1-2.2-.1-2.2c-.2,0-.2.2-.2.3h.1c0-.1,0,.3,0,.3h-.1s0-.2,0-.2v1.5c0,0,.2-.1.2-.1v.3s-2.3,0-2.3,0v-2.4ZM46.7,47.2v-3.9c-.2.1-.1.3-.1.5,0,.6,0,1.3,0,2s0,.9,0,1.3,0,.2,0,.1ZM46.2,43.5h-.2c0,.1-.5.6-.5.6l.5-.4.2-.2ZM41.8,44.5c-.2,0-.4.2-.6.3s-.1,0-.1.2l.7-.5ZM42.3,44.5c-.3,0-.6.3-.8.5s-.3.2-.2.3l1-.7ZM43.1,45.8c-.6.3-1.2.8-1.7,1.2l1.7-1.2ZM46.4,45.8c-.3,0-.6.4-.9.6s-.1,0-.1.2l1-.7ZM43.8,45.9c-.4.2-.8.4-1.1.7l1-.6h.1ZM44,46l-1.3.9-.5.4c.3-.1.6-.4.9-.6s.7-.3,1-.6h-.2s0,0,0,0ZM43.9,46.7h0c-.3.1-.7.3-.9.6.4,0,.6-.4.9-.6Z"/>
  <path class="st0" d="M54.8,13.1c.1.1.3,0,.3.4,0,.5,0,1,0,1.5s0,1.1.1,1.6c0,.8,0,1.5,0,2.3,0,0-.5-.4-.6-.4-.2-.2,0-.3,0-.6,0-.6,0-1.5,0-2.1s-.2-.4.2-.7v2.9c0,.2.3.4,0,.4l.2.2c-.1-.5,0-1.1,0-1.7s0-.3,0-.4c0-.5.1-1.6-.3-1.9s-.4.3-.4.5c0,.9.1,1.9,0,2.9v.3c0,.1-.7.3-.8.3v-1.7c0-.6,0-1.2,0-1.8s0-.8-.5-.8-.3.2-.3.4c-.1,1,.2,2.3,0,3.2s-.2.3-.2.4c0,.3.4,0,.5.1l-.4-.2c0-.2.3-.1.4-.3,0-.1,0-.2,0-.3,0-.5,0-2.1,0-2.5s0-.1.1-.2c.2,1.1.2,2.3.2,3.4h-.2c0,0,.2.2.2.2,0,0-.5.2-.7.2-.2,0-.4.2-.6.3s-.4,0-.5.2,0,.3,0,.3c0,0-.1,0-.2-.1-.4-.3-1-1.1-1.4-1.5s-.4-.3-.6-.3v-3.6c0-.6-1.1-.8-1.2,0s0,1.8,0,2.5,0,.5,0,.8h.3c0,0-.2,0-.2,0,.1-.1,1,.3.9.4-.5.1-.9.6-1.3.9s-.9,0-1.4.1-.2,0-.3.1c-.6,0-1.3,0-2,0l-1.2-1.1c-.6.3-1.1.8-1.6,1.2s-.4.4-.6.6c-.3.3-.7.5-1,.9l-1.6-1.4c.3,0,.7,0,1,.1s.9.3,1.1,0,0,0,0,0c-.1,0-1.3-.3-1.3-.4.2-.2.5-.2.6-.5-.1,0-.2.2-.3.2-.2,0-.2-.3-.2-.3s.2,0,.2-.2l-.3.3c0-.3,0-.6,0-.9s0-.3.1-.4c0-.2-.2-.6,0-.8h-.1c0-.2,0-.4,0-.6s.3-.4.4-.5c-.2,0-.2.3-.4.3,0-.3-.2-.5-.1-.8-.4.2-.4.5-.4.9h.2c0,.2,0,.3-.2.4h.2c0,.3,0,.8,0,1.2s0,.2,0,.3,0,.3,0,.4-.1,0-.1.1c0,0,.2-.1.2,0s0,.4,0,.7c0,0-.2.2-.3,0,0-.2,0-.5,0-.7,0-1.3-.1-2.6-.1-3.9s0-.6,0-.7c.7-.8,1.9-1.3,2.9-1.5s2.1-.2,3.1-.5h0s.4,0,.5,0c.6,0,1.3,0,1.9,0,2.4,0,5.8,0,7.7,1.6ZM45.6,11.5c-.3,0-.5,0-.8.2s-.1,0-.1.1c.3-.2.7,0,.9-.3ZM47.2,11.6c-.2,0-.8,0-1,0s-.2,0-.3.1c.4,0,.9,0,1.3,0,0,0,0,0,0-.1ZM42.8,12c-.3,0-.5.4-.8.6l-1.8,1.9c0,0,.1,0,.2,0,.3-.3.5-.7.8-1s.5-.5.7-.7.6-.5.8-.8ZM42.3,12.1c-.2,0-.3.1-.4.2-.3.3-.8.8-1.1,1.1s-.5.5-.5.7l2-2ZM48,12.2h-1.8s-.8.2-.8.2c.6,0,1.2,0,1.7,0s.4,0,.6,0,.2,0,.2-.1ZM41.4,12.3h-.2c-.3.5-.8.8-1,1.2,0-.1,1.2-1.2,1.1-1.2ZM40.9,12.4c-.3,0-.3.3-.4.5-.3.3-.6.7-.9,1s-.3.3-.3.4l.3-.3c.4-.5.9-1,1.2-1.5s0-.1,0-.2ZM43.4,12.4h-.7c-.4.5-.7.9-1.1,1.3s-.2,0-.2.1c-.3.5-.1,1.9-.1,2.5s0,1.2,0,1.8c.3,0,.7-.2.8-.5v-3.3c0-.2-.3-.5-.5-.6h0c.3-.3.7-1,1.1-1.1s.4,0,.6-.1.1,0,.1-.1ZM48,12.6c0,0-.1,0-.2-.1-.5,0-1.3.1-1.8.1h-.4c0,0,2.4,0,2.4,0ZM39.7,13.5c.3-.2.5-.5.6-.8l-.6.8ZM42.1,13.8s0,0,0-.1c.2-.2.4-.3.5-.6l-.6.6c0,0,0,.1.1,0ZM38.7,14.1l.2-.2.5-.7c0,0-.7.7-.8.8ZM44.5,17.5c-.2-.3-.1-.6-.1-.9,0-.7,0-1.5,0-2.2s-.1-1.1-.6-1c-.3.2-.5.5-.6.8s0,.4,0,.7c0,.8,0,1.6,0,2.4h.2s-.1.2-.1.2c0,0,.2,0,.2,0s0-.8.1-.9c0-.7,0-1.4,0-2.1l.3-.3c0,.2-.3.4-.1.6h.1c0,0,0,.2,0,.4,0,.4,0,1.3-.1,1.6h.1c0,0-.1.3-.1.3.2,0,.1.1.1.3h-.2c0,0,0,.2,0,.2h.2c0,0-.2,0-.2,0,0,.1.2,0,.2.2s-.2,0-.2.2c.3,0,.5-.3.9-.3ZM46.8,17.5c0-.4,0-.7,0-1.1,0-.7.1-1.7,0-2.4s-1.1-.5-1.1.2,0,.3,0,.5c0,.8,0,2,0,2.8s-.2,0-.1.2c.2,0,.4-.1.5-.1s.2,0,.3,0,.2-.1.4,0ZM51.8,17.8v-.3c-.1,0-.2-3.5-.2-3.5-.2-.5-.8-.6-.8,0h-.2c0,0,0,3.6,0,3.6h.4c0,0-.2-.2-.2-.2v-2.5s.2-.3.2-.3c0,.1,0,.3,0,.4,0,.4,0,.9.1,1.4s0,1.3,0,1.3.2,0,.3,0c.2,0,.2.2.3.2ZM38.8,14.4c.1-.1.3-.3.4-.4s.3-.3.3-.4c-.3.2-.6.5-.7.8ZM39.3,14.9l.6-.9c-.2.2-.5.4-.6.7s-.1.2,0,.2ZM40.3,15.6c-.1-.2.2-1.6-.5-1.2l-.2.6v3.3c0,0,.1.1.1.1.1,0,.3,0,.3.1h.1s0-.1,0-.1h.2c-.2-.7,0-1.4,0-2s0-.5,0-.7.1-.1,0-.1,0,0,0,0Z"/>
  <path class="st0" d="M34.2,23.8c0,.2.1.5.2.7.4,1.2.9,1.9,1,3.2.1,2.2,0,4.5,0,6.7l-.2.3h.3c0,0,.2.5.3.6s.1,0,.2,0v.2c0,0,0,0,0,0,0,.3,0,.6.4.8h-.2c0,.2.2.1.2.1.1,0,.5.8.6.9s.3.1.2.4h-.4s0,0,0,0c-.5-.9-1-1.8-1.6-2.6s-.1-.1-.1,0c.4,1.3,1.3,2.3,1.9,3.5,0,1,0,2.1,0,3.1,0,1.7.2,3.8,0,5.5s0,.4-.1.4h-1.5c.1-.3,0-.6,0-.8,0-1.6,0-3.1,0-4.7s-.1-1-.3-1.3c-.3-.8-.8-1.3-1.6-.5s-.5,1-.5,1.5c-.2,1.5,0,3.4,0,4.9s-.1.6,0,.9h-1.8c0-.1,0-.2,0-.3.1-2.5,0-5.2,0-7.7s0-1.5,0-1.9.1-.1.2-.2c.4-.8.8-1.6,1.3-2.4s.3-.3.3-.5-.2-.1-.2-.2,0-.2,0-.3c0-2.9,0-5.8,0-8.7s.1-.2.3-.3.4-.6.5-.7.3-.6.4-.5ZM34.1,27c0,.2,0,.6,0,.8l.2-.3c0,.5,0,1-.1,1.5h.1c0,0,0,.9,0,.9h-.2c.2.1.2.3.3,0-.1-.9,0-1.9,0-2.7s-.5-1.1-.5-.3,0,2,0,3c0,0,0-.1.1-.2.1-.9-.2-2,0-2.9,0,0,0,0,.1,0ZM34.3,33.3v2.2s0,0,.1,0c0-.7.1-1.6,0-2.3s-.4-.3-.4,0c-.1.4,0,1,0,1.5s0,.2,0,.3,0,.5,0,.5.5.3.5.3c0-.3-.4-.2-.4-.5s0-.2.1-.3c0-.5,0-1,0-1.5s0-.2.1-.2Z"/>
  <path class="st0" d="M30.1,22.8s0,0,.1,0c0,0,.8.9.9,1.1.5.6,1.1,1.1,1.6,1.7v4.6c0,.7,0,1.5,0,2.2s0,.8,0,1.1-.2.1,0,.2c-.1.2-.1.3-.1.5-1.7-.3-3.5-.4-5.2-.5,0-2.7.1-5.3,0-8s0-.3,0-.5c.8-.9,1.6-1.8,2.5-2.7.2,0,.2.1.1.3ZM30.9,26.4c0-.5,0-.9-.4-1.3-.6-.5-1,.5-.9,1h.2c0-.2,0-.5,0-.7s.3,0,.5-.1v.2c0,0,.1,0,.1,0,.2.4,0,.9,0,1.3,0,.9.1,1.8,0,2.7h-.3c0-1,0-1.9,0-2.9s.2-.7-.1-.8c-.3,0-.2.9-.2,1.1,0,.7,0,1.4,0,2.1s0,.3,0,.5c.2,0,.8.3.9,0v-3.3s.2.2.2.2Z"/>
  <path class="st0" d="M40.4,11.1c.3-.2.7-.5,1-.7h0c.2,0,.2-.2.3-.3s.6-.2.5-.4c-.6.3-1,.7-1.5,1.1s-.1.1-.2,0c.4-.4.8-.7,1.2-1.1s.5-.5.8-.7.3-.1.4-.2c.2-.2-.4.2-.3,0,.2-.2.4-.4.7-.6s.5-.3.7-.5c.3-.2.5-.6.8-.8s.6-.2.5-.4h.5c0,0,0,0,0,0h.7c0-.2,0-.2,0-.2-.3,0-.6,0-.9,0s-.1.1,0,0c.1-.1.2-.2.4-.3s.2,0,.2,0h-.2c.2-.2.6-.6.9-.6l7.4,6.1c-.2,0-.6,0-.6-.3-.1,0-.3,0-.4,0s-.2,0-.4-.1c-.3,0-.6-.2-.9-.2v-.2c-.2,0-.4,0-.6,0s-.2,0-.3-.1c-2.1-.3-4.6-.4-6.7-.2s-1.2.3-1.8.3-.6,0-.7-.1c0,0-.1.1-.2.2-.2,0-1,.3-1.3.3s0,0,0,0c0,0,0,0,.1-.1-.1,0-.2.2-.3.3s-.4.2-.6.2c.2-.2.6-.6.9-.6s0,0,0,0c0,0,0,0,0,0ZM46.3,6.9c-.3,0-.6,0-.9.1s-.2,0-.1.1c.3-.1.6,0,1-.1s0,0,0-.1ZM46.6,7.2c-.5,0-1.1,0-1.6.1s-.2,0-.2.1l1.8-.2ZM44.5,7.6c-.3,0-.5.3-.7.5l.7-.5ZM46.3,8.1c0,0,0-.1-.2-.1-.2,0-.6,0-.9.1s-.2,0-.2,0h1.2ZM43.9,8.2c-.1,0-.5,0-.6.1.1,0,.2.1.2.1,0,0,.1,0,.2-.1s.3.1.3,0c-.1,0-.2,0-.2,0ZM46.1,8.3c-.4,0-.9,0-1.3.1s-.6,0-.7.3l-.8.4c.2,0,.4,0,.5-.2.2,0,0,.1.1.1,0,0,0-.1,0-.2.6-.5,1.3-.4,2-.5s.2,0,.2-.1ZM43.6,8.6c-.4-.2-.4.2-.7.3h.1c-.1,0-.7.5-.6.5h.3c0-.1.9-.8.9-.8ZM46.1,8.7h-.9s-.2,0-.3,0h0c0,0,1.1,0,1.1,0ZM44.7,8.8c-.2,0-.4,0-.6,0s-.1,0-.1.1c.2,0,.4,0,.6,0s.1,0,.1-.1ZM46.5,9h-.8c0,0-.3.1-.4,0h.1c0,.1,1,0,1,0ZM45.2,9.2c0,0-.2,0-.3,0s0,0,0,.1c-.2,0-.5,0-.7.1s-.2,0-.1.1c.3,0,.7,0,1.1-.2s0,0,0-.1ZM46.3,9.4c-.4,0-.8.1-1.2,0h-.4c0,.1.2.1.2.1l1.4-.2ZM46.3,9.8c0-.1-.3-.1-.4-.1-.5,0-1,.2-1.5.2,0,0,.1,0,.2,0,.6,0,1.1-.2,1.7-.2ZM42.5,9.9c-.2,0-.5.2-.6.3-.3.2-.5.4-.9.6s-.2,0-.2.2c.2-.2.7-.3.9-.4s0-.1.1-.2c.2-.2.5-.2.7-.4ZM48,9.9h-1.3s-.5.1-.5.1c.5,0,1,0,1.6,0s.3,0,.3,0ZM45,10.1c-.3,0-.7,0-1,.1s-.2,0-.2,0c.4,0,.7,0,1.1-.1s.2,0,.1-.1Z"/>
  <path class="st0" d="M27.8,6.3l4.8,7.2c-.1,0-.2,0-.3,0-.6-.1-1.3-.4-2-.5-1.8-.3-5-.2-6.8.2s-.5.2-.7.2c.6-.8,1.1-1.7,1.7-2.5s.1-.1.2-.2c.4-.5.7-1.1,1.1-1.5h-.1c.3-.2.3-.5.6-.7h.9c0,0,0-.2,0-.2-.1,0-.4-.1-.5,0h.2c-.2,0-.3.1-.5.1s-.1,0-.1,0c.2,0,.5-.7.6-.8s.5,0,.7,0h-.5c0,0-.2,0-.1-.1s.4-.2.6-.2h-.4c.2-.3.3-.5.4-.7s0-.3.2-.2ZM26.9,8.6s-.6,0-.7.1h1.1c0,0-.4,0-.5-.1ZM27,9.2c0-.2-.4-.1-.5-.1s-.5,0-.6.2h1.1ZM26.8,9.6c-.3,0-.5,0-.8,0s-.6,0-.5.2c.5,0,1,0,1.6-.2,0-.1-.2,0-.2,0ZM27.2,10h-1.3s-.7.2-.7.2c.5,0,1.1-.1,1.6,0h.4ZM26.6,10.9c-.6,0-1.1,0-1.7.1s-.2,0-.2.1c.3,0,.5,0,.7-.1.3,0,.8,0,1.1,0s.2,0,0-.1ZM25.7,11.3c-.4,0-.9,0-1.3.2h.2c.3,0,.7,0,1,0s.2,0,.1,0ZM26.3,11.6c-.6,0-1.3,0-1.9.2s-.2,0-.2,0c.3,0,.7-.1,1-.2s.6,0,.9,0,.2,0,.2,0ZM25.6,12l-1.4.2h-.4c.4.1.9,0,1.3,0l.5-.2ZM25.8,12.4c-.3,0-.6,0-.9,0s-.7.1-.8.2-.2,0-.3.1,0,0,0,0c.2,0,.3-.1.4-.1.7-.1,1.4-.1,2-.2,0-.2-.3,0-.3,0Z"/>
  <path class="st0" d="M39.7,39.5l-.3.3c0,0,.4-.2.5-.2s.5-.6.5-.6-.1-.2,0-.2,0,.2.2.2c-.1.3,0,.6-.1.9s-.4.3-.5.5c.2,0,.3-.2.4-.3.2-.1.2.2,0,.2.3.1,0,.4-.2.6h.3c.2,0-.5.7-.6.8-.2.2-.6.4-.9.6s-.4.5-.6.6c-.3.3-.6.5-.9.8l3-2.5v.5s-.3.2-.3.2h.3c0,0,0,.3,0,.3-.6.5-1.3.9-1.9,1.5l1.9-1.5c0,.1,0,.2,0,.3-.1.2-1,.7-1.3.9s-.2.2-.2.2l1.5-1c.2.3-.9.9-1,1.1l1-.7c0,.2-.1.2-.2.4h.2c0-.1-.2.4-.2.4l.2-.2c.1.2-.2.3-.2.4h.3c-.1,0,0,.2,0,.4,0,.2-.6.4-.6.7l.6-.5c.1,0,0,.1,0,.2,0,.2-.8.9-1,1.1s-.3.2-.3.2c0,.2.4-.2.4-.2.3-.3.6-.6.9-.9v.4s-.2.3-.2.3h.3c0,0,0,.1,0,.1-.6.5-1.2,1-1.8,1.5.5-.2,1-.7,1.4-1s.4-.2.4-.3v.3c-.3.2-.5.4-.8.7s-.7.5-.8.5-.9,0-1,0-.1,0-.2,0h0c0-.1-.2,0-.2,0l.2-.2h-.3c0-.3,0-.8,0-1.2.6-.5,1.1-1,1.7-1.5,0,0,0,0-.2,0s-.3.3-.5.4c-.3.2-.5.5-.8.8s-.3.1-.3.3h0c0,0,0-2.7,0-2.7l.8-.8-.8.7v-1.4s.7-.7.7-.7l-.8.6c0-.4,0-.7,0-1.1v-2.4c.1-.2.4-.2.5-.3s.3-.2.3-.3c0,0,.3-.3.3-.4l-.4.4c0-.1-.1-.3-.1-.4-.1-.4.9-1.4,1.2-1.5,1.1-.4,2.3.2,2.4,1.4s-.2.4-.5.6-.3.2-.5.3c-.1,0-.2-1-.7-1.2s-.9.2-1.1.5c-.3.6-.1,1.2,0,1.8.3.1.6.2,1,.2ZM40.1,35.9c-.5.1-.9.5-1.3.8l.5-.2.8-.6ZM40.6,37.7c0,0,.6-.4.4-.6-.1,0-.1.3-.2.3s-.3.1-.2.3ZM37.7,38.5s0-.1,0-.2c0,0,.5-.3.4-.4l-.7.6c0,.1.2,0,.2,0ZM38.3,40c-.1,0-.3.2-.4.2s-.5.5-.5.5c0,0,.1,0,.2-.1.2-.2.5-.4.6-.6ZM39.5,42.5h-.2c-.6.6-1.3,1-1.8,1.6l2-1.6ZM39.7,44.1c.2-.1.4-.3.4-.5-.1.2-.5.4-.6.6s0,0,0,.1c0,0,.1-.1.2-.2ZM40.5,44.2c0,0-.1,0-.2.1-.3.2-.5.5-.8.8-.6.5-1.5,1.1-2,1.7s-.1.1-.1.2c.7-.6,1.4-1.2,2.1-1.8s.5-.5.8-.8.1,0,.1-.2ZM39.9,44.2s-.4.3-.4.3-.1.1-.2.2c.1,0,.7-.4.6-.5ZM39,45.2v-.2s-1.4,1.2-1.4,1.2c.1,0,.2,0,.3-.2.3-.3.6-.6.9-.8s.1,0,.2,0ZM39.4,45.6c-.1,0-.3.2-.4.3s-.3.3-.4.4c0,0,.1,0,.2-.1.2-.2.4-.4.6-.6ZM39.7,46.1l-1.3.9h-.1c.2.2,1.5-.8,1.4-.9ZM38.3,46.5c0,0-.5.5-.6.6.1,0,.7-.5.6-.6Z"/>
  <path class="st0" d="M32.4,15c0,0,.3.3.3.4v2.3c0,0-.6,0-.6,0,.2-.6-.2-1.5-.9-1.6s-1.2.4-1,1.1h-.7c0-1.5-1.7-2.5-2.8-1.4s-.4.7-.6,1.2h-.5c0-.1,0-.3,0-.5s-.1-.2-.2-.3,0-.1,0-.1c0,0-.2,0-.2,0s0-.1-.1-.1c-.4-.2-1,0-1.4.1-.5.4-.8,1.1-.7,1.8h-.3c0,0,.2-.3.2-.3-.2-.1-.1.3-.3,0,0-.2,0-.5,0-.7s.1,0,.1-.1c.1-.2.3-.5.4-.6.3-.4.9-.9,1.3-1.3,0,0-.1,0-.2,0-.1,0-.6.5-.7.6-.4.4-.6.8-1,1.2v-1.4c0-.1,0-.2.2-.2l-.2-.2c1-.4,2.1-.6,3.2-.7,2-.1,3.6,0,5.5.5s.9.3,1.1.4ZM23.7,14.5c-.3,0-.7.3-.8.6.2-.1.3-.3.5-.4s.3,0,.3-.2ZM25.3,14.8l-.6.4-.2.3s.7-.6.8-.7ZM24.8,15c0,0-.3.2-.4.3-.2.1-.5.2-.6.4.4-.2.8-.3,1-.7ZM24.8,15.6l.6-.4v-.2c0,0-.7.6-.6.7Z"/>
  <path class="st0" d="M46.8,33.7l-3.4,2.3v.2c0,0,.7,0,.7,0l-2.2,1c-.1,0,0-.2,0-.4-.4-1.4-1.6-2.1-3-1.5s-1,.9-1.3,1.4c0-.3-.5-.7-.6-1-.1-.6.3-1.4-.4-1.8l2.7-.2h0c.2,0,.6,0,.8,0,2.1-.1,4.2,0,6.2-.2s.3,0,.4,0ZM38.9,35.4c.2,0,.3-.3.4-.4s.7-.4.6-.5c-.4.2-.7.6-.9.9ZM38.4,34.7c-.2,0-.3.2-.5.3s-.4.3-.4.5l.8-.8ZM39,34.7c-.5.2-.8.6-1.2,1,.1,0,.3-.2.4-.3.3-.2.5-.5.8-.7ZM43.8,34.8c-.4.1-.6.5-.9.7.4,0,.6-.5.9-.7ZM42.6,35c-.3.1-.6.4-.8.7,0,0,.1,0,.2-.1.2-.2.4-.4.6-.6Z"/>
  <path class="st0" d="M52.1,49.2v-.2s-.3.1-.3.1c.1-.4,0-.3-.2,0v-.2c-.3,0-.4.1-.4.3,0,0-.2,0-.2,0s-.1-.6-.3,0h.2c-.2.2-.2,0-.4.1-.3,0-.5.1-.8,0s-.3-.1-.4,0-.2,0-.3,0c0-.2.6-.4.6-.6s-.4,0-.6,0l-.2-.2v-.4c-.2,0-.2,0-.4-.1l-.2.3h0c0-.1-.1-.1-.1-.1,0,.1-.1.1-.2.2h0c.1,0,.1.3.2.4-.3,0-.1-.4-.4-.4,0,.4.1.4.4.7v.2c-.2,0-.3-.3-.4-.4-.2,0,.1.3,0,.3s-.3,0-.5,0h0c0-.1,0-.4,0-.4l-.4.4h-1.8c.2,0,0-.3.1-.4s.8-.5.9-.6.1-.1,0-.1c-.5.3-.9.8-1.5.8l.4-.4-.6.2c-.2.1.2.3.2.4-.3,0-.3-.4-.6-.3v.3c-.1,0-.2,0-.4,0-.3,0,.2-.3.1-.4-.2,0-.2.2-.3.2-.2.1-.7,0-.9,0s-.6,0-.8,0,0-.1-.1-.1c0,0-.3,0-.4,0,0-.4.5-.4.6-.7-.2,0-.8.8-1,.6s0-.2,0-.2.1,0,.1,0c.3-.3.6-.6.9-.9-.3,0-1,1-1.1.9,0-.6.3-.5.6-.9l-.6.2v-.3c.2,0,.5,0,.8,0,1,0,1.9,0,2.9,0s.4-.2.4,0c.6-.2,1.3,0,1.9-.2h0c2.1,0,4.2.2,6.3,0l.6.4v1.1s.3,0,.3,0c0-.3.3,0,.3.1h-1.8ZM43.4,47.8c-.3,0-.5.3-.7.5s-.6.4-.5.5l1.2-1ZM44.2,47.9c-.3,0-.6.3-.8.5.3-.1.6-.2.8-.5ZM46.7,47.9c-.3,0-.6.3-.8.4s-.9.8-.8.8l1.7-1.2ZM52.7,47.9c-.2,0-.6,0-.8,0s-.1,0-.2,0h.4s.5,0,.5,0ZM41.3,49l.8-.6c0,0,0,0-.2,0s-.7.6-.6.6ZM43.1,48.6c-.3.1-.6.3-.7.5.3-.1.6-.3.7-.5Z"/>
  <path class="st0" d="M67.8,49c-.2,0-.4,0-.5,0-1.7,0-3.3.1-4.9.2s-2,0-3,0-.7,0-.7,0c-.1,0-.3-.4-.2-.5,0,0-.2,0-.3,0s0,.1,0,.1l-.2-.5c-.1,0-.1.3-.2.3s-.2,0-.3.2h-.4c0,0,.1.4.1.4h-.6c0,0,0-.5,0-.5-.2-.1-.3-.1-.5,0s-.3.4-.4.2.8-.7.7-1.1c-.3-.3-.6.6-.8.5s.3-.3.2-.4c-.2-.2-.4.2-.7-.1.2-.2.4,0,.5,0,1.6,0,3.2,0,4.8,0s4.2,0,6.2.1,1.1-.1,1.1.2v1Z"/>
  <path class="st0" d="M33.4,48.9h-.1c0,0-5.9.1-5.9.1-.1,0-.2-1.2,0-1.3s.3-.3.3-.3c.7,0,1.4,0,2.1,0s.5,0,.7,0,.5,0,.8,0v.3s-.1-.1-.1-.1h-.2c0,.1.3.2.3.2v1h0c0,0,0,0,0,0v-1.4c.3-.1.4,0,.7,0s.6,0,.9,0l.4.3v1.2ZM32.6,47.8c-.3,0-.5,0-.8,0,0,.2.4,0,.5,0,.2,0,.4,0,.6,0,0,0-.3-.1-.3-.1Z"/>
  <path class="st0" d="M64.3,38.9s-.1,0-.1,0c0-.1.4-.6.5-.8,0,.2-.2.4-.3.6s0,.1,0,.2c.1,0,.3-.4.4-.5,0,0,0,0,0,.1,0,.2-.4.4-.4.6l.4-.5c.2.2,0,.2,0,.4l.2-.2c0,.4-.4.5-.5.9l.5-.6h0c0,1.2.2,2.2.2,3.3s0,.3,0,.4c0,.2-.1.3-.2.4l.2-.2c0,.8,0,1.5,0,2.3s.2,1.3,0,1.6-.3.2-.4.3l.5-.2c0,.2,0,.3-.2.3h.2c0,.1-.7.1-.7.1l.2-.2c-.1-.1-.2.1-.3.2s-.3,0-.4,0l.3-.3h-.3s0-.1,0-.3c0-1-.1-2.1,0-3.1s0-.1.1-.2c-.2,0,0-.2,0-.4,0-.7,0-1.4,0-2.1s0-1.7.1-2.3Z"/>
  <path class="st0" d="M35.1,40.9c-.1,0-.4.4-.4.4.2,0,.3-.4.4-.3,0,.3,0,.2-.2.3-.2.2-.4.4-.6.7,0,0,.1,0,.1,0,.2-.2.3-.4.5-.6s0,0,.1,0c0,.5.1,1.2,0,1.7s-.3.2-.3.4l.3-.3c0,.2,0,.5,0,.6s.2.2,0,.4c.1,0,.1.3.1.4s-.1.2-.1.3,0,0,.1.1c0,.2,0,.3,0,.4,0,.3.1.8-.1,1s-.2,0-.2,0,0,.2.2.1.1-.3.3-.3v1s-1.2,0-1.2,0v-5.2c0-.4-.1-.8-.3-1.2l.9-.8c0,0,.5.7.4.8ZM34.7,40.3h-.2c0,0-.5.7-.5.7l.7-.7ZM34.6,43.1c.2-.2.5-.5.6-.8-.2.2-.5.5-.6.8ZM35.2,42.8c0,0-.2,0-.2.1s-.3.5-.3.5c0,0,.1,0,.2-.1s.4-.5.4-.5Z"/>
  <path class="st0" d="M24.4,40h-.2c0,0,0,.2-.2.2h.3c-.4.2-.5.6-.8.9s-.8.6-.8.8,0,0,0,0l.6-.6s0,0,0,0c0,0-.2.4-.2.5-.1.3-.5.6-.7.9h0c0,0,.6-.6.6-.6-.1.4,0,.8,0,1.2,0,1,0,2,0,3.1s.1.7,0,.8h-.2c0,0,0,.1,0,.1.2,0,.2,0,.3.2s.2,0,.2.2c0,.1,0,1,0,1.1s0,0,0,0c-.1,0-1.3.2-1.3.2,0-.3,0-.7,0-1s0-.2,0-.3-.1-.1-.1-.2c.1,0,.3,0,.3-.2-.3-.1-.1-.3-.1-.5,0-1.3-.1-2.8,0-4.1s.3-.7.6-1c-.2,0-.3.3-.4.3h0c0-.1,1.1-1.1,1.1-1.1,0-.2.5-.7.7-.8s.2,0,.2-.1h0Z"/>
  <path class="st0" d="M21.5,32.6c0,0-.2.5-.2.5s-.1,0-.1,0h.1c-.2.3-.4.4-.6.6s-.1.2-.2.2c-.2.2,0-.3,0-.4.1-.2.4-.2.5-.3s0-.2.1-.2c.2-.2.4-.2.4-.5,0,0,0,0,0,0Z"/>
  <path class="st0" d="M20.4,33.6c0,0,0-.1,0-.2,0-1.1,0-2.4,0-3.5h-.1c0-.5,0-1,0-1.4s.1-.2.2-.3h-.2c0-.3,0-.9,0-1.3s.3-.2.3-.4l-.3.3s0,0,0,0c0-.6.4-1.3.6-1.9s.2-.6.3-.9c.3.3.4.7.6,1s.4.2.1.5h0c-.1,1.3,0,2.5,0,3.7l-.3.4c.2,0,.1-.2.3-.2v.6c-.3.1-.3.4-.5.6.2.1.3-.5.5-.5v.6c0,0,0,0,0,0l-.7.7.4-.2c0,0,.2-.4.3-.3,0,0,0,.1,0,.2,0,.7,0,1.5,0,2.2l-.4.3c0-.2,0-.4,0-.6,0,0,0,0-.1,0,0-.1.2-.3,0-.3h0c-.2-.1-.1,0-.2,0-.2.3-.9.9-1,1.2ZM21.2,25.7h.2c0-.4.4-.5.4-.8-.3.2-.4.5-.6.8ZM21.3,26c-.4-.2-.4.4-.4.7,0,.4.1.9-.1,1.2h.2c0,.3-.3.3-.2.5h.2c0,.6,0,1.2-.2,1.8s-.3.4-.2.5c.2,0,.4-.5.5-.5s.1.3.2.3c0-.1.2-.2.2-.3.1-.6-.2-1.5.1-2.1h-.1c0-.5,0-1,0-1.5s.1-.2.2-.3h-.2c0,0-.1,0,0-.2ZM21.3,32.1c0,0,.5-.5.5-.6,0,0-.2.1-.3.2s-.2.3-.2.4Z"/>
  <path class="st0" d="M25.8,39.4v.2c0,0,.2-.1.2-.1.1,0,.2.2.3.2l-.2.3.4-.3v.3c0-.2.4,0,.3.2h.2c0,.2.5.4.4.7s-.2.2-.2.3h.3c0-.1-.3.3-.3.3l.4-.3c0,.1,0,.2,0,.3s-.2.1-.1.2l.2-.2h0c0,.1,0,.2,0,.2l-.3.5h.2c0,0-.1-.2-.1-.2h.2c0,.6,0,1.3,0,2h-.1c0,0,.1.1.1.1,0,.2,0,.4-.1.5h0c0,.6,0,1.2,0,1.8s.1.5,0,.5-.2,0-.2,0c0-.2,0-.3,0-.5,0-.7,0-1.4,0-2.1,0-1.4.1-3.3-1.1-4.3-2-1.6-4.2,0-4.4,2.3s0,.8,0,1.2c0,1.1,0,2.2,0,3.3h0c0,.1-.3.1-.3.1,0-1.1,0-2.3,0-3.4s0-1.6.4-2.5,1.4-2,2.5-2.1,1.4.1,1.4.2Z"/>
  <path class="st0" d="M28.5,18.1v2.8c0,.1-.4,0-.4,0-.5,0-.9,0-1.4,0-.2-.2,0-.3,0-.5,0-.7,0-1.7,0-2.3s.7-.8.9-.9c.3.3.7.5.8.9h.1Z"/>
  <path class="st0" d="M52.3,38.4c-1.8-.3-3.6-.3-5.3-.4.2-.2.6,0,.8-.2-.3,0-.6,0-.8,0v-.2s.3,0,.3,0c0-.2-.2,0-.3-.1.1-.4,0-.9.3-1.2.1,0,1.1,0,1.3,0s.3,0,.5,0c.7.3,1.3.8,2,1.2s1,.5,1.3.9Z"/>
  <path class="st0" d="M21.8,49h-3.9c0,0,0-.1,0-.1,0-.3-.1-.9,0-1.1s.4-.3.4-.3c.2,0,.5,0,.7,0,.8,0,1.8,0,2.6,0s.2,0,.2,0c0,0,0,.1,0,.2v1.3Z"/>
  <path class="st0" d="M47,36.3c0,.4-.3.4-.5.6h.2s-.7.4-.7.4c0,.1.4-.1.5-.1.2-.1.3-.2.4-.4,0,.1,0,.3,0,.4,0,.1-.5.1-.3.3l.3-.2v.2s-.3.2-.3.2h.2c.1,0-.3.2-.4.2,0,0-.4,0-.5,0,0,0,.7-.3.4-.4s-.5.3-.7.4c-.5.1-1.2,0-1.8,0s-.7,0-1,.1c-.5,0-1.1,0-1.6,0,0,0,.2-.1.2-.2.7-.3,1.4-.6,2-.9,1-.5,1.5-.9,2.7-.9s.6,0,.9,0ZM46,36.8l.7-.3c0-.1,0,0-.2,0s-.7.2-.5.3ZM44.3,37.5h-.5c0,.1-.8.5-.8.5h.2s1-.5,1-.5ZM43.1,37.5h-.3c0,0-.8.4-.8.4.4,0,.8-.2,1.1-.4Z"/>
  <path class="st0" d="M28.9,21.5c-.2.1.5.1.5.1,0,.2-.3.2-.5.2s0-.1-.2-.1,0,0,0,.1c-.2,0-.3,0-.5,0s0,.1,0,.1c-.1,0-.4-.1-.6,0h.6c0,.1.7,0,.7,0h.3c0,0-.7.7-.7.7-.2.4-.6.7-.8,1s-.1.2-.2.3c0,0-.3-.2-.3-.2,0,0,0-.2,0-.2s-.4,0-.4-.2h.3c0-.1-.5,0-.5,0l-.8-.8c0,0,.2-.1.2-.1.2,0,.4,0,.6,0h0c0,0,.3-.3.3-.3-.2,0-.4.2-.7.2s-.4,0-.6.1c-.2-.3-.5-.5-.8-.8,0,0,.8-.1.9-.1,1,0,2.3-.1,3.3,0s.8,0,.7.2c-.2.2-.5,0-.8.1ZM26.5,21.7c0-.2-.1,0-.2,0s-.1,0-.2,0c-.1,0-.3.1-.4,0,0,0,.1,0,.2,0,.2,0,.4,0,.6,0,0,0-.3.1-.5.1s-.6,0-.4.2c.5,0,.9-.3,1.5-.3,0,0,0-.1,0-.1s-.4,0-.5,0ZM28.7,21.7h-.9c.2.1.5.1.8.1s.1,0,.1-.1ZM27.3,22.3c.3,0,.7,0,1,0s.5,0,.4-.2c-.5,0-1.1,0-1.6.1s-.2,0-.2,0c.1,0,.3,0,.4,0ZM28.4,22.5c-.3,0-.7,0-1.1,0s-.2,0-.2.1c.4,0,.8,0,1.2,0s.2,0,0-.1ZM27.9,23.1h-.3c.1.1-.3,0-.4.3.2,0,.3-.1.4-.2s0,.2.1.1.2-.2.2-.2Z"/>
  <path class="st0" d="M59.9,33.6h0c.2,0,.3,0,.5,0,1.8.2,3.7.3,5.5.6s.5.2.5.2.4,0,.4,0h0c.3,0,.7.3,1,.4h0c0,.1-2-.5-2-.5-2-.3-4-.6-6-.7s-1.6,0-2.2,0,0,0-.1-.1h-.9c0,.1.1,0,.1,0h-.7c0,.1-.1,0-.1,0-1.9,0-3.9,0-5.8,0s-.7,0-1,0-.8,0-1.2,0v-.2c-.4.3-.9.1-1.4.2s-1.3,0-2,.1h0c-.5,0-1.1,0-1.6,0s-.6.2-.6,0h0c0,0,0,0,0,.1-.3,0-.8,0-1.1,0s-1,.1-1.5.1-.5-.1-.6,0c-.4,0-.8,0-1.2,0s-.5,0-.7,0c0-.2.5-.2.7-.2,1.6-.1,3.2,0,4.8-.2h2.4s-.1.1-.1.1c.1.1.1-.1.2-.1,2.9-.1,5.8,0,8.6,0s3.1,0,4.6.2,1,.1,1.5,0,.3,0,.4,0Z"/>
  <path class="st0" d="M46.1,29.6c-.4.7-.7,1.4-1.1,2.1s-.5.9-.6,1c-.2.1-.7,0-.9.1h0c.6-1.1,1.2-1.9,1.7-2.9s.1-.1,0-.2c-.6,1-1.2,2-1.9,2.9-.2.2-.8.2-1.1.2.1-.1.3-.3.5-.3h-.1c.5-.7.9-1.3,1.3-1.9s.4-.4.5-.6.2-.3.3-.3h1.3Z"/>
  <path class="st0" d="M65,33.6c-.8,0-1.4-.6-2.1-1-1.1-.6-2.1-1.1-3.1-1.7s-1.3-.7-1.4-.7-.1,0-.2,0c0,.1.2,0,.3.2,1,.5,2,1.2,3,1.8s1.1.5,1.4.7,0,.1,0,.2c.2.1.5.3.7.4h0c-.2,0-.5,0-.7,0-1.3-.7-2.6-1.5-3.9-2.3s-1.4-.8-1.6-.9,0,0-.1,0l5,3h0c-.2,0-.4,0-.6,0-.4-.2-1.2-.7-1.6-1-1.1-.6-2.2-1.3-3.2-2l-.5-.3c.2,0,.3,0,.5,0,.3,0,.4,0,.7.1,1.9.2,4.8,2.2,6.6,3.1s.7.2.8.4Z"/>
  <path class="st0" d="M32.6,34.4c.1.1-.8,1.3-.8,1.6-.3.1-.6,0-1,0s-.8.2-1-.2c.5,0,.9,0,1.4,0s.3,0,.4,0,.2,0,.2,0c-.6-.1-1.2-.1-1.8-.2s-.1,0-.3,0-.3-.2-.4-.3c.7,0,1.5,0,2.2,0h.5c-.7-.2-1.4-.2-2.1-.2s-.5,0-.7,0-.3-.2-.3-.2-.1,0,0-.1c.9,0,1.8,0,2.6.2.2,0,.6,0,.8,0s.1,0,.1-.1c-.6.1-1.3,0-2-.1s-.8,0-1.1,0-.3,0-.4,0-.3-.2-.5-.3h.2c0,0-.2,0-.3-.1s-.5-.2-.4-.3l3,.2,1.7.3ZM32.1,34.6c0,0,0,0-.1,0-.3,0-.9,0-1.2-.1-.5,0-1.1,0-1.6,0h1c0,.1,2,.2,2,.2Z"/>
  <path class="st0" d="M24.6,21.1c0,.1-.6,0-.8,0s-.3.1-.4,0c0,0,0-.1,0-.2,0-.7,0-1.5,0-2.2s-.2-.4,0-.5v.2c.1,0,.2-.2.2-.2,0-.4-.4-.7,0-1.1l.6.6c.1.2,0,.3,0,.5s.3.3.3.4v2.5Z"/>
  <path class="st0" d="M55.4,13.1s-.6-.4-.7-.4c-1-.5-2.1-1-3.3-1.2-2.9-.5-6.2-.5-9,0s-2,.4-2.9.8-.7.5-1,.8,0,.1-.1,0c0,0,0-.2,0-.3s.2-.3.3-.3c.1,0,1-.5,1.2-.6,3.3-1.2,7.8-1.3,11.3-.8s2.8.5,3.8,1.2.6.5.5.7Z"/>
  <path class="st0" d="M30,13.9h.5c-.6-.2-1.2-.2-1.8-.2s-.2,0-.3,0-.1.1-.3.2-.3,0-.4,0h0c0-.1-.8,0-.8,0h0c-.6,0-1.2.1-1.8.2h0c0,0-1.5.2-1.5.2h0c-.2,0-.5.2-.7,0h0c0,.2-.3.2-.4.3s-.2.2-.3,0c0,0,1.1-.8,1.3-.7l-.2.2c.1.2.2-.1.3-.2.2-.1,1.2-.3,1.5-.3,2.6-.2,4.9-.2,7.4.7s.8.3.4.7c-.8-.5-1.8-.8-2.8-1ZM26,13.6c-.4,0-.8,0-1.3.1s-.2,0-.1,0c.4,0,.7,0,1.1-.1s.3,0,.3,0Z"/>
  <path class="st0" d="M47.2,34.3c.7.6,1.6,1,2.3,1.7l-3.2-.3.3-.3-.4.2h-.7c0,.1,1.5-.7,1.5-.7,0-.2-.4.1-.5.1-.1,0-.2.1-.4.2s-.6.3-.8.4l.2-.2s0,0,0,0c-.3.1-.5.5-.9.5l2.3-1.4c.1,0,.3,0,.3-.2l-2.9,1.7c0-.1,0-.1.1-.2.8-.6,1.7-.9,2.5-1.5s.2-.3.4-.2,0,.1.1.1Z"/>
  <path class="st0" d="M31.1,17.4c0,.1.1.3.1.4s-.3.2-.1.5c.1.1.4,0,.4.3v2.6c0,0-1.1-.3-1.1-.3v-3.1c.3-.1.4-.5.7-.5Z"/>
  <path class="st0" d="M54.3,32.7s-.1,0-.2,0c0,0-.5-.5-.6-.6s-.1-.2-.2-.3c-.3-.4-1.2-1.1-1.4-1.4s0-.2,0-.2c0,0-.4-.1-.5-.3.5-.3.6,0,.9.3s.7.5,1,.8c.7.6,1.2,1.3,1.9,1.8.1.2,0,0,0,0-.3,0-.7,0-.9,0Z"/>
  <path class="st0" d="M35.7,49c0,0-.1,0-.2,0-.3,0-1.3-.2-1.4-.2s-.2.2-.3,0h.2c0-.1-.2-1.2.2-1.2h-.2s0-.3,0-.3h1.5c0,0,0,.2,0,.2,0,0,.3-.3.3,0v1.4Z"/>
  <path class="st0" d="M32.7,22c0,.3-.5.3-.5.6s0,.1,0,.2h.5s-.1.2-.1.2c.2,0,.4,0,.6-.1s.1,0,.2,0c.2,0,.4,0,.6,0l-.9,1.2c0,0-.4-.2-.4-.2s0-.2-.1-.2c-.5-.5-.9-1.1-1.4-1.7s-.4-.3-.5-.4c.7,0,1.4.3,2,.4Z"/>
  <path class="st0" d="M46.6,29.5s-.1.8-.2.8-.1,0-.1,0,0,0,0,.2c-.2.5-.4,1.1-.5,1.6,0,.2-.2.1-.4.1h.3c0,0,0,.3,0,.3h-1.2s1-1.9,1-1.9h.2c0-.1-.2,0-.2-.1s.3-.4.3-.5.1-.2.2-.3,0-.1,0-.1c0,0,.4,0,.5,0Z"/>
  <path class="st0" d="M30.2,21.7c0,.3.1.3.2.3.7.7,1.3,1.5,1.9,2.2s.5.5.6.6,0,.3,0,.5c-.5-.2-.8-.8-1.2-1.2s-.3-.3-.5-.5c-.3-.3-.8-1-1.1-1.2s-.3,0-.4.1-.2.2-.3.3c-.5.6-1,1.2-1.6,1.8s-.2.3-.3.2c0,0,0-.2,0-.2,0-.1,1.1-1.2,1.3-1.4.4-.4.8-1.1,1.2-1.4s0,0,.1,0Z"/>
  <path class="st0" d="M29.4,18.3s0,0,0-.1c0-.3.5-.5.7-.3.3.3.1,1.3.1,1.7s0,.2,0,.3c0,.4,0,.7,0,1.1h-.8c0-.9,0-1.7,0-2.6Z"/>
  <path class="st0" d="M48.7,32.6c0,0-.4,0-.4-.1,0-.2,0-.6,0-.9,0-.6-.2-1.1-.2-1.6s0,0-.1,0,0-.2,0-.3h.6c0,.3.5,1.5.4,1.6h-.2c0,0,.3.1.3.1v.2s-.2,0-.2,0c.2,0,.4.1.3.3h-.4c0,0,.5,0,.5,0v.4c.1,0-.8,0-.8,0h0c0,.1.9.1.9.1,0,0,0,.1,0,.2h-.3s.4.2.4.2c-.2,0-.5,0-.8,0Z"/>
  <path class="st0" d="M45.9,32.6l.9-3.1h.5s-.4,3-.4,3c0,0-.2.1-.3.1h-.8Z"/>
  <path class="st0" d="M32.7,18.3v3.3l-.8-.3c0,0,.2-.3,0-.3v-.3s.1.2.1.2v-2.5c0-.2.5-.1.7-.1Z"/>
  <path class="st0" d="M54,30s0,0,.1.1c1.3.9,2.4,1.9,3.7,2.8-.3,0-.7,0-.9,0s-.5-.3-.6-.4c-1-1-2.1-1.7-3.1-2.6,0,0,.2,0,.3,0,.2,0,.4,0,.6.2Z"/>
  <path class="st0" d="M47.2,32.6s0,0-.1,0c.1-1,.4-2.1.4-3.1h.4s.4,2.5.4,2.5h-1c0,.2.1.1.2.1.2,0,.5,0,.8,0,0,0,0,.5,0,.5-.3,0-.7,0-1,0Z"/>
  <path class="st0" d="M51.5,29.9h-.3c0,0,.3,0,.3,0,.7.5,1.2,1.2,1.7,1.8h-.3c.4.1.5.3.8.6s.3.2.2.3h-.9c0,0-2.1-2.6-2.1-2.6h.1c-.2,0-.3-.3-.5-.4.3,0,.8,0,.9.3Z"/>
  <path class="st0" d="M26.1,20.9s0,0,0,0c-.2,0-.4.1-.3-.2l-.3.2c0-.8,0-1.7,0-2.5s0-.2,0-.3c0-.4.5-.5.7-.2s0,1.6.1,2,.1.8,0,.9-.1,0-.1,0Z"/>
  <path class="st0" d="M34.3,20.9c.1,0,.3.3.4.4s.1.2.2.3c.1.2,1,1.1,1,1.2s0,.3,0,.4h-.2c.3.5.2,1.3.2,1.9s0,.5,0,.7c-.2,0,0-.2-.1-.4h-.1c0-.1-.1-.3-.1-.5s.2-.2.2-.4c-.2.2-.4.5-.2,0h-.3c0,0,.2-.3.2-.3l-.2.2-.2-.6.5-.6c0,0-.4.4-.5.5s0,0-.1,0c0-.1-.1-.4,0-.4,0-.1.4-.3.4-.5l-.5.4c0,0,0-.2,0-.3,0-.2.3-.1.3-.3l-.4.2c-.1-.3,0-.6.2-.7,0,.2.7.9.8.9s.1,0,.1-.1l-1.7-1.7c0,0,0,0,0-.1,0-.1,0,0,0,0Z"/>
  <path class="st0" d="M51.9,32.6c0-.3-.3-.4-.4-.7-.4-.7-.8-1.4-1.3-2s-.3-.2-.2-.4c.3,0,.5,0,.7.2s.6.8.8,1.1.3.2.4.4h-.1c.1,0,.2,0,.2.2.2.2.5.6.6.9s.2.1.3.2h-1Z"/>
  <path class="st0" d="M50,30h0c.2,0,.4.3.5.5s0,.1,0,.2c0,0,0,0,.2,0s.6,1,.7,1.2,0,.1,0,.1.2,0,.2.2h-.3c.3,0,.5.2.5.5h-1c-.3-.9-.7-1.6-1.1-2.4s0-.2,0-.3-.4-.2-.1-.4.6,0,.6.4Z"/>
  <path class="st0" d="M37.3,49h-1.5c0,0,0-1.5,0-1.5.1,0,0,.2.2.1s0-.1,0-.1c.3,0,1,0,1.2.3s.1,1.2.1,1.2Z"/>
  <path class="st0" d="M43.7,29.7c-.7.6-1.2,1.4-1.9,2.1s-.7.6-.9.9h-.8c0,0,.7-.7.8-.7.3-.4,1.9-2.2,2.2-2.3s.4,0,.6,0Z"/>
  <path class="st0" d="M55.6,32.8c-1-.9-1.9-1.8-2.9-2.6v-.2c-.2.1-.3,0-.4-.2.6-.1.8.2,1.2.5.8.7,1.7,1.3,2.4,2.1l.6.4h-.9Z"/>
  <path class="st0" d="M49.6,32.6l-.9-3c.3.1.6,0,.7.4h-.2c0,0,.2,0,.2.1s.4.9.5,1c.1.2.2.5.4.7h-.2c.2,0,.3.2.3.4h-.3c.3,0,.5,0,.5.4h-1Z"/>
  <path class="st0" d="M39,32.9c.3-.3.6-.5.9-.8.5-.4,2-2.2,2.5-2.3s.3,0,.5,0c0,0-.5.6-.6.6-.6.6-1.2,1.4-1.9,1.9s-.1,0-.2,0v.2c0,0-.3.3-.3.3h-.8Z"/>
  <path class="st0" d="M44.5,29.6c-.2.3-.5.5-.7.8-.4.5-.9,1.1-1.2,1.6s-.3.2-.4.3.1.3-.2.3v-.2c-.2.4-.5.4-.9.4,0,0,.2-.3.3-.3.8-.8,1.4-1.8,2.2-2.6s.5-.3.9-.3Z"/>
  <path class="st0" d="M42,29.8l-1.8,1.6-1.6,1.5h-.8c0,0,1.7-1.5,1.7-1.5.5-.4,1-1,1.5-1.4s.5-.3,1-.2Z"/>
  <path class="st0" d="M59.4,33s0,0,0-.1c-.7-.5-1.5-.9-2.3-1.4s-1.8-1.2-1.9-1.3,0-.1,0-.2h-.4c0,0,0-.2,0-.2h.8c0,.1-.2.3-.2.3.4-.2.8.3,1.1.6,1.2.8,2.5,1.5,3.7,2.4-.1,0-.7,0-.7,0Z"/>
  <path class="st0" d="M59,32.9c0,0,0,0,0,0-.3,0-.5,0-.8,0l-3.7-2.7v-.2c-.2.1-.3,0-.4-.2.4-.2.9.2,1.2.4,1.2.8,2.4,1.7,3.6,2.5s.1,0,.2,0Z"/>
  <path class="st0" d="M61.3,33.1l-.2.2h0c0-.1-.4,0-.4,0-1.5-.9-3-1.8-4.5-2.8s-.4-.3-.6-.5c.8,0,1.4.8,2.2,1.1,1.1.8,2.2,1.4,3.4,2.1Z"/>
  <path class="st0" d="M41.2,29.8c-.6.6-1.2,1.1-1.9,1.6s-.8.7-1.2,1.1-.5.4-.6.5c-.1,0-.5,0-.6,0,.4-.4.8-.8,1.2-1.2s2.1-1.9,2.4-2,.4,0,.6,0Z"/>
  <path class="st0" d="M40.2,30c-1.3.9-2.5,1.9-3.7,3-.2.1-.4.1-.7.1l1.6-1.5c.4-.3.7-.5,1.1-.8s.8-.9,1.5-.9.1,0,.1,0Z"/>
  <path class="st0" d="M47.2,19c-.5.4-1.1.9-1.5,1.4l-1.2-1.3h2.6Z"/>
  <path class="st0" d="M24.5,21.9s0,0,0,.1c.7.6,1.2,1.1,1.9,1.8s.8.5.8,1l-2.7-2.6-2.3,2.7v-.5c.5-.5,1-1,1.4-1.5s.5-.7.8-.9,0,0,.1,0Z"/>
  <path class="st0" d="M24.2,21.4l-.8.7c-.4.6-1,1.1-1.4,1.7h-.1s-.5-1.3-.5-1.3c.2-.3.4,0,.6,0l-.3.3c.2,0,.3-.3.6-.2l-.2.2.2-.2h.1c0,.1,0,0,0,0v.2c.7-.2.3-.7.4-1.2.4-.2.8-.3,1.2-.3Z"/>
  <path class="st0" d="M22.9,21.1h0c-.1,0,0,0-.2,0v-.3c.1,0,0,0,0,0v-.2c.1,0,0,.1,0,.1,0-.1,0-.1.1-.2s0-.2-.1-.3.1-.5.1-.5h-.2c0,0,.2-.3.2-.3h0s0-.2,0-.2h-.2s0-.1,0-.2.1,0,.1-.1h-.1c0,0,0-.7,0-.7.3-.2.6,0,.6.3v2.6s0,0,0,0h-.2Z"/>
  <path class="st0" d="M58.1,19.5c0,0-1,1.2-1.1,1.4l-.9-1.2c0-.1.2,0,.3-.1.3,0,.6,0,.9,0l-.2.2c.1.1.2-.2.2-.2s.7,0,.7,0Z"/>
  <path class="st0" d="M39.9,47.6l-.2.3h.4s0,0,0,.1,0,.2,0,.3-.3.2-.4.4c.1,0,.5-.4.4-.1s-.3.3-.4.3c0-.2-.2,0-.3,0s-.4,0-.5,0l.3-.2h-.1c.1,0,.3-.2.3-.3-.4.2-.7.6-1.2.6l.4-.4,1-.7c-.6.2-1.2.8-1.7,1.1-.1-.3.3-.4.5-.5s.4-.3.6-.5.2,0,0-.1-.7.5-.9.5l-.3.3h-.1c0-.1.6-.6.6-.6-.1,0-.4.3-.5.3s0-.2,0-.2c0,0,.2,0,.2-.1h-.2c0,0,0-.2,0-.2.7,0,1.5,0,2.2,0Z"/>
  <polygon class="st0" points="39.5 30 35.7 32.9 35.7 32.4 38.8 30 39.5 30"/>
  <path class="st0" d="M66.5,33.9l-1.1-.3-5.7-3.1c.6,0,1,.4,1.5.7,1.7.8,3.5,1.7,5.2,2.5s.1,0,.1.1Z"/>
  <path class="st0" d="M35.4,26.5l-1.3-3-1,1.3c.2-.7.8-1.2,1.2-1.7.5,1.1.8,2.2,1.4,3.2,0,0-.2.3-.3.2Z"/>
  <path class="st0" d="M53.6,18.9l-1.3,1.4c-.2,0-.8-.8-.6-.9.7-.1,1.2-.5,1.9-.5Z"/>
  <path class="st0" d="M48.7,17.1h-.4c0-.4,0-.9,0-1.4s-.3-1,.4-1.3v2.7Z"/>
  <path class="st0" d="M42.9,18.6h0c0,.1-.2.3-.4.5h0c0-.1-.3.2-.3.3-.1.1-.4.5-.5.6s-.2,0-.2,0c-.1.1-.1.4-.3.4s-.2,0-.2,0c0,0,0,.3-.2.4h0c0-.1-.5.3-.5.3,0,0,0-.2,0-.2,0-.2,1-1,1.2-1.2s.4-.2.5-.3,0,0,0-.1c.3-.2.7-.9,1-.8s.2.2,0,.2Z"/>
  <path class="st0" d="M34.9,20.8c0,0-.4-.5-.3-.5l1.4.2h.1c0,0-.5,1-.5,1-.2-.1-.3-.4-.5-.5s-.2-.1-.2-.2Z"/>
  <path class="st0" d="M38.3,30.1l-2.6,2.1v-.4c0,0,.1,0,.2,0,.4-.3,1.9-1.5,2.2-1.6s.2,0,.3,0Z"/>
  <path class="st0" d="M39.2,39.3c-1-.2-.6-2.6.5-1.9-.1.1-.3,0-.4.2-.3.3-.3.7-.2,1.1s.2.3.1.6Z"/>
  <path class="st0" d="M31.7,36.1c0,.2-.5.8-.5.8,0-.1-.1-.1-.2-.2-.2-.2-.4-.4-.7-.6.4-.2,1,0,1.5,0Z"/>
  <path class="st0" d="M53.5,47.7c0-.1.5,0,.7,0v.3s-.4-.1-.4-.1c0,.1,0,.3,0,.3,0,.3.4,0,.5,0s0,.4,0,.5c-.2,0-.4-.3-.5-.3-.2,0,.1.3.1.4h-.4c0,.1,0-1,0-1Z"/>
  <path class="st0" d="M20.6,34.8c0,0-.2.3-.3.3-.4.4-.9.8-1.4,1.1s-.7,1-1.2,1.1c.5-.5,1.1-1.1,1.6-1.6s.8-.7,1-.9.3-.1.3-.1Z"/>
  <path class="st0" d="M40,46.9c-.1.1.3.1.3,0v.2s.2,0,.2,0l-.4.4c-.2.1-.5,0-.7,0s-.2.2-.3,0l1.5-1c.1.3-.4.4-.5.5Z"/>
  <path class="st0" d="M36.7,33.7c0,0-.2.2-.2.2,0,0-.5,0-.5,0s.4.5.5.8,0,.6,0,.4c-.2-.5-.8-.9-.7-1.6.3.2.6,0,1,0Z"/>
  <path class="st0" d="M30.3,17.8c-.4,0-.5-.3-.9,0s0,.2-.3.2v-.6c.2,0,.9-.1,1,0,.2.1.1.3.1.5Z"/>
  <path class="st0" d="M26.3,17.7c0-.2-.4-.3-.6-.2s-.5.3-.5,0,.3-.3.4-.4c.3-.1.7-.1.9.1,0,0-.1.5-.3.4Z"/>
  <path class="st0" d="M37.6,30.2l-2,1.5c0,0,0-.2,0-.3,0-.1,1.3-.9,1.5-1.1h.5Z"/>
  <path class="st0" d="M54.4,18.8s.3,0,.3,0c-.2.1-.6.3-.7.5s-.5.6-.7.8-.3,0-.3,0,0,.2-.2.3-.2.2-.3.2l1.9-2.1s0,0,0,0Z"/>
  <path class="st0" d="M32.9,18v.4c-.4-.2-.8-.3-1.1.2,0-.2,0-.2.1-.2,0-.1.1-.4.2-.4.3,0,.5,0,.8.2Z"/>
  <path class="st0" d="M21.1,23.3c-.1.1,0,.4-.1.5-.2.5-.5,1-.7,1.5s0,.1,0,.2h.2c0,.1-.4.6-.3.2s.4-1.4.5-1.4.2,0,.2,0,0-.1,0-.2c0-.2.3-.5.2-.7h.1Z"/>
  <path class="st0" d="M43.3,18.6v.2c0,0,0-.1,0-.1.2.2.3.5.6.6v.2c.3,0,.2.2.3.3.2.2.5.4.6.6,0,0-.1,0-.2-.1-.3-.2-.5-.5-.8-.7s-.5-.6-.9-.8l.2-.2Z"/>
  <path class="st0" d="M34.2,21.1v.2c.1,0,0,0,0,0v.3s.1,0,.1,0c-.2.1-.3.6-.5.5-.2.3-.2-.2,0,0l.2-.5-.2.2c0,0,0-.2.1-.2s.2-.5.3-.4Z"/>
  <path class="st0" d="M36.7,30.3c0,.1-1,.8-1.1.8v-.2c.4-.1.6-.6,1.1-.6Z"/>
  <path class="st0" d="M49.2,38.4s.3,0,.3.1h-2.4c0-.3.4-.1.5-.1.5,0,1.1,0,1.6,0Z"/>
  <path class="st0" d="M43,38.5c0,0-.3,0-.3,0,.7,0,1.5,0,2.2,0,0,0,0,.1,0,.1-.6,0-1.2,0-1.8,0Z"/>
  <path class="st0" d="M21.4,33.5s-.1,0-.1,0v.3c0,0-.3.1-.3.1l.3-.3-.4.2.6-.7c.2-.2,0,.2,0,.3Z"/>
  <path class="st0" d="M33.4,22.2c0,0,.3,0,.3,0-.2.1-.4,0-.6.1s-.1.3-.4,0l.6-.4h0s0,.1,0,.1Z"/>
  <path class="st0" d="M21.8,24.6c-.3-.2-.4-.7-.6-1v-.2c.3.4.5.8.6,1.2Z"/>
  <path class="st0" d="M33.7,40.7c.3-.2.5-.5.7-.7s0-.1.1,0l-.8.9c-.1,0-.1-.1,0-.2h0s0,0,0,0c.2-.2.4-.5.7-.7l-.6.8Z"/>
  <path class="st0" d="M34.2,22.2c0,0-.2,0-.1,0l.5-.7v.3s-.3.4-.3.5Z"/>
  <path class="st0" d="M60.4,21.6c0,.1-.2,0-.3.2s0,.3-.2.4c-.2-.2,0-.3,0-.5h.5Z"/>
  <path class="st0" d="M40.1,38c0,.3-.2.5,0,.8h-.3s.1,0,.1-.2,0-.3,0-.5,0-.2.1-.1Z"/>
  <path class="st0" d="M23.2,17.2h-.1c.1-.4.3-.8.7-1.1l-.4.6-.2.5Z"/>
  <path class="st0" d="M34.3,22.3l.3-.5h.1c0,.2-.2.5-.3.5h-.2Z"/>
  <path class="st0" d="M23.2,17.9s-.3,0-.3,0-.2,0-.2,0l.5-.2c0,0,0,.2,0,.2Z"/>
  <path class="st0" d="M49.1,15.2c0,0,0-.2,0-.3,0-.3,0-.5,0-.8,0,0,0,0,0,.1,0,.3,0,.6,0,1Z"/>
  <path class="st0" d="M21.6,33.4l.3-.4c0,0,.1.4,0,.4s-.1,0-.3,0Z"/>
  <path class="st0" d="M64.2,38.6c0-.3.2-.5.4-.7,0,.2-.3.5-.4.7Z"/>
  <path class="st0" d="M46.3,38.5h-.5s-.4,0-.4,0c.3,0,.8-.2,1,0Z"/>
  <path d="M33.7,49.8c0,.2-.3,0-.4.1h.1c0,.1-1.5.2-1.5.2-1.3-.2-2.7,0-4,0l.9-.2c1,0,2,0,3,0s1.4,0,2.1-.1Z"/>
  <path d="M22.3,49.5c0,0-.2,0-.2,0-1.2.2-2.6,0-3.9.1s-.7,0-1,0c0,0,.3,0,.3-.1,1.6-.1,3.2,0,4.8-.1Z"/>
  <path d="M30.5,49.6h-.7c0,.1-3.2.2-3.2.2,0-.1,0,0,.1-.1.3-.2,1,0,1.4,0,.8,0,1.6,0,2.5,0Z"/>
  <path d="M26.9,50.1h-3.8c0,0,.1,0,.2,0,.9,0,1.8,0,2.6,0s.7-.2,1,0Z"/>
  <path d="M67.6,49.6c0,.2,0,0-.1.1-.2,0-.6,0-.8,0-1.1,0-2.3,0-3.4,0l1-.2c.9,0,1.8,0,2.7,0s.4,0,.6,0Z"/>
  <path d="M38.2,49.5h-.4c-.4,0-3.7.3-3.7,0h4.1Z"/>
  <path d="M41.6,49.9c0,0-.2.1-.2.1-.5,0-1,0-1.5,0h-1.8c0-.2,0,0,.1-.1.3,0,.5,0,.8,0,.7,0,1.6,0,2.2,0s.3-.1.4-.1Z"/>
  <path d="M62,49.7c0,.1,0,0,0,.1-.8.1-1.7,0-2.5,0,0-.1.1,0,.2-.1.4,0,1,0,1.3,0s.7,0,1.1,0Z"/>
  <path d="M25.9,49.6c0,0,0,0,0,.1-.3,0-.6,0-.9,0-.5,0-.9,0-1.3,0s-.2,0-.2,0h2.5Z"/>
  <path d="M59.2,49.8c-.3,0-.6,0-.9,0s-.4.1-.4,0c.2-.1.4,0,.5,0s.6,0,.7.1Z"/>
  <path d="M35.9,49.9c0,0-.1,0-.2,0-.3,0-.6,0-.8,0,0,0-.6,0-.6,0s.4,0,.5,0c.4,0,.7,0,1.1,0Z"/>
  <path d="M38,50s0,.1,0,.1h-.9s-.1,0-.2,0h0c0,0,1.1,0,1.1,0Z"/>
  <path d="M49.6,23.1h0c.2.7,0,1.5.1,2.3s.1,1.1,0,1.6c.2.1.3.3.3.5-.5,0-1.1,0-1.6-.1-.1-.1,0-.2,0-.4.2-1.2-.2-2.8,0-4s.3-.9.8-.5.1.5.3.6ZM49.3,22.9v4.1s.3,0,.3,0v-2.1c0,0,0,0,0,0v-.2c.1,0-.1.1-.1.1,0-.1.2-.2.2-.3s0-.9,0-1c0-.2-.2-.3-.1-.6h-.2ZM49.1,27.3c.2,0,.6,0,.9,0v-.2c-.4,0-.6,0-.9,0,0,0,0,0,0,.1Z"/>
  <path d="M54.5,27.4h-.8c0,0,0,.2,0,.2h1.3c0,.1,0-.1,0-.1h-.2s0,0,0,0v-4.2c.1,0,.1.2.2.3,0,.6,0,1.2,0,1.8s.1,1.4,0,2.1c.1,0,.2-.1.2,0v.4c-.3,0-1.3,0-1.5-.2s0-.5,0-.7c0-1.1,0-2.2,0-3.3s0-.7.2-.8c.7-.5.6,1.2.6,1.5s0,1,0,1.4,0,1.1,0,1.7Z"/>
  <path d="M43.5,27.1c0,.2.4,0,.5.1v.4c0,0-1.8,0-1.8,0-.2,0,0-.4,0-.6h.5s0-4.1,0-4.1c.2-1,1-.9,1.1,0s0,2.2,0,3.3.2.7-.3.6ZM42.9,24.2c0-.2.2-.3.3-.4s0-.4,0-.5l-.2.3h0c0,0,0-.1,0-.1v2.1c0,.5.1,1.1,0,1.6,0,.1.4,0,.5,0v-3.2c-.1,0-.4.3-.4.3ZM42.3,27.5h1.6v-.2c0,0-.1,0-.1,0h-1.4c0,0,0,.2,0,.2Z"/>
  <path d="M38.5,23.3s.1,0,.2.2c0,.5,0,1.2,0,1.7,0,.7,0,1.4,0,2.2h0c-.3,0-.6.3-.9.3s-.2-.2-.4,0l.2-.2v-3.6c0-.4-.1-.8.1-1.2s.8-.4.9.2,0,.4,0,.5ZM38.1,22.7c0,0-.2.1-.2.2-.5.7-.3,2-.2,2.8s0,1.2,0,1.7h.4c0,0,0-.1,0-.2,0-1.1-.1-2.6,0-3.6s.3-.5.4-.8c-.1-.1-.2.1-.2.2s-.2.1-.2.1l.2-.4Z"/>
  <path d="M49.9,19.9c.5.4,1.1.8,1.6,1.3s.2.2.2.3c0,2.4,0,4.8,0,7.2h-.2c0-.3,0-.6,0-.9,0-2,0-4-.2-6.1-.6-.7-1.3-1.3-1.9-2s0-.3-.3-.3c-.3,0-1.9,1.8-2.2,2v1.4c0,1.7.1,3.4,0,5.1s0,.5-.1.5c0-.2,0-.5,0-.7,0-1.7-.1-3.4-.1-5s0-.9,0-1.3.3-.4.5-.6c.6-.7,1.2-1.2,1.9-1.8.3.2.4.5.7.8ZM51.5,21.3c-.1-.2-.3-.4-.6-.5,0,0,.4.5.6.5Z"/>
  <path d="M58.8,28.6c-.3,0-1.2-.1-1.3-.3s0-.4.1-.6c0-.3,0-.6,0-.9,0-1-.2-2.4,0-3.4s1.4-.4,1.2.4-.2.3-.3.7c0,1.1,0,2.2,0,3.3,0,.2.1,0,.2.1.2,0,0,.4,0,.6ZM58.2,23.2h-.1s0,.2,0,.2h-.1s0-.1,0-.1c0,.1-.2.5.1.3v1.4c0,.9.2,1.9,0,2.8s0,.1-.1.2h.4c0-1.1,0-2.2,0-3.3s.2-1.1,0-1.3-.2,0-.1,0ZM58.8,28.1l-1.2-.2v.3c.4,0,.8.2,1.1.2s0-.2,0-.3Z"/>
  <path d="M54.4,19.9c.3.3.7.8,1,1.2s.8.8.9,1.1c0,.4,0,1,0,1.4,0,1.7,0,3.4,0,5.1,0,.2-.2.3-.2,0,0-.4,0-1.2,0-1.7,0-1.2,0-2.4,0-3.6s0-1.1,0-1.3-1.3-1.6-1.5-1.8-.2-.3-.3-.3c-.1,0-.6.7-.7.8-.3.3-.6.5-.8.9,0,.9,0,1.8.1,2.6s0,2.4,0,3.5.2.8,0,.9c0-.1,0-.3,0-.4-.2-2,0-4.3,0-6.3s0-.2,0-.3c0-.4,1.2-1.3,1.5-1.7.2-.1.2,0,.3,0Z"/>
  <path d="M48.1,22.2c0-.2.4-.5.5-.6,1.1-.5,1.8.6,1.5,1.5h-.2c.2-.7-.5-1.7-1.2-1.3s-.3.7-.5,1.1,0,0-.1,0c0-.3,0-.6,0-.9Z"/>
  <path d="M44.2,22.7s0,0,0,0c0,.1,0,.3-.1.4,0-.3,0-1-.5-1.1s-.4,0-.5,0c-.5,0-.8,1-.8,1.4,0,0,0,0-.1,0-.3-.7.2-1.7,1.1-1.6s.8.3.9.7,0,.3,0,.4Z"/>
  <path d="M55,23.4c0-.5-.2-1.3-.9-1.2s-.4.3-.5.5.2.5-.2.4c-.1-1,1-1.9,1.6-.7s.3.9,0,1Z"/>
  <path d="M60.4,24.3c0,0,0,.1-.1.2-.2,1.2,0,2.8.1,4s0,.8-.1.8c-.2-.3,0-.7,0-1.1,0-.9-.1-1.7-.1-2.6s0-.9,0-1.4h.2Z"/>
  <path d="M38.5,21.4c0,.2-.4.3-.5.4-.2.2-.4.5-.7.7s0,.1-.2.1c.3-.4.7-.8,1.1-1.1s.1-.1.2,0Z"/>
  <path d="M38.8,27.6c0,0-.1,0-.2.1-.2,0-.5,0-.8,0,0,0,.2-.1.3-.1.2,0,.5,0,.6,0Z"/>
  <polygon points="39.7 28.5 39.4 29.1 39.1 29.3 39.3 28.9 39.7 28.5"/>
  <path d="M36.7,29.6c.2-.2.4-.5.6-.7,0,0-.3.4-.3.5s-.2.3-.3.2Z"/>
  <path d="M59.8,42.3c0,.3,0,.6,0,.9,0,.7-.1,1.6,0,2.3s.2.2.1.4h-2.6c0-.1,0-.2,0-.2,0-.6,0-1.4,0-2.1s-.1-.8,0-1.2h2.5ZM58.9,42.6s0-.1,0-.1c-.4.1-.8,0-1.2.1v.2c0,0-.2,0-.2,0v-.2c.1,0-.2,0-.2,0v3.1h1.6c0-.3,0-.7,0-1s-.1-.5,0-.8h-.1c0,0,.1-.2.1-.2-.2,0-.2.4-.3.6,0,.4,0,.9,0,1.2h-.9c0-.8-.2-1.6,0-2.4.1,0,.2,0,.4-.1s.1,0,.2,0c.1,0,.2-.3.3-.2l-.2.2c.3,0,.3-.2.6-.3,0,.1-.2.2-.3.3.3,0,.4,0,.5.3v2.4c0,.1-.5,0-.6,0s-.2,0-.2,0h1s0,0,.1,0l.2-.2h-.2c0-.1.2-.2.2-.4h-.1s.1,0,.1,0c0-.2-.1-.2-.1-.2,0,0,0,0,0,0,0,0,0-1.5,0-1.7s-.1,0-.1-.1c0,0,.2-.4.1-.5h-.1c-.1,0-.4,0-.6.1Z"/>
  <path d="M61.2,46.9l-.2-.2v.2c-.1,0-.2-.1-.2-.1,0-1.4,0-2.8,0-4.2s0-2.9,0-4.2-.1-.6-.2-.9-.3-.8-.5-.7h0c-.3-.4-.6-.8-1-1s-.1,0-.1,0-.1-.2-.4-.2-.3.3-.5.3l.2-.3c-.8.2-1.5.8-1.7,1.6s0,.8-.1,1.2,0,.3-.2.3c-.3-1.4.6-3.5,2.3-3.3,2.4.2,2.6,3.2,2.5,5.1v6.5Z"/>
  <path d="M58.3,37c.9-.1,1.2.9,1.1,1.6s-.9,1.3-1.5.8-.5-.7-.5-.9c-.1-.6.3-1.4.9-1.5ZM57.7,38.9c0,0,.3.4.4.4.4.1.9-.1,1.1-.5s.3-.8,0-.8c-.1.8-.6,1.4-1.5.8Z"/>
  <path d="M67.3,37.2c0,0,.2.6.2.7,0,.4.1.9,0,1.3s0,.2-.1,0c0-.2,0-.4,0-.7s0-.2,0-.3c0-.1-.1-.4-.2-.6,0,0-.2,0-.2,0s0,0,.1,0c.3,1.1.1,3.3,0,4.4s0,0,0,.1-.1.2,0,.3h.2c0-.1-.2.8-.2.8h.2c0,0,0,0-.1.2,0,.4,0,1,.1,1.4h-.1c0-.2,0-.1,0,0,0,.2,0,.3,0,.4h.1c0,.3-.2.6-.1,1h.1c0,0,0,.1-.1.1,0,.1,0,.8,0,.8-.1,0,0-.1,0-.2.2-2.9,0-5.8-.1-8.7s0-.5,0-.7,0-.7.3-.6Z"/>
  <path d="M53.1,33.9c0,0-.3.2-.3.2-.1,0-.5,0-.6,0s-.4.2-.5.3-.1,0-.2.1c-.2.1-.5.2-.7.3,0-.1,0,0,.1-.1.3-.2,1-.5,1.3-.6s.6,0,.9-.1Z"/>
  <path d="M51.1,34.2c-.3.3-.8.5-1.2.7l1-.6h.2Z"/>
  <path d="M58.7,39.6v.4s-.2,0-.2,0c-.1,0,0-.3,0-.4h.3Z"/>
  <path d="M52.2,33.8c0,.2-.4,0-.5.1s-.3.2-.4.1v-.2c0,0,.8,0,.8,0Z"/>
  <path d="M51.1,33.9c0,0-.1,0-.2,0-.2,0-.4,0-.6,0,0-.1,0,0,.1-.1.2,0,.5,0,.7,0Z"/>
  <path d="M54.9,33.9c0,0,0,.1-.1.1-.2.1-.4.2-.6.2,0,0,.2-.1.3-.2s.4-.2.4-.2Z"/>
  <path d="M25.2,35.4h-1c0-.3,0-.7,0-1,0-.6-.1-1.7.2-2.2s.5-.2.7,0c.2,1,0,2.1,0,3.2ZM24.6,32.9s0-.2,0-.2v.2c-.1,0-.3,0-.3,0v.5c.2,0,0-.3,0-.3s.1,0,.1,0ZM24.6,35.2c0-.6,0-1.3,0-1.8,0,0-.3.4-.3.4v1.5h.4c0,0,0-.1,0-.1Z"/>
  <path d="M25.3,32.7c0-.1.1-.2,0-.4h-.1s.1-.3.1-.3l-.2.2c0-.2.1-.3,0-.5l-.3.3.2-.4-.3.2.2-.3c-.3,0-.2,0-.2.2s0,.1-.1.2v-.3c-.2,0-.2.2-.2.2s-.1,0-.2,0c-.2,0-.3.6-.3.8,0,0-.1,0-.1,0,0-.2.2-.8.3-.9.7-1,1.9,0,1.5,1h-.2Z"/>
  <path d="M23.7,28.3c0,0,0-.2,0-.2s.4-.5.5-.5c0,0,.3-.1.3,0h-.1s-.4.5-.4.5c.5,0,1.1-.1,1.7-.1,0,0-.2.2-.2.2s-.7.1-.8.1h-.8Z"/>
  <path d="M26.5,24.9h-1.1c0,0-.3.1-.4,0,0,0,.2,0,.2,0,.4,0,.9,0,1.3-.2v.2Z"/>
  <polygon points="26.9 25.1 26.3 25.2 25.5 25.2 25.9 25.1 26.9 25.1"/>
  <path d="M19.1,37.8l-.2.3-.4.4c0-.1.6-.8.7-.7Z"/>
  <path d="M19,37.5c-.2.2-.4.4-.6.6s0,.1-.2.1c.2-.2.5-.6.8-.7Z"/>
  <path d="M28.6,36.8c0-.1.2-.3.3-.4s.2-.2.3-.3c0,0,0,.1-.1.2-.2.2-.3.4-.5.5Z"/>
  <path d="M43.2,45c0-.3,0-.7,0-1.1,0-.5,0-1.1.3-1.5s1.1-.2,1.1.4,0,1.3,0,1.9.1.3,0,.3-.1,0-.2,0c-.4,0-.8,0-1.2,0ZM43.6,43c-.1,0,0,0-.1.1,0,.4,0,.7,0,1.1s0,.3,0,.5h.5c-.1-.1,0-.3,0-.4s-.1-.1-.1-.3,0-.3,0-.5h0c0,0-.1,0-.1,0v-.6Z"/>
  <path d="M52.1,45h.1c.1-.1.1,0,0,.2,0,.2-1,.3-1.1-.2s0-1.9,0-2.4.2-.7.4-.8.5.4.5.7c0,.8,0,1.7,0,2.5ZM51.8,42.6c0-.1,0-.3,0-.4-.2,0,0,.3,0,.5s0,2,0,2.1.2,0,.1,0c0,.2-.4-.1-.5.2h.5c0,0,0,0,0,0,0-.7,0-1.6,0-2.3s0,0,0,0ZM51.3,44.4c0-.4,0-.8,0-1.2,0,0,0,.9,0,1s0,.3.1.3Z"/>
  <path d="M42.9,42.9v2.4c0,0,2.2,0,2.2,0v-.3s-.1.1-.1.1v-1.5c0,0,0,.1,0,.1h.1s0-.4,0-.4h-.1s0-.2.2-.2v2.2c.1,0,.3,0,.3,0l-.3.3v-.3c-.7,0-1.6-.1-2.4.1,0,0,0-.2,0-.3,0-.5,0-1.8.1-2.2s0-.2.1-.1Z"/>
  <path d="M45.2,43v-.4c-.2-.3-.4-.7-.7-.8s-1.1,0-1.4.3-.1.4-.4.5c.1-1.7,3-1.3,2.5.4Z"/>
  <path d="M46.7,43.2h-.2c0-.1,0-.2,0-.3,0-.6,0-1.4,0-2v-1s-.3,0-.3,0c0-.1.2-.2.2-.3s0-.3,0-.3h0c0,.1,0,3.8,0,3.8Z"/>
  <path d="M46.7,47.2c0,0,0,0,0-.1,0-.4,0-.9,0-1.3,0-.6,0-1.3,0-2s-.1-.4,0-.5v3.9Z"/>
  <path d="M44,46h0c0,.1.2,0,.2,0-.3.3-.6.4-1,.6s-.5.5-.9.6l.5-.4,1.3-.9Z"/>
  <path d="M43.1,45.8l-1.7,1.2c.5-.5,1.1-1,1.7-1.2Z"/>
  <path d="M42.5,42.3l-1.4,1.1c0,0,.1-.2.2-.3.3-.2.7-.5,1-.7s.2-.1.3-.1Z"/>
  <path d="M45.6,38.7c0,.1,0,0-.1.1-.3.1-.7,0-1,.2.2-.5.8-.2,1.1-.4Z"/>
  <path d="M46.4,45.8l-1,.7c0-.1,0-.1.1-.2.2-.2.6-.5.9-.6Z"/>
  <path d="M42.3,44.5l-1,.7c0,0,.2-.2.2-.3.2-.2.5-.4.8-.5Z"/>
  <path d="M43.8,45.9h-.1c0,.1-1,.7-1,.7.3-.3.7-.6,1.1-.7Z"/>
  <path d="M41.8,40l-.8.8c0-.1.2-.3.3-.4s.3-.3.5-.4Z"/>
  <path d="M42,41.1c-.1.2-.4.4-.5.5s-.2.2-.3.2c0-.1.2-.2.3-.3.2-.1.4-.3.6-.4Z"/>
  <path d="M45.6,40.5c0,0,0,.1,0,.1-.3.2-.6.4-.8.6,0-.1,0-.1.1-.2.1-.1.3-.3.5-.4s.3-.2.3-.2Z"/>
  <path d="M43.9,46.7c-.3.1-.6.5-.9.6.3-.3.6-.4.9-.7h0Z"/>
  <path d="M43,40.4c-.1.2-.4.4-.6.5s-.1,0-.2,0c.3,0,.5-.4.8-.4Z"/>
  <path d="M46.2,42.5c0,.1-.2.2-.3.3s-.5.3-.5.3l.2-.2.6-.4Z"/>
  <polygon points="46.2 43.5 46.1 43.7 45.5 44.1 46 43.6 46.2 43.5"/>
  <path d="M45.7,40.9v.2c-.1,0-.7.4-.7.4,0,0,.2-.3.3-.3s.3-.3.4-.3Z"/>
  <path d="M41.8,44.5l-.7.5c0-.1,0-.1.1-.2.1-.1.4-.3.6-.3Z"/>
  <path d="M46.8,17.5c-.2-.1-.3,0-.4,0s-.2,0-.3,0-.3.2-.5.1c0-.2,0-.1.1-.2,0-.8,0-1.9,0-2.8s0-.3,0-.5c0-.7,1-1.1,1.1-.2s0,1.7,0,2.4,0,.7,0,1.1ZM46,14.5v3c.1,0,.2,0,.2-.1,0-.8,0-1.7,0-2.5s0-.3,0-.5c0,0-.2,0-.2.1Z"/>
  <path d="M44.5,17.5c-.4,0-.6.2-.9.3,0,0,.2,0,.2-.2,0-.1-.2,0-.2-.2h.2s-.2,0-.2,0v-.3c0,0,.3,0,.3,0,0-.1,0-.2-.1-.3v-.2c.1,0,0,0,0,0,.1-.3.2-1.2.1-1.6s0-.3,0-.5h-.1c-.2-.1,0-.3.1-.5l-.3.3c0,.7,0,1.4,0,2.1s0,.9-.1.9-.2.1-.2,0h.1c0-.1-.2-.2-.2-.2,0-.8,0-1.6,0-2.4s0-.4,0-.7.3-.6.6-.8c.5-.1.6.7.6,1,0,.7,0,1.5,0,2.2s0,.6.1.9Z"/>
  <path d="M51.8,17.8c-.2,0-.2-.2-.3-.2s-.2,0-.3,0c-.1,0,0-1.1,0-1.3,0-.4,0-.9-.1-1.4s0-.3,0-.4l-.2.3v2.5s.2.2.2.2h-.4c0,0,0-3.6,0-3.6h.2c0-.6.6-.5.8,0v3.5c0,0,.2.3.2.3ZM51.5,17.1c0-.4,0-.7,0-1.1s0,0-.1,0c0,.5,0,1,0,1.6.2,0,0-.3,0-.4Z"/>
  <path d="M43.4,12.4c0,.2,0,0-.1.1-.2,0-.4,0-.6.1-.4.2-.7.8-1.1,1.1h0c.2.2.4.4.5.6v3.3c0,.3-.4.5-.8.5-.1-.6,0-1.2,0-1.8s-.2-2.1.1-2.5.1,0,.2-.1c.4-.4.7-.8,1.1-1.1h.7ZM41.5,14.4h-.1s0,3.4,0,3.4h.3s0-.5,0-.6c0-.7.1-1.7,0-2.4s-.1,0-.1-.1c0-.2.1-.2,0-.4Z"/>
  <path d="M40.3,15.6s0,0,0,0c0,0,0,0,0,.1,0,.2,0,.5,0,.7,0,.6,0,1.3,0,1.9h-.2c0,0,0,.2,0,.2h-.1c0-.2-.2,0-.3-.2h0c0-.1,0-3.4,0-3.4l.2-.6c.7-.4.4,1,.5,1.2ZM39.9,17.1v-2s.2-.1,0-.2h-.1c0,0,0,1.3,0,1.3v.9Z"/>
  <path d="M42.8,12c-.3.3-.6.5-.8.8s-.5.5-.7.7-.5.7-.8,1,0,0-.2,0l1.8-1.9c.3-.2.4-.5.8-.6Z"/>
  <path d="M48,12.2c0,0-.2,0-.2.1-.2,0-.4,0-.6,0-.6,0-1.2,0-1.7,0l.8-.2h1.8Z"/>
  <path d="M40.9,12.4c0,.1,0,.1,0,.2-.4.5-.9,1-1.2,1.5l-.3.3c0-.1.2-.3.3-.4.3-.3.6-.7.9-1s.2-.5.4-.5Z"/>
  <path d="M42.3,12.1l-2,2c0-.2.4-.5.5-.7.3-.3.8-.8,1.1-1.1s.2-.2.4-.2Z"/>
  <path d="M48,12.6h-2.4c0,.1.4,0,.4,0,.6,0,1.3-.2,1.8-.1s.2,0,.2.1Z"/>
  <path d="M41.4,12.3c0,0-1.1,1.1-1.1,1.2.2-.5.7-.7,1-1.1h.2Z"/>
  <path d="M47.2,11.6s0,0,0,.1c-.5,0-.9,0-1.3,0,0-.2.2-.1.3-.1.2,0,.8,0,1,0Z"/>
  <path d="M38.7,14.1c0-.1.7-.9.8-.8l-.5.7-.2.2Z"/>
  <path d="M39.3,14.9c-.1,0,0-.2,0-.2.1-.3.4-.5.6-.7l-.6.9Z"/>
  <path d="M45.6,11.5c-.2.2-.6.1-.9.3,0-.1,0,0,.1-.1.2-.1.5-.1.8-.2Z"/>
  <path d="M39.7,13.5l.6-.8c0,.3-.4.6-.6.8Z"/>
  <path d="M38.8,14.4c.1-.3.4-.6.7-.8,0,.2-.2.3-.3.4s-.2.3-.4.4Z"/>
  <path d="M42.1,13.8s-.1,0-.1,0l.6-.6c0,.2-.3.4-.5.6s0,.1,0,.1Z"/>
  <path d="M34.1,27s0,0-.1,0c-.1.9.2,2,0,2.9s0,.2-.1.2c0-1,0-2,0-3s.5-.1.5.3c.1.8,0,1.8,0,2.7,0,.2-.2,0-.3,0h.2c0,0,0-1.1,0-1.1h-.1c.2-.4,0-.9.1-1.4l-.2.3c0-.2,0-.6,0-.8Z"/>
  <path d="M34.3,33.3c0,0,0,.1-.1.2,0,.5,0,1,0,1.5s-.1.2-.1.3c0,.3.4.3.4.5,0,0-.5-.2-.5-.3s0-.5,0-.5c0-.1,0-.2,0-.3,0-.4,0-1.1,0-1.5s.4-.3.4,0c0,.7,0,1.6,0,2.3,0,0-.1,0-.1,0v-2.2Z"/>
  <path d="M30.9,26.4l-.3-.2v3.3c0,.2-.6-.1-.8,0,0-.2,0-.4,0-.5,0-.7,0-1.4,0-2.1s0-1.1.2-1.1c.3.1.1.6.1.8,0,.9,0,1.9,0,2.8h.3c.1-.8,0-1.7,0-2.6s.1-.9,0-1.3h-.2c0,0,0-.1,0-.1-.2,0-.4,0-.5.1s-.1.5,0,.7h-.2c0-.5.3-1.5.9-1s.3.8.4,1.3Z"/>
  <path d="M46.3,9.8c-.6,0-1.1.1-1.7.2s-.2,0-.2,0c.5,0,1-.2,1.5-.2s.4,0,.4.1Z"/>
  <path d="M46.1,8.3c0,0-.1,0-.2.1-.7,0-1.4,0-2,.5s0,.1,0,.2c-.2,0,0-.2-.1-.1,0,.2-.3.2-.5.2l.8-.4c.1-.2.4-.3.7-.3.4,0,.9,0,1.3-.1Z"/>
  <path d="M48,9.9c0,0-.2,0-.3,0-.5,0-1,0-1.6,0h.5c0-.1,1.3-.1,1.3-.1Z"/>
  <path d="M46.3,9.4l-1.4.2h-.2s.4-.1.4-.1c.4,0,.8-.2,1.2,0Z"/>
  <path d="M46.6,7.2l-1.8.2c0,0,.1,0,.2-.1.5,0,1.1-.1,1.6-.1Z"/>
  <path d="M45.2,9.2c0,.1,0,0,0,.1-.3,0-.7,0-1.1.2,0-.2,0,0,.1-.1.2,0,.5,0,.7-.1s0,0,0-.1c0,0,.2,0,.3,0Z"/>
  <path d="M42.5,9.9c-.1.2-.5.3-.7.4s0,.2-.1.2c-.2.2-.7.3-.9.4,0-.1.1-.1.2-.2.3-.2.6-.4.9-.6s.4-.3.6-.3Z"/>
  <path d="M46.3,8.1h-1.2s.1,0,.2,0c.2,0,.7-.1.9-.1s.2,0,.2.1Z"/>
  <path d="M43.9,8.2s0,.1.2,0c0,.2-.2,0-.3,0s-.2,0-.2.1,0-.2-.2-.1c0-.1.4-.2.6-.1Z"/>
  <path d="M46.3,6.9c0,.1,0,0,0,.1-.3,0-.6,0-1,.1,0-.2,0,0,.1-.1.3,0,.6-.1.9-.1Z"/>
  <path d="M46.1,8.7h-1.1c0,.1,0,0,0,0,0,0,.2,0,.3,0h.9Z"/>
  <path d="M46.5,9l-1,.2h-.1c.1,0,.3-.2.4-.2h.8Z"/>
  <path d="M45,10.1c0,.2,0,0-.1.1-.4,0-.7,0-1.1.1,0,0,.1,0,.2,0,.3,0,.7,0,1-.1Z"/>
  <path d="M43.6,8.6l-.9.7h-.3c0,0,.5-.4.6-.3h-.1c.3-.1.3-.5.7-.4Z"/>
  <path d="M44.7,8.8c0,.2,0,0-.1.1-.2,0-.4.1-.6,0,0-.2,0,0,.1-.1.2,0,.4,0,.6,0Z"/>
  <path d="M44.5,7.6l-.7.5c.2-.2.4-.5.7-.5Z"/>
  <path d="M25.8,12.4c0,0,.4-.2.3,0-.7,0-1.4,0-2,.2s-.2.1-.4.1-.1,0,0,0,.2,0,.3-.1c.2,0,.7-.2.8-.2.3,0,.6,0,.9,0Z"/>
  <path d="M26.6,10.9c0,0,0,0,0,.1-.3,0-.7,0-1.1,0s-.4.2-.7.1c0-.1.1,0,.2-.1.5-.1,1.1-.1,1.7-.1Z"/>
  <path d="M26.3,11.6c0,0-.1,0-.2,0-.3,0-.6,0-.9,0s-.7.2-1,.2c0,0,.1,0,.2,0,.6-.1,1.3-.2,1.9-.2Z"/>
  <path d="M27.2,10h-.4c-.5,0-1.1.2-1.6.2l.7-.2h1.3Z"/>
  <path d="M25.6,12l-.5.2c-.4,0-.9.1-1.3.2h.4c0-.1,1.4-.4,1.4-.4Z"/>
  <path d="M26.8,9.6s.2-.1.2,0c-.5.1-1,.1-1.6.2-.1,0,.5-.2.5-.2.3,0,.5,0,.8,0Z"/>
  <path d="M25.7,11.3c0,0,0,0-.1,0-.3,0-.7,0-1,.2h-.2c.4-.2.8-.3,1.3-.3Z"/>
  <path d="M27,9.2h-1.1c0,0,.4-.1.6-.1s.5,0,.5.1Z"/>
  <path d="M26.9,8.6c0,.2.4,0,.5.2h-1.1c0-.2.6-.2.7-.2Z"/>
  <path d="M40.5,44.2c0,.1,0,.1-.1.2-.3.3-.5.5-.8.8-.7.6-1.4,1.2-2.1,1.8,0,0,0-.2.1-.2.5-.5,1.4-1.1,2-1.7s.5-.5.8-.8,0-.1.2-.1Z"/>
  <path d="M39.5,42.5l-2,1.6c.5-.6,1.2-1,1.8-1.6h.2Z"/>
  <path d="M39,45.2c0,0-.1,0-.2,0-.3.3-.6.6-.9.8s-.2.2-.3.2l1.4-1.2v.2Z"/>
  <path d="M39.7,46.1c0,0-1.2,1.1-1.4,1h.1c0-.1,1.3-1,1.3-1Z"/>
  <path d="M40.1,35.9l-.8.6-.5.2c.4-.3.8-.6,1.3-.8Z"/>
  <path d="M37.7,38.5s-.2.1-.2,0l.7-.6c0,0-.4.4-.4.4s0,.1,0,.2Z"/>
  <path d="M38.3,40c-.2.2-.4.4-.6.6s0,.1-.2.1c0,0,.4-.4.5-.5,0,0,.2-.2.4-.2Z"/>
  <path d="M40.6,37.7c0-.2.2-.2.2-.3s0-.3.2-.3c.2.2-.4.7-.4.6Z"/>
  <path d="M39.9,44.2c0,0-.5.5-.6.5,0,0,.1-.1.2-.2s.4-.3.4-.3Z"/>
  <path d="M39.4,45.6c-.2.2-.4.4-.6.6s0,.1-.2.1c.1-.1.2-.3.4-.4s.3-.2.4-.3Z"/>
  <path d="M39.7,44.1c0,0-.1.1-.2.2,0,0,0,0,0-.1.1-.2.5-.4.6-.6,0,.2-.3.4-.4.5Z"/>
  <path d="M38.3,46.5s-.5.6-.6.6c0,0,.5-.6.6-.6Z"/>
  <path d="M24.8,15c-.2.4-.6.5-1,.7.1-.2.4-.3.6-.4s.3-.3.4-.3Z"/>
  <path d="M25.3,14.8c0,.1-.7.8-.8.7l.2-.3.6-.4Z"/>
  <path d="M24.8,15.6c0,0,.6-.6.7-.7v.2c-.1,0-.7.4-.7.4Z"/>
  <path d="M23.7,14.5c0,.1-.2.1-.3.2-.2.1-.3.3-.5.4.1-.3.4-.6.8-.6Z"/>
  <path d="M39,34.7c-.3.2-.5.5-.8.7s-.3.3-.4.3c.3-.3.7-.8,1.2-1Z"/>
  <path d="M38.9,35.4c.3-.4.5-.7.9-.9.1.1-.5.5-.6.5,0,.1-.1.4-.4.4Z"/>
  <path d="M38.4,34.7l-.8.8c0-.2.2-.4.4-.5s.3-.3.5-.3Z"/>
  <path d="M43.8,34.8c-.3.2-.5.6-.9.7.3-.2.5-.6.9-.7Z"/>
  <path d="M42.6,35c-.2.2-.4.4-.6.6s0,.1-.2.1c.2-.3.5-.5.8-.7Z"/>
  <path d="M46.7,47.9l-1.7,1.2s.8-.7.8-.8c.2-.2.6-.4.8-.4Z"/>
  <path d="M43.4,47.8l-1.2,1c0,0,.4-.5.5-.5.2-.2.5-.4.7-.5Z"/>
  <path d="M41.3,49s.6-.6.6-.6c0,0,0,0,.2,0l-.8.6Z"/>
  <path d="M52.7,47.9h-.5c0,0-.4,0-.4,0,0-.1,0,0,.2,0,.2,0,.6,0,.8,0Z"/>
  <path d="M43.1,48.6c-.2.2-.5.4-.7.5.2-.2.5-.4.7-.5Z"/>
  <path d="M44.2,47.9c-.2.2-.5.4-.8.5.2-.2.5-.4.8-.5Z"/>
  <path d="M32.6,47.8s.3,0,.3.1c-.2,0-.4,0-.6,0s-.5.1-.5,0c.3,0,.5,0,.8,0Z"/>
  <path d="M35.2,42.8s-.3.5-.4.5,0,.1-.2.1c0,0,.3-.5.3-.5s.1-.1.2-.1Z"/>
  <path d="M34.6,43.1c.1-.3.4-.5.6-.8,0,.3-.3.6-.6.8Z"/>
  <polygon points="34.7 40.3 34 40.9 34.5 40.4 34.7 40.3"/>
  <path d="M21.3,26c0,.1,0,.2,0,.2h.2c0,0-.1,0-.2.3,0,.4,0,.9,0,1.4h.1c-.3.7,0,1.6-.1,2.2s-.2.2-.2.3c-.1,0-.1-.3-.2-.3s-.2.5-.5.5c0,0,.2-.4.2-.5.3-.7.2-1.2.2-1.9h-.2c0,0,.3-.1.2-.4h-.2c.3-.3.1-.8.1-1.2s0-.8.4-.7ZM21.2,29.4c-.1,0,0,0-.1,0,0,.2,0,.3,0,.5.4,0,0-.3.1-.6Z"/>
  <path d="M21.3,32.1c0-.1.2-.3.2-.4s.2-.1.3-.2c0,0-.4.5-.5.6Z"/>
  <polygon points="44.3 37.5 43.3 37.9 43.1 38 43.8 37.6 44.3 37.5"/>
  <path d="M43.1,37.5c-.3.2-.7.4-1.1.4l.8-.4h.3Z"/>
  <path d="M46,36.8c-.1-.1.5-.3.5-.3s.1,0,.2,0l-.7.3Z"/>
  <path d="M27.3,22.3c0,0-.3.1-.4,0,0,0,.2,0,.2,0,.5,0,1.1,0,1.6-.1,0,0-.4.2-.4.2-.3,0-.7,0-1,0Z"/>
  <path d="M26.5,21.7c-.2,0-.4,0-.6,0s-.2,0-.2,0c.1,0,.3-.1.4,0s.1,0,.2,0c0,0,.3-.1.2,0,.1,0,.4,0,.5,0s0,0,0,.1c-.5,0-1,.2-1.5.3-.1-.1.4-.2.4-.2.1,0,.4-.1.5-.1Z"/>
  <path d="M28.4,22.5c0,0,0,0,0,.1-.4,0-.8,0-1.2,0,0,0,.1,0,.2-.1.3,0,.7,0,1.1,0Z"/>
  <path d="M28.7,21.7c0,.1,0,0-.1.1-.2,0-.6,0-.8,0h.9Z"/>
  <path d="M27.9,23.1s-.1.2-.2.2c-.1,0,0-.1-.1-.1s-.3.2-.4.2c0-.2.5-.1.4-.4h.3Z"/>
  <path d="M32.1,34.6h-2c0-.1-1-.2-1-.2.5,0,1.1,0,1.6,0s.9,0,1.2.1.1,0,.1,0Z"/>
  <path d="M26,13.6c0,0-.2,0-.3,0-.4,0-.7,0-1.1.1,0,0,0,0,.1,0,.4-.1.8,0,1.3-.1Z"/>
  <path d="M21.2,25.7c.2-.2.3-.6.6-.8,0,.3-.3.4-.4.6h-.2Z"/>
  <path class="st0" d="M49.3,22.9h.2c0,.2.1.3.1.5s0,.9,0,1c0,.1-.2.2-.2.3h.2c0-.1-.1.1-.1.1h.1c0,0,0,2.2,0,2.2h-.3s0-4.1,0-4.1Z"/>
  <path class="st0" d="M49.1,27.3s0,0,0-.1c.3,0,.6-.1.9,0v.2c-.2,0-.6,0-.9,0Z"/>
  <path class="st0" d="M42.9,24.2l.3-.3v3.2c0,0-.3,0-.4,0,.1-.5,0-1.1,0-1.6v-2.1s0,0,0,0h0c0,0,.2-.2.2-.2,0,.1,0,.4,0,.5s-.3.2-.3.4Z"/>
  <polygon class="st0" points="42.3 27.5 42.3 27.4 43.8 27.3 43.8 27.3 43.9 27.5 42.3 27.5"/>
  <path class="st0" d="M38.1,22.7l-.2.4s.2,0,.2-.1c0,0,.1-.3.2-.2-.1.3-.3.5-.4.8-.1,1,0,2.6,0,3.6s0,.2,0,.2h-.4c0-.6,0-1.2,0-1.7,0-.9-.3-2.1.2-2.8s.2-.2.2-.2Z"/>
  <path class="st0" d="M51.5,21.3c-.1,0-.6-.4-.6-.5.2,0,.4.3.6.5Z"/>
  <path class="st0" d="M58.2,23.2c0,.1,0,0,.1,0,.2.2,0,1,0,1.3,0,1.1,0,2.2,0,3.3h-.4c0-.1,0-.2.1-.3.1-.8,0-1.9,0-2.8v-1.4c-.4.1-.2-.2-.2-.3h0c0,.1.1.1.1.1h0c0-.1.1-.2.1-.2Z"/>
  <path class="st0" d="M58.8,28.1c0,0,0,.3,0,.3-.4,0-.7-.1-1.1-.2v-.3s1.2.2,1.2.2Z"/>
  <path class="st0" d="M58.9,42.6c-.3,0-.3.3-.6.3l.2-.2c-.1,0-.2.1-.3.2s-.1,0-.2,0c-.1,0-.2,0-.4.1-.2.8,0,1.6,0,2.4h.9c.2-.3,0-.8,0-1.2s0-.5.3-.6v.2c-.1,0,0,0,0,0,0,.2,0,.5,0,.8s0,.7,0,1h-1.6v-3.1h.3s-.1.2-.1.2h.1c0,0,0-.1,0-.1.4,0,.8,0,1.2-.1,0,0,0,0,0,.1.2,0,.5-.1.6,0h.1c0,0-.1.3-.1.4s0,0,.1.1c0,.2,0,1.6,0,1.7s0,0,0,0c0,0,.2,0,.1.2h-.1c0,0,.1,0,.1,0,0,.2,0,.2-.2.4h.2s-.2.3-.2.3c0,0-.1,0-.1,0h-1c0,0,.1,0,.2,0,.1,0,.7,0,.7,0v-2.4c-.1-.3-.2-.4-.5-.3,0-.1.2-.2.3-.3Z"/>
  <path class="st0" d="M57.7,38.9c.8.6,1.3,0,1.5-.8.3,0,0,.6,0,.8-.2.4-.6.6-1.1.5s-.5-.4-.4-.4Z"/>
  <path class="st0" d="M24.6,35.2s0,0,0,0h-.4c0,0,0-1.5,0-1.5,0,0,.2-.4.3-.4,0,.6,0,1.3,0,1.8Z"/>
  <path class="st0" d="M24.6,32.9s-.1,0-.1,0c0,0,.2.4,0,.3v-.5s.2,0,.2,0v-.2c.1,0,0,.2,0,.2Z"/>
  <path class="st0" d="M43.6,43v.6c0,0,0,0,0,0h0c0,.2,0,.4,0,.6s.1.2.1.3c0,.1,0,.3,0,.4h-.5c0-.2,0-.4,0-.5,0-.4,0-.8,0-1.1s0-.2.1-.1Z"/>
  <path class="st0" d="M51.8,42.6s0,0,0,0c0,.7,0,1.6,0,2.3h0c0,.1-.5,0-.5,0,0-.3.4,0,.5-.2s-.1,0-.1,0c0,0,0-1.8,0-2.1s-.2-.4,0-.5c0,.1,0,.3,0,.4Z"/>
  <path class="st0" d="M51.3,44.4c-.1,0-.1-.2-.1-.3s0-1,0-1c0,.4.1.8,0,1.2Z"/>
  <path class="st0" d="M46,14.5s.2-.2.2-.1c0,.2,0,.3,0,.5,0,.8,0,1.7,0,2.5,0,.1,0,.1-.2.1v-3Z"/>
  <path class="st0" d="M51.5,17.1c0,0,.2.4,0,.4,0-.5,0-1,0-1.6,0,0,.1,0,.1,0,0,.4,0,.7,0,1.1Z"/>
  <path class="st0" d="M41.5,14.4c.2.2,0,.2,0,.4s0,0,.1.1c0,.7,0,1.7,0,2.4s.1.5,0,.6h-.3s0-3.4,0-3.4h.1Z"/>
  <path class="st0" d="M39.9,17.1v-.9c-.1,0,0-1.2,0-1.2h.1c.1,0,0,0,0,0v2Z"/>
  <path class="st0" d="M21.2,29.4c0,.2.3.6-.1.6,0-.2,0-.3,0-.5s0,0,.1,0Z"/>
</svg>