<?xml version="1.0" encoding="UTF-8"?>
<svg id="Layer_2" data-name="Layer 2" xmlns="http://www.w3.org/2000/svg" viewBox="0 0 86.1 51.7">
  <defs>
    <style>
      .cls-1 {
        fill: #fff;
      }

      .cls-2 {
        fill: #030303;
      }
    </style>
  </defs>
  <path class="cls-1" d="M32.86,16.66c.25,0,.44.2.44.44s-.2.44-.44.44-.44-.2-.44-.44.2-.44.44-.44Z"/>
  <path class="cls-1" d="M32.44,20.04c-.28-.08-.46-.36-.38-.63s.36-.43.65-.35c.28.08.46.36.38.63s-.36.43-.65.35Z"/>
  <path class="cls-1" d="M32.07,21.85c.24,0,.44.2.44.44s-.2.44-.44.44-.44-.2-.44-.44.2-.44.44-.44Z"/>
  <path class="cls-1" d="M32.32,24.43c.15-.19.42-.23.6-.08.18.14.2.41.05.6-.15.19-.42.23-.6.08-.18-.14-.2-.41-.05-.6Z"/>
  <circle class="cls-1" cx="31.68" cy="26.58" r=".5"/>
  <path class="cls-2" d="M43.45,6.25s-.05.01-.06,0c-.78-.27-1.56-.63-2.34-1.09-.77-.46-1.44-1.26-1.39-2.21.05-1.02.98-1.56,1.95-1.36.14.03.36.13.67.31,0,0,0,0,.01,0,0,0,0,0,0,0,0,0,.01,0,.01,0,0,0,0,0,0-.01.18-.31.33-.51.43-.6.75-.65,1.82-.63,2.36.23.51.8.32,1.83-.12,2.61-.45.78-.95,1.48-1.5,2.1,0,0-.02.01-.05.02Z"/>
  <path class="cls-2" d="M33.54,6.45l.28.02s.02,0,.04,0c2.38.65,5.14,1.33,8.26,2.04.59.13.46.61.35,1.12-.41,1.99-.76,3.7-1.03,5.15-.45,2.35-1.04,5.2-1.79,8.54-.2.91-.47,1.85-.79,2.82-.6,1.78-1.64,3.3-3.09,4.47-.96.77-1.87,1.38-2.36,2.55-.16.4-.31.88-.45,1.46-.72,3.12-1.3,5.82-1.77,8.1-.24,1.2-.48,2.41-.16,3.62.43,1.67,1.75,2.03,3.24,2.64.39.16,1,.56.93,1.04-.09.62-.75.77-1.32.7-2.55-.29-5.03-.79-7.46-1.39-.7-.17-1.36-.36-1.96-.57-.8-.27-1.2-1.2-.34-1.7.46-.27,1.17-.17,1.8-.11,1.69.16,3.01-1.06,3.5-2.62.23-.72.43-1.54.62-2.44.01-.07.51-2.48,1.48-7.23.08-.37.14-.81.2-1.3.12-1.03-.09-1.91-.55-2.77-.44-.81-.73-1.37-.88-1.69-.73-1.56-1.01-3.16-.85-4.81.07-.68.22-1.62.47-2.83,1.08-5.25,2.14-9.95,3.16-14.09.04-.16.1-.34.18-.54.05-.12.17-.2.31-.19Z"/>
  <path class="cls-2" d="M52.48,6.51c.25-.06.53-.02.6.26.23.94.39,1.62.48,2.04,1.04,4.65,1.87,8.59,2.52,11.8.28,1.4.45,2.5.52,3.3.11,1.24,0,2.44-.3,3.61-.27,1-.74,1.91-1.24,2.91-.73,1.45-.73,2.77-.43,4.32.33,1.71.78,3.92,1.34,6.65.19.92.41,1.81.66,2.66.35,1.22,1.01,2.3,2.22,2.82.73.31,1.52.24,2.37.15.61-.06,1.2.2,1.26.86.09.97-1.69,1.3-2.42,1.48-1.26.31-2.71.62-4.36.93-1.4.26-2.61.45-3.64.55-.28.03-.52-.02-.73-.13-.44-.25-.49-.79-.14-1.15.48-.48,1.15-.69,2.1-1.12,1.55-.71,2.09-2.15,1.93-3.77-.07-.73-.25-1.78-.54-3.15-.62-2.9-1.13-5.24-1.52-7.03-.29-1.33-.85-2.44-1.98-3.25-.13-.1-.57-.45-1.31-1.07-1.47-1.23-2.42-3-2.94-4.85-.33-1.2-.62-2.41-.86-3.61-1.15-5.8-1.95-10.02-2.4-12.69-.05-.3.09-.49.42-.56,2.54-.54,5.33-1.2,8.39-1.97Z"/>
  <path class="cls-1" d="M32.54,11.39l1.05-4.27c.02-.08.1-.13.18-.11,0,0,0,0,0,0,3.44.87,5.52,1.45,8.12,1.98.07.01.12.08.1.15l-.65,3.35c-.01.05-.06.09-.11.09-.45-.02-1.03-.06-1.74-.14-2.58-.29-4.87-.59-6.87-.91-.06,0-.1-.07-.09-.13,0,0,0,0,0,0Z"/>
  <path class="cls-1" d="M52.64,7.19l.99,4.27c.02.08-.03.17-.12.19,0,0-.01,0-.02,0l-8.47.95c-.08,0-.15-.05-.17-.12l-.64-3.34c-.02-.08.04-.16.12-.18l8.12-1.88c.08-.02.17.03.19.12,0,0,0,0,0,0Z"/>
  <circle cx="51.22" cy="14.15" r=".88"/>
  <circle cx="35.67" cy="13.87" r=".55"/>
  <path d="M48.32,13.61c.22,0,.39.17.39.39s-.17.39-.39.39-.39-.17-.39-.39.17-.39.39-.39Z"/>
  <circle cx="38.53" cy="14.93" r=".44"/>
  <path d="M34.61,14.94c.39,0,.7.31.7.7s-.31.7-.7.7-.7-.31-.7-.7.31-.7.7-.7Z"/>
  <path d="M47.68,16.38c-.21-.14-.28-.41-.15-.61.13-.2.41-.25.62-.12.21.14.28.41.15.61-.13.2-.41.25-.62.12Z"/>
  <circle cx="37.08" cy="16.01" r=".4"/>
  <path d="M50.29,15.93c.26,0,.47.21.47.47s-.21.47-.47.47-.47-.21-.47-.47.21-.47.47-.47Z"/>
  <path d="M52.79,16.71c.28,0,.51.2.51.45,0,.25-.22.46-.5.47-.28,0-.51-.2-.51-.45,0-.25.22-.46.5-.47Z"/>
  <circle cx="48.52" cy="18.02" r=".44"/>
  <path d="M36.69,19.17c-.43-.01-.77-.35-.76-.76.01-.41.37-.73.8-.72.43.01.77.35.76.76-.01.41-.37.73-.8.72Z"/>
  <path d="M51.1,18.93c-.23-.09-.35-.33-.27-.55.08-.22.34-.32.57-.24.23.09.35.33.27.55s-.34.32-.57.24Z"/>
  <circle cx="54.01" cy="19.41" r=".47"/>
  <circle cx="49.6" cy="19.59" r=".45"/>
  <circle cx="35.37" cy="20.79" r=".45"/>
  <path d="M37.55,22.5c-.47-.06-.8-.47-.74-.92.06-.45.48-.76.95-.7.47.06.8.47.74.92-.06.45-.48.76-.95.7Z"/>
  <path d="M51.45,21.06c.26,0,.47.21.47.47s-.21.47-.47.47-.47-.21-.47-.47.21-.47.47-.47Z"/>
  <circle cx="34.13" cy="21.89" r=".4"/>
  <path d="M47.94,21.59c.26,0,.46.21.46.46s-.21.46-.46.46-.46-.21-.46-.46.21-.46.46-.46Z"/>
  <path d="M53.82,22.14c.28,0,.5.22.5.5s-.22.5-.5.5-.5-.22-.5-.5.22-.5.5-.5Z"/>
  <path d="M49.79,23.32c.28,0,.5.22.5.5s-.22.5-.5.5-.5-.22-.5-.5.22-.5.5-.5Z"/>
  <path d="M36.58,24.13c-.15-.16-.16-.4,0-.55.15-.15.4-.14.55.02.15.16.16.4,0,.55-.15.15-.4.14-.55-.02Z"/>
  <path d="M34.63,24.86c-.38-.14-.57-.56-.42-.92.14-.37.56-.54.94-.4.38.14.57.56.42.92-.14.37-.56.54-.94.4Z"/>
  <path d="M51.91,24.24c.27,0,.48.22.48.48s-.22.48-.48.48-.48-.22-.48-.48.22-.48.48-.48Z"/>
  <path d="M54.05,24.55c.25,0,.45.2.45.45s-.2.45-.45.45-.45-.2-.45-.45.2-.45.45-.45Z"/>
  <path d="M50.69,26.02c.22,0,.4.18.4.4s-.18.4-.4.4-.4-.18-.4-.4.18-.4.4-.4Z"/>
  <path d="M33.74,26.38c.23-.03.44.13.46.35.03.22-.14.42-.37.45-.23.03-.44-.13-.46-.35-.03-.22.14-.42.37-.45Z"/>
  <path d="M53.38,27.03c.45-.05.85.27.9.7.04.43-.29.82-.74.86-.45.05-.85-.27-.9-.7-.04-.43.29-.82.74-.86Z"/>
  <path d="M50.48,27.56c.25,0,.46.2.46.46s-.2.46-.46.46-.46-.2-.46-.46.2-.46.46-.46Z"/>
  <path d="M35.33,27.81c.29,0,.53.24.53.53s-.24.53-.53.53-.53-.24-.53-.53.24-.53.53-.53Z"/>
  <circle cx="33.08" cy="28.45" r=".44"/>
</svg>