<?xml version="1.0" encoding="UTF-8"?>
<svg id="Layer_2" data-name="Layer 2" xmlns="http://www.w3.org/2000/svg" viewBox="0 0 50.69 104.7">
  <defs>
    <style>
      .cls-1 {
        fill: #fff;
        stroke: #000;
        stroke-miterlimit: 10;
        stroke-width: .1px;
      }
    </style>
  </defs>
  <g>
    <path class="cls-1" d="M.35,7.74C1.51,3.13,5.15.09,10.98.09c7.29,0,9.78,3.78,9.78,7.26,0,7.53-7.76,12.52-18.44,19.12l3-.12h16.04v2.69H.05v-1.79c8.79-5.42,16.77-10.85,16.77-19.94,0-4.14-1.33-6.79-5.87-6.79-3.9,0-6.6,2.73-7.5,7.84l-3.09-.62h-.01Z"/>
    <path class="cls-1" d="M25.05,14.8C25.05,5.32,30.02.05,37.53.05s12.48,5.23,12.48,14.75-4.93,14.71-12.48,14.71-12.48-5.19-12.48-14.71ZM45.97,14.8c0-8.35-2.27-14.28-8.45-14.28s-8.49,5.93-8.49,14.28,2.32,14.24,8.49,14.24,8.45-5.85,8.45-14.24Z"/>
  </g>
  <g>
    <path class="cls-1" d="M.05,52.37c0-9.48,4.97-14.75,12.48-14.75s12.48,5.23,12.48,14.75-4.93,14.71-12.48,14.71S.05,61.89.05,52.37ZM20.98,52.37c0-8.35-2.27-14.28-8.45-14.28s-8.49,5.93-8.49,14.28,2.32,14.24,8.49,14.24,8.45-5.85,8.45-14.24Z"/>
    <path class="cls-1" d="M39.15,37.82c4.72,0,11.49,2.93,11.49,13.7s-5.62,15.53-11.83,15.53c-4.2,0-7.98-1.4-9.18-5.66l3.09-.51c.69,3.71,2.96,5.74,6.17,5.74,5.06,0,7.85-5.15,7.85-13.97,0-1.17-.04-2.26-.13-3.28-1.67,3.59-4.76,5.66-8.88,5.66-4.5,0-8.79-2.58-8.79-8.35,0-6.24,5.32-8.86,10.2-8.86h.01ZM32.81,45.78c0,5.27,2.57,8.23,6.39,8.23,3.56,0,6-2.18,7.33-5.42-.77-7.18-3.73-10.34-7.46-10.34s-6.26,2.65-6.26,7.53Z"/>
  </g>
  <g>
    <path class="cls-1" d="M.35,82.88c1.16-4.6,4.8-7.65,10.63-7.65,7.29,0,9.78,3.78,9.78,7.26,0,7.53-7.76,12.52-18.44,19.12l3-.12h16.04v2.69H.05v-1.79c8.79-5.42,16.77-10.85,16.77-19.94,0-4.14-1.33-6.79-5.87-6.79-3.9,0-6.6,2.73-7.5,7.84l-3.09-.62h-.01Z"/>
    <path class="cls-1" d="M24.49,98.49l3.3-.74c.81,3.63,2.79,6.48,6.56,6.48,3.52,0,7.12-2.18,7.12-8.04,0-5.19-2.44-8.16-6.77-8.16-2.87,0-5.53,1.25-7.63,3.94l-.43-.12v-16.15h17.11v2.85h-16.55v12.68h.04c2.23-2.89,5.83-3.94,8.4-3.94,5.02,0,9.86,2.5,9.86,8.35s-5.02,9.01-11.1,9.01c-5.45,0-8.92-2.22-9.9-6.16h0Z"/>
  </g>
</svg>