<?xml version="1.0" encoding="UTF-8"?>
<svg id="Layer_2" data-name="Layer 2" xmlns="http://www.w3.org/2000/svg" viewBox="0 0 49.96 29.46">
  <defs>
    <style>
      .cls-1 {
        fill: #fff;
      }
    </style>
  </defs>
  <path class="cls-1" d="M.3,7.69C1.46,3.08,5.1.04,10.93.04c7.29,0,9.78,3.78,9.78,7.26,0,7.53-7.76,12.52-18.44,19.12l3-.12h16.04v2.69H0v-1.79c8.79-5.42,16.77-10.85,16.77-19.94,0-4.14-1.33-6.79-5.87-6.79-3.9,0-6.6,2.73-7.5,7.84l-3.09-.62h-.01Z"/>
  <path class="cls-1" d="M25,14.75c0-9.48,4.97-14.75,12.48-14.75s12.48,5.23,12.48,14.75-4.93,14.71-12.48,14.71-12.48-5.19-12.48-14.71ZM45.92,14.75c0-8.35-2.27-14.28-8.45-14.28s-8.49,5.93-8.49,14.28,2.32,14.24,8.49,14.24,8.45-5.85,8.45-14.24Z"/>
</svg>