<?xml version="1.0" encoding="UTF-8"?>
<svg id="Layer_2" data-name="Layer 2" xmlns="http://www.w3.org/2000/svg" viewBox="0 0 50.59 29.46">
  <defs>
    <style>
      .cls-1 {
        fill: #fff;
      }
    </style>
  </defs>
  <path class="cls-1" d="M0,14.75C0,5.27,4.97,0,12.48,0s12.48,5.23,12.48,14.75-4.93,14.71-12.48,14.71S0,24.27,0,14.75ZM20.93,14.75C20.93,6.4,18.66.47,12.48.47S3.99,6.4,3.99,14.75s2.32,14.24,8.49,14.24,8.45-5.85,8.45-14.24Z"/>
  <path class="cls-1" d="M39.1.2c4.72,0,11.49,2.93,11.49,13.7s-5.62,15.53-11.83,15.53c-4.2,0-7.98-1.4-9.18-5.66l3.09-.51c.69,3.71,2.96,5.74,6.17,5.74,5.06,0,7.85-5.15,7.85-13.97,0-1.17-.04-2.26-.13-3.28-1.67,3.59-4.76,5.66-8.88,5.66-4.5,0-8.79-2.58-8.79-8.35C28.89,2.82,34.21.2,39.09.2c0,0,0,0,.01,0ZM32.76,8.16c0,5.27,2.57,8.23,6.39,8.23,3.56,0,6-2.18,7.33-5.42-.77-7.18-3.73-10.34-7.46-10.34s-6.26,2.65-6.26,7.53Z"/>
</svg>