<?xml version="1.0" encoding="UTF-8"?>
<svg id="Layer_2" data-name="Layer 2" xmlns="http://www.w3.org/2000/svg" viewBox="0 0 45.45 29.42">
  <defs>
    <style>
      .cls-1 {
        fill: #fff;
      }
    </style>
  </defs>
  <path class="cls-1" d="M.3,7.65C1.46,3.05,5.1,0,10.93,0c7.29,0,9.78,3.78,9.78,7.26,0,7.53-7.76,12.52-18.44,19.12l3-.12h16.04v2.69H0v-1.79c8.79-5.42,16.77-10.85,16.77-19.94,0-4.14-1.33-6.79-5.87-6.79-3.9,0-6.6,2.73-7.5,7.84l-3.09-.62h-.01Z"/>
  <path class="cls-1" d="M24.44,23.26l3.3-.74c.81,3.63,2.79,6.48,6.56,6.48,3.52,0,7.12-2.18,7.12-8.04,0-5.19-2.44-8.16-6.77-8.16-2.87,0-5.53,1.25-7.63,3.94l-.43-.12V.47h17.11v2.85h-16.55v12.68h.04c2.23-2.89,5.83-3.94,8.4-3.94,5.02,0,9.86,2.5,9.86,8.35s-5.02,9.01-11.1,9.01c-5.45,0-8.92-2.22-9.9-6.16h0Z"/>
</svg>